SplineFontDB: 3.0
FontName: Crimson-BoldItalic
FullName: Crimson Bold Italic
FamilyName: Crimson
Weight: Bold
Copyright: Copyright (c) 2010, Sebastian Kosch (sebastian@aldusleaf.org),\nwith Reserved Font Name "Crimson".\nThis Font Software is licensed under the SIL Open Font License, Version 1.1.\nThis license is available with a FAQ at: http://scripts.sil.org/OFL
UComments: "2010-5-14: Created." 
Version: 0.12
ItalicAngle: -11
UnderlinePosition: -102
UnderlineWidth: 51
Ascent: 717
Descent: 307
LayerCount: 2
Layer: 0 0 "Back"  1
Layer: 1 0 "Fore"  0
NeedsXUIDChange: 1
XUID: [1021 85 519305545 5082149]
FSType: 0
OS2Version: 0
OS2_WeightWidthSlopeOnly: 0
OS2_UseTypoMetrics: 1
CreationTime: 1273891947
ModificationTime: 1321823894
PfmFamily: 17
TTFWeight: 700
TTFWidth: 5
LineGap: 92
VLineGap: 0
OS2TypoAscent: 0
OS2TypoAOffset: 1
OS2TypoDescent: 0
OS2TypoDOffset: 1
OS2TypoLinegap: 92
OS2WinAscent: 0
OS2WinAOffset: 1
OS2WinDescent: 0
OS2WinDOffset: 1
HheadAscent: 0
HheadAOffset: 1
HheadDescent: 0
HheadDOffset: 1
OS2Vendor: 'PfEd'
MarkAttachClasses: 1
DEI: 91125
LangName: 1033 "" "" "Bold Italic" 
Encoding: UnicodeBmp
Compacted: 1
UnicodeInterp: none
NameList: Adobe Glyph List
DisplaySize: -36
AntiAlias: 1
FitToEm: 1
WidthSeparation: 100
WinInfo: 0 11 11
Grid
0 1229 m 4
 0 -819 l 4
502 642 m 29
 0 642 l 29
 502 642 l 29
789 -227 m 29
 1195 -227 l 29
0 662 m 29
 560 662 l 29
0 670 m 29
 560 670 l 29
555 -218 m 29
 0 -218 l 29
 555 -218 l 29
560 695 m 29
 0 695 l 29
 560 695 l 29
560 443 m 29
 -6 443 l 29
 560 443 l 29
560 449 m 29
 -6 449 l 29
 560 449 l 29
EndSplineSet
BeginChars: 66098 420

StartChar: exclam
Encoding: 33 33 1
Width: 230
Flags: W
HStem: -11 138<28.557 102> 622 20G<168.5 199.5>
VStem: 3 227
LayerCount: 2
Fore
SplineSet
3 60 m 0
 10 97 44 127 79 127 c 27
 113 127 136 97 129 60 c 0
 122 23 89 -11 54 -11 c 27
 18 -11 -4 23 3 60 c 0
185 642 m 0
 214 642 238 617 230 574 c 0
 225 546 151 309 122 221 c 0
 115 201 99 190 85 190 c 0
 80 190 79 200 79 212 c 0
 82 279 101 524 111 575 c 0
 119 617 152 642 185 642 c 0
EndSplineSet
Validated: 33
EndChar

StartChar: quotedbl
Encoding: 34 34 2
Width: 340
Flags: W
HStem: 434 264<98 99.8269 252 253.827>
VStem: 62 101<565.027 671.25> 216 101<565.027 671.25>
LayerCount: 2
Fore
SplineSet
289 698 m 27
 317 698 328 692 317 633 c 0
 306 577 271 516 252 449 c 0
 249 439 238 434 231 434 c 0
 224 434 215 439 216 447 c 0
 225 537 216 590 216 636 c 1
 219 654 252 698 289 698 c 27
135 698 m 27
 163 698 174 692 163 633 c 0
 152 577 117 516 98 449 c 0
 95 439 84 434 77 434 c 0
 70 434 61 439 62 447 c 0
 71 537 62 590 62 636 c 1
 65 654 98 698 135 698 c 27
EndSplineSet
Validated: 33
EndChar

StartChar: numbersign
Encoding: 35 35 3
Width: 442
VWidth: 0
Flags: W
HStem: 170 67<17.3047 86 168 226 308 376.695> 311 67<65.3047 134 216 274 356 424.695>
LayerCount: 2
Fore
SplineSet
356 378 m 1
 356 378 398 378 427 378 c 0
 432 378 434 377 434 373 c 3
 434 357 420 311 409 311 c 2
 337 311 l 1
 308 237 l 1
 379 237 l 2
 384 237 386 235 386 231 c 3
 386 215 372 170 361 170 c 2
 289 170 l 1
 238 24 l 2
 237 21 228 16 200 16 c 0
 189 16 173 18 173 21 c 0
 173 21 174 23 174 24 c 0
 175 28 226 170 226 170 c 1
 149 170 l 1
 98 24 l 2
 97 21 88 16 60 16 c 0
 49 16 33 18 33 21 c 0
 33 21 34 23 34 24 c 0
 35 28 86 170 86 170 c 1
 15 170 l 2
 10 170 8 172 8 176 c 3
 8 192 22 237 33 237 c 2
 105 237 l 1
 134 311 l 1
 63 311 l 2
 58 311 56 313 56 317 c 3
 56 333 70 378 81 378 c 2
 153 378 l 1
 204 524 l 2
 205 527 219 532 247 532 c 0
 258 532 269 529 269 526 c 0
 269 526 268 525 268 524 c 0
 267 520 216 378 216 378 c 1
 293 378 l 1
 344 524 l 2
 345 527 359 532 387 532 c 0
 398 532 409 529 409 526 c 0
 409 526 408 525 408 524 c 0
 407 520 356 378 356 378 c 1
274 311 m 1
 197 311 l 1
 168 237 l 1
 245 237 l 1
 274 311 l 1
EndSplineSet
Validated: 1
EndChar

StartChar: dollar
Encoding: 36 36 4
Width: 457
Flags: W
HStem: -10 40<150.311 231.082> 603 40<243.094 305.637>
VStem: 15 39<102.904 189.319> 390 36<451.013 546.787>
LayerCount: 2
Fore
SplineSet
126 -65 m 17
 117.456 -64.957 92.2139 -57.2227 94.8262 -49.8613 c 9
 326.234 683.854 l 17
 334.433 684.75 360.611 677.361 358 670 c 9
 126 -65 l 17
302 643 m 0
 355 643 395 628 447 616 c 1
 441 565 435 516 426 457 c 1
 422 453 419 451 415 451 c 0
 412 451 390 450 390 458 c 0
 393 512 367 603 298 603 c 0
 263 603 218 583 206 519 c 0
 194 459 259 404 306 365 c 0
 357 323 421 282 399 168 c 0
 379 62 268 -10 170 -10 c 0
 117 -10 56 2 5 15 c 1
 4 57 11 151 15 178 c 1
 20 184 39 192 44 192 c 0
 51 192 54 190 54 184 c 0
 52 132 88 30 169 30 c 0
 214 30 261 55 274 123 c 0
 287 191 210 247 172 280 c 0
 116 327 60 369 79 469 c 0
 98 568 210 643 302 643 c 0
EndSplineSet
Validated: 37
EndChar

StartChar: percent
Encoding: 37 37 5
Width: 690
Flags: W
HStem: -1 30<501.708 552.225> 271 29<535.429 584.167> 341 30<211.791 262.309> 613 29<245.513 294.251>
LayerCount: 2
Fore
SplineSet
566.864 271 m 4
 512.614 271 484.812 159 489.916 86 c 4
 491.035 70 497.902 29 520.857 29 c 4
 575.107 29 601.756 142 597 210 c 4
 595.462 232 586.979 271 566.864 271 c 4
572.433 300 m 4
 632.107 300 682.231 279 687.755 200 c 4
 694.398 105 597.82 -1 511.021 -1 c 4
 451.345 -1 403.567 33 399.093 97 c 4
 392.449 192 485.632 300 572.433 300 c 4
276.948 613 m 4
 222.698 613 194.896 501 200 428 c 4
 201.119 412 207.986 371 230.941 371 c 4
 285.191 371 311.84 484 307.084 552 c 4
 305.546 574 297.063 613 276.948 613 c 4
282.517 642 m 4
 342.191 642 392.315 621 397.839 542 c 4
 404.482 447 307.904 341 221.104 341 c 4
 161.429 341 113.652 375 109.177 439 c 4
 102.533 534 195.716 642 282.517 642 c 4
628.273 618 m 6
 182.273 -14 l 5
 182.273 -14 148.273 -6 148.273 5 c 4
 148.273 7 149.273 9 150.273 11 c 30
 597.273 643 l 5
 597.273 643 629.273 634 629.273 623 c 4
 629.273 621 629.273 619 628.273 618 c 6
EndSplineSet
Validated: 33
EndChar

StartChar: ampersand
Encoding: 38 38 6
Width: 700
Flags: W
HStem: -5 50<319.745 491.022> 483 53<321.295 451.5>
VStem: -30 62<89 176.646> 101 129<144.451 341.837> 371 148<385.598 479.196> 427 36<129.72 183.521> 593 63<133.806 233.688> 708 76<444.215 506.732>
LayerCount: 2
Fore
SplineSet
428 536 m 27xf7
 475 536 519 503 519 456 c 27
 519 287 206 242 150 227 c 0
 81 208 32 196 32 155 c 3
 32 138 40 130 53 118 c 0
 65.5133 106.449 73 95 73 79 c 3
 73 46 49 25 19 25 c 27
 6 25 -3 27 -13 30 c 1
 -25 50 -30 80 -30 98 c 0
 -30 170 16 225 96 252 c 0
 172.788 277.916 371 300 371 437 c 3xfb
 371 466 353 483 334 483 c 3
 267 483 230 355 230 248 c 3
 230 127 300 45 404 45 c 27
 497 45 593 99 593 192 c 0
 593 209 587 228 581 234 c 1
 527 214 463 193 463 149 c 3
 463 134 464 131 465 121 c 1
 461 119 448 125 441 131 c 1
 438 136 427 149 427 176 c 3
 427 251 469 266 556 318 c 0
 624 359 708 417 708 546 c 1
 717 547 727 543 733 540 c 1
 757 522 784 478 784 431 c 27
 784 346 718 294 648 260 c 1
 652 251 656 237 656 222 c 0
 656 86 514 -5 373 -5 c 0
 244 -5 101 70 101 214 c 3
 101 364 249 536 428 536 c 27xf7
EndSplineSet
Validated: 5
EndChar

StartChar: quotesingle
Encoding: 39 39 7
Width: 186
Flags: W
HStem: 434 264<98 99.8269>
VStem: 62 101<565.027 671.25>
LayerCount: 2
Back
SplineSet
106 698 m 2
 121 698 l 2
 137 698 151 692 151 633 c 0
 151 577 123 516 117 449 c 0
 116 439 108 434 101 434 c 0
 94 434 87 439 86 447 c 0
 77 537 52 594 52 635 c 0
 52 653 80 698 106 698 c 2
EndSplineSet
Fore
SplineSet
135 698 m 31
 163 698 174 692 163 633 c 4
 152 577 117 516 98 449 c 4
 95 439 84 434 77 434 c 4
 70 434 61 439 62 447 c 4
 71 537 62 590 62 636 c 5
 65 654 98 698 135 698 c 31
EndSplineSet
Validated: 33
EndChar

StartChar: parenleft
Encoding: 40 40 8
Width: 241
VWidth: 0
Flags: W
HStem: -121 12<191.442 196.598>
LayerCount: 2
Fore
SplineSet
301 748 m 1
 204 676 -9 474 17 177 c 0
 32 4 121 -99 191 -121 c 1
 197 -119 197 -112 197 -109 c 1
 137 -54 100 23 88 164 c 0
 66 418 235 664 310 735 c 1
 311 739 307 746 301 748 c 1
EndSplineSet
Validated: 41
EndChar

StartChar: parenright
Encoding: 41 41 9
Width: 238
VWidth: 0
Flags: W
HStem: 736 12<59.4023 64.5576>
LayerCount: 2
Fore
SplineSet
-45 -121 m 1
 52 -49 264 153 238 450 c 0
 223 623 135 726 65 748 c 1
 59 746 59 739 59 736 c 1
 119 681 156 604 168 463 c 0
 190 209 21 -37 -54 -108 c 1
 -55 -112 -51 -119 -45 -121 c 1
EndSplineSet
Validated: 41
EndChar

StartChar: asterisk
Encoding: 42 42 10
Width: 376
Flags: W
HStem: 428 80<33.1873 122.375> 462 54<212.475 236.088> 472 28<139.545 183.749> 645 20G<166.5 196.5>
VStem: 116 76<307.43 384.921> 184 53<465 469 500.002 513.969>
LayerCount: 2
Fore
SplineSet
221 516 m 0x54
 246 516 284 635 341 635 c 0
 355 635 368 626 368 602 c 0
 368 540 237 524 237 492 c 0x54
 237 465 358 485 358 424 c 0
 358 400 333 378 313 378 c 0
 270 378 243 462 218 462 c 0
 195 462 210 396 192 339 c 0
 183 309 162 301 148 301 c 0
 132 301 116 317 116 334 c 0x58
 116 374 184 438 184 464 c 0
 184 469 183 472 176 472 c 0x34
 155 472 94 428 56 428 c 0
 39 428 24 442 24 458 c 0
 24 471 32 508 86 508 c 0x94
 115 508 146 500 166 500 c 0x34
 188 500 188 503 188 510 c 0
 188 534 135 573 135 616 c 0
 135 641 154 665 179 665 c 0
 214 665 212 624 212 584 c 0
 212 578 207 516 221 516 c 0x54
EndSplineSet
Validated: 33
EndChar

StartChar: plus
Encoding: 43 43 11
Width: 449
Flags: W
HStem: 213 51<17.5193 188 252 420.797> 431 20G<276 282>
LayerCount: 2
Back
SplineSet
211 19 m 25
 306 521 l 25
 294.499 39.166 l 25
 383 504 l 29
EndSplineSet
Fore
SplineSet
19 213 m 6
 16 213 14 216 14 221 c 4
 14 234 19 251 29 264 c 5
 196 264 l 5
 229 435 l 6
 231 448 274 451 278 451 c 4
 286 451 288 447 287 443 c 6
 252 264 l 5
 420 264 l 6
 422 264 423 261 423 256 c 4
 423 243 421 225 410 213 c 5
 244 213 l 5
 209 39 l 6
 207 29 182 23 166 23 c 4
 156 23 151 27 152 31 c 6
 188 213 l 5
 19 213 l 6
EndSplineSet
Validated: 1
EndChar

StartChar: comma
Encoding: 44 44 12
Width: 184
Flags: W
HStem: -123 258
VStem: 39 119<26.6182 112.658> 74 84<-24.5 111.882>
LayerCount: 2
Back
SplineSet
195 116 m 0
 200 10 146 -95 27 -162 c 0
EndSplineSet
Fore
SplineSet
0 -103 m 5xc0
 8 -98 74 -49 74 0 c 4xa0
 74 29 39 29 39 68 c 4
 39 107 80 135 123 135 c 4
 135 135 150 129 155 123 c 5
 157 118 158 112 158 101 c 4
 158 69 148 25 129 -10 c 4
 97 -67 66 -91 16 -123 c 5
 8 -121 0 -113 0 -103 c 5xc0
EndSplineSet
Validated: 1
EndChar

StartChar: hyphen
Encoding: 45 45 13
Width: 330
Flags: W
VStem: 29 257<206.461 266.565>
LayerCount: 2
Fore
SplineSet
53 267 m 2
 280 279 l 2
 285 279 286 272 286 267 c 0
 286 254 270 205 260 204 c 10
 34 193 l 2
 31 193 29 200 29 208 c 0
 29 219 42 266 53 267 c 2
EndSplineSet
Validated: 1
EndChar

StartChar: period
Encoding: 46 46 14
Width: 203
Flags: W
HStem: -11 138<44.557 118>
VStem: 19 126<15.7561 102.617>
LayerCount: 2
Fore
SplineSet
19 60 m 4
 26 97 60 127 95 127 c 31
 129 127 152 97 145 60 c 4
 138 23 105 -11 70 -11 c 31
 34 -11 12 23 19 60 c 4
EndSplineSet
Validated: 33
EndChar

StartChar: slash
Encoding: 47 47 15
Width: 383
VWidth: 0
Flags: W
LayerCount: 2
Fore
SplineSet
454 755 m 1
 30 -12 l 2
 27 -17 -1 -34 -24 -34 c 0
 -28 -34 -35 -30 -36 -28 c 9
 389 739 l 2
 394 747 424 761 442 761 c 0
 448 761 452 758 454 755 c 1
EndSplineSet
Validated: 1
EndChar

StartChar: zero
Encoding: 48 48 16
Width: 479
Flags: W
HStem: -5 38<225.75 281.2> 604 38<318.932 374.996>
LayerCount: 2
Fore
SplineSet
206 152 m 0
 206 93 218 33 250 33 c 0
 311 33 395 239 395 462 c 0
 395 494 394 604 351 604 c 0
 288 604 206 398 206 152 c 0
82 295 m 0
 120 488 254 642 362 642 c 0
 492 642 550 503 517 334 c 0
 484 165 357 -5 233 -5 c 0
 120 -5 49 126 82 295 c 0
EndSplineSet
Validated: 33
EndChar

StartChar: one
Encoding: 49 49 17
Width: 296
Flags: W
HStem: -3 29<19.2093 81.1797 229.124 281.062> 622 20G<303.5 333.5>
VStem: 18 321
LayerCount: 2
Fore
SplineSet
103 479 m 5
 96 483 93 495 93 502 c 4
 93 504 94 507 97 510 c 5
 199 565 278 609 329 642 c 13
 331 642 l 6
 336 642 341 619 339 606 c 5
 339 606 311 550 290 439 c 6
 234 135 l 6
 228 102 223 73 224 46 c 4
 225 35 275 26 282 26 c 4
 285 26 283 15 282 8 c 4
 281 3 280 -1 279 -3 c 5
 242 -1 158 2 121 2 c 4
 84 2 56 -1 18 -3 c 5
 14 2 19 26 24 26 c 4
 35 26 83 35 88 46 c 4
 97 66 101 84 104 103 c 6
 165 415 l 6
 177 475 183 506 164 506 c 4
 157 506 121 488 103 479 c 5
EndSplineSet
Validated: 33
EndChar

StartChar: two
Encoding: 50 50 18
Width: 446
Flags: W
HStem: 0 110<154 373.021> 557 85<246.69 363.5>
VStem: 337 142<402.659 532.172>
LayerCount: 2
Fore
SplineSet
479 490 m 4
 479 404 420 338 343 270 c 4
 252 190 152 110 154 110 c 13
 326 110 l 6
 379 110 399 144 411 176 c 4
 413 181 418 185 426 185 c 4
 433 185 439 181 443 178 c 5
 422 128 372 18 364 0 c 13
 364 0 31 0 24 0 c 5
 20 0 16 10 17 22 c 5
 72 72 186 191 242 260 c 4
 304 336 337 406 337 468 c 4
 337 520 308 557 254 557 c 4
 196 557 150 502 143 493 c 5
 134 493 125 505 124 513 c 5
 135 538 230 642 327 642 c 4
 400 642 479 587 479 490 c 4
EndSplineSet
Validated: 33
EndChar

StartChar: three
Encoding: 51 51 19
Width: 425
Flags: W
HStem: -5 38<160.623 252.128> 315 32<178.051 224.342> 563 79<245.23 349.5>
VStem: 29 111<50.5783 113.444> 317 131<144.812 294.683> 337 114<444.921 538.359>
LayerCount: 2
Fore
SplineSet
326 642 m 0xf4
 373 642 451 615 451 515 c 0xf4
 451 429 366 383 328 372 c 1
 384 365 448 311 448 237 c 0
 448 83 286 -5 173 -5 c 0
 106 -5 61 13 38 29 c 1
 34 34 29 48 29 59 c 0
 29 113 66 126 88 126 c 0
 124 126 131 97 140 78 c 0
 152 54 178 33 203 33 c 0
 260 33 317 103 317 216 c 0xf8
 317 283 293 321 225 321 c 0
 211 321 194 318 182 315 c 1
 179 320 178 328 178 333 c 0
 178 337 180 344 182 347 c 1
 247 355 337 398 337 474 c 0
 337 534 302 563 260 563 c 0
 204 563 154 498 145 490 c 1
 137 490 125 504 125 513 c 1
 154 563 246 642 326 642 c 0xf4
EndSplineSet
Validated: 1
EndChar

StartChar: four
Encoding: 52 52 20
Width: 493
Flags: W
HStem: -5 21G<319 348> 175 67<144 309 448 503.066> 622 20G<495.5 503.5>
LayerCount: 2
Fore
SplineSet
499 642 m 4
 508 642 522 624 520 616 c 6
 448 242 l 29
 501 242 l 22
 507 242 509 234 509 226 c 4
 509 208 499 184 492 175 c 5
 468 175 434 175 434 175 c 29
 401 2 l 5
 401 2 366 -5 330 -5 c 4
 308 -5 275 -2 276 5 c 6
 309 175 l 29
 54 175 l 5
 48 179 45 192 46 198 c 5
 471 626 l 6
 481 636 492 642 499 642 c 4
364 465 m 29
 144 242 l 29
 321 242 l 29
 364 465 l 29
EndSplineSet
Validated: 33
EndChar

StartChar: five
Encoding: 53 53 21
Width: 426
Flags: W
HStem: -5 38<153.623 244.944> 331 85<180.005 273.743> 530 105<201.214 399.826>
VStem: 22 111<50.5783 113.444> 310 128<153.553 295.326>
LayerCount: 2
Fore
SplineSet
438 247 m 0
 438 93 279 -5 166 -5 c 0
 99 -5 54 13 31 29 c 1
 27 34 22 48 22 59 c 0
 22 113 59 126 81 126 c 0
 117 126 124 97 133 78 c 0
 145 54 171 33 196 33 c 0
 253 33 310 103 310 216 c 0
 310 290 273 331 204 331 c 3
 184 331 148 325 129 319 c 1
 126 321 121 328 117 333 c 1
 151 468 177 591 186 635 c 1
 277 635 389 635 439 646 c 1
 445 642 449 634 449 631 c 1
 449 612 412 554 402 540 c 1
 357 530 223 530 206 530 c 1
 203 518 187 438 177 392 c 1
 205 410 259 416 270 416 c 0
 347 416 438 358 438 247 c 0
EndSplineSet
Validated: 1
EndChar

StartChar: six
Encoding: 54 54 22
Width: 427
VWidth: 0
Flags: W
HStem: -6 35<213.496 274.772> 322 52<278.404 376.089> 618 24<484.426 506.264>
VStem: 64 130<88.2117 285.473> 340 131<131.284 310.01>
LayerCount: 2
Fore
SplineSet
349 374 m 4
 426 374 471 316 471 228 c 4
 471 98 360 -6 233 -6 c 4
 153 -6 64 64 64 178 c 4
 64 270 103 372 191 467 c 4
 258 540 374 624 502 642 c 5
 508 638 508 624 507 618 c 5
 384 566 303 490 250 376 c 4
 209 287 194 202 194 133 c 4
 194 64 215 29 241 29 c 4
 297 29 340 151 340 228 c 4
 340 277 329 322 288 322 c 4
 279 322 271 322 265 319 c 5
 262 321 260 326 260 334 c 7
 260 346 312 374 349 374 c 4
EndSplineSet
Validated: 1
EndChar

StartChar: seven
Encoding: 55 55 23
Width: 418
Flags: W
HStem: 526 110<174.813 435>
LayerCount: 2
Fore
SplineSet
86 13 m 1
 137 73 313 334 435 526 c 1
 378 526 220 526 220 526 c 2
 174 526 149 480 130 442 c 0
 128 439 127 437 118 436 c 0
 109 435 100 440 97 444 c 1
 119 493 171 605 184 636 c 1
 199 636 452 637 452 637 c 2
 485 637 530 641 536 641 c 0
 542 641 541 631 540 626 c 0
 538 617 524 598 503 565 c 2
 138 -8 l 1
 134 -10 126 -10 124 -10 c 0
 117 -10 82 -6 86 13 c 1
EndSplineSet
Validated: 33
EndChar

StartChar: eight
Encoding: 56 56 24
Width: 433
Flags: W
HStem: -6 37<216.379 300.069> 608 34<309.884 376.843>
LayerCount: 2
Fore
SplineSet
356 642 m 0
 438 642 531 608 509 493 c 0
 495 420 433 379 375 355 c 0
 371 353 372 351 374 349 c 0
 434 297 482 231 468 162 c 0
 444 45 332 -6 235 -6 c 0
 133 -6 51 71 70 168 c 0
 87 256 165 288 217 311 c 0
 220 312 221 316 219 317 c 0
 185 347 145 411 159 485 c 0
 176 570 255 642 356 642 c 0
347 608 m 0
 311 608 278 566 278 508 c 0
 278 451 306 413 340 383 c 0
 342 382 343 381 344 381 c 0
 345 381 347 381 349 384 c 0
 375 420 395 465 395 519 c 0
 395 554 388 608 347 608 c 0
254 31 m 0
 299 31 332 75 339 120 c 0
 353 208 263 276 254 284 c 0
 252 285 252 285 250 285 c 0
 249 285 248 284 247 283 c 0
 227 250 211 212 202 151 c 0
 191 74 213 31 254 31 c 0
EndSplineSet
Validated: 33
EndChar

StartChar: nine
Encoding: 57 57 25
Width: 461
VWidth: 0
Flags: W
HStem: -6 24<64.7364 86.5737> 262 52<194.911 292.596> 607 35<296.228 357.504>
VStem: 100 131<325.99 504.716> 377 130<350.527 547.788>
LayerCount: 2
Fore
SplineSet
222 262 m 0
 145 262 100 320 100 408 c 0
 100 538 211 642 338 642 c 0
 418 642 507 572 507 458 c 0
 507 366 468 264 380 169 c 0
 313 96 197 12 69 -6 c 1
 63 -2 63 12 64 18 c 1
 187 70 268 146 321 260 c 0
 362 349 377 434 377 503 c 0
 377 572 356 607 330 607 c 0
 274 607 231 485 231 408 c 0
 231 359 242 314 283 314 c 0
 292 314 300 314 306 317 c 1
 309 315 311 310 311 302 c 3
 311 290 259 262 222 262 c 0
EndSplineSet
Validated: 1
EndChar

StartChar: colon
Encoding: 58 58 26
Width: 203
Flags: W
HStem: -11 138<44.557 118> 305 138<105.557 179>
VStem: 19 187
LayerCount: 2
Fore
SplineSet
80 376 m 0
 87 413 121 443 156 443 c 27
 190 443 213 413 206 376 c 0
 199 339 166 305 131 305 c 27
 95 305 73 339 80 376 c 0
19 60 m 4
 26 97 60 127 95 127 c 27
 129 127 152 97 145 60 c 0
 138 23 105 -11 70 -11 c 27
 34 -11 12 23 19 60 c 4
EndSplineSet
Validated: 33
EndChar

StartChar: semicolon
Encoding: 59 59 27
Width: 262
Flags: W
HStem: 305 138<143.557 217>
VStem: 63 119<26.6182 112.658> 98 84<-24.5 111.882> 118 126<331.756 418.617>
LayerCount: 2
Fore
SplineSet
24 -103 m 1xc0
 32 -98 98 -49 98 0 c 0xa0
 98 29 63 29 63 68 c 0
 63 107 104 135 147 135 c 0
 159 135 174 129 179 123 c 1
 181 118 182 112 182 101 c 0
 182 69 172 25 153 -10 c 0
 121 -67 90 -91 40 -123 c 1
 32 -121 24 -113 24 -103 c 1xc0
244 376 m 0x90
 237 339 204 305 169 305 c 27
 133 305 111 339 118 376 c 0
 125 413 159 443 194 443 c 27
 228 443 251 413 244 376 c 0x90
EndSplineSet
Validated: 33
EndChar

StartChar: less
Encoding: 60 60 28
Width: 427
Flags: W
LayerCount: 2
Fore
SplineSet
93 209 m 1
 359 51 l 1
 359 51 361 50 360 45 c 0
 359 38 340 -15 334 -15 c 0
 333 -15 332 -14 330 -13 c 2
 18 177 l 2
 6 185 6 200 9 217 c 0
 11 228 20 236 30 241 c 2
 414 428 l 2
 416 429 418 430 419 430 c 0
 422 430 423 423 423 386 c 0
 423 373 419 364 419 364 c 1
 93 209 l 1
EndSplineSet
Validated: 33
EndChar

StartChar: equal
Encoding: 61 61 29
Width: 539
Flags: W
HStem: 164 51<72.5193 475.797> 304 51<99.5193 502.797>
LayerCount: 2
Fore
SplineSet
74 164 m 6
 71 164 69 167 69 172 c 4
 69 185 74 202 84 215 c 5
 475 215 l 6
 477 215 478 212 478 207 c 4
 478 194 476 176 465 164 c 5
 74 164 l 6
101 304 m 2
 98 304 96 307 96 312 c 0
 96 325 101 342 111 355 c 1
 502 355 l 2
 504 355 505 352 505 347 c 0
 505 334 503 316 492 304 c 1
 101 304 l 2
EndSplineSet
Validated: 1
EndChar

StartChar: greater
Encoding: 62 62 30
Width: 441
Flags: W
LayerCount: 2
Fore
SplineSet
331 209 m 5
 65 364 l 1
 65 364 62 367 64 373 c 0
 78 410 88 430 91 430 c 0
 92 430 93 429 95 428 c 2
 406 241 l 2
 414 236 420 228 418 217 c 0
 415 200 409 185 393 177 c 2
 8 -13 l 2
 6 -14 4 -15 3 -15 c 0
 -3 -15 -2 38 -1 45 c 0
 0 50 3 51 3 51 c 1
 331 209 l 5
EndSplineSet
Validated: 33
EndChar

StartChar: question
Encoding: 63 63 31
Width: 346
Flags: W
HStem: -11 138<40.557 114> 573 73<163.5 266.012>
VStem: 15 126<15.7561 102.617> 53 92<252.115 335.273> 275 73<484.874 568.113>
LayerCount: 2
Fore
SplineSet
15 60 m 0xe8
 22 97 56 127 91 127 c 27
 125 127 148 97 141 60 c 0
 134 23 101 -11 66 -11 c 27
 30 -11 8 23 15 60 c 0xe8
179 215 m 1
 179 209 171 198 166 195 c 1
 142 195 53 246 53 302 c 3
 53 368 108 394 134 412 c 0
 160.978 430.677 210.645 449.494 244 477.161 c 0
 263.904 493.672 275 509.334 275 534 c 3
 275 558 263 573 238 573 c 0
 208 573 177 522 147 522 c 0
 101 522 89 571 104 609 c 1
 116 624 140 646 187 646 c 0
 270 646 348 574 348 500 c 0
 348 445 334.966 403.53 260 357 c 0
 244.007 347.073 210.679 332.585 184 315.044 c 0
 162.301 300.778 145 284.492 145 267 c 3xd8
 145 238 171 220 179 215 c 1
EndSplineSet
Validated: 33
EndChar

StartChar: at
Encoding: 64 64 32
Width: 768
Flags: W
HStem: -17 78<479.5 579.073> -7 88<261 382> 394 55<420.816 528> 540 42<402.064 600.576>
VStem: 60 52<19.9337 256.798> 203 126<86.0352 221.784> 718 57<193.413 422.987>
LayerCount: 2
Back
SplineSet
16.835 228 m 0
 58.0439 440 259.477 612 465.478 612 c 0
 671.478 612 806.044 440 764.835 228 c 0
 723.626 16 522.193 -156 316.193 -156 c 0
 110.193 -156 -24.374 16 16.835 228 c 0
67.6406 227 m 0
 103.345 410.68 277.156 560.76 455.696 560.76 c 0
 634.236 560.76 749.704 410.68 714 227 c 0
 678.296 43.3193 504.483 -106.761 325.943 -106.761 c 0
 147.403 -106.761 31.9365 43.3193 67.6406 227 c 0
EndSplineSet
Fore
SplineSet
555 132 m 2x7e
 545 84 549 61 578 61 c 3
 623 61 718 162 718 300 c 0
 718 439 654 540 495 540 c 3
 356 540 112 382 112 142 c 0
 112 61 132 -12 202 -76 c 0
 216.177 -88.9622 237 -100 245 -104 c 1
 239 -109 224 -114 211 -114 c 0
 204 -114 172 -106 151 -88 c 0
 92.8586 -38.1645 60 31 60 131 c 0
 60 383 305 582 513 582 c 3
 698 582 775 447 775 314 c 0
 775 93 577 -17 504 -17 c 0xbe
 455 -17 429 9 429 58 c 0
 429 62 430 70 431 77 c 0
 432 85 434 92 435 96 c 1
 414 59 349 -7 289 -7 c 0
 233 -7 203 47 203 115 c 0
 203 294 383 449 510 449 c 0
 546 449 597 438 617 431 c 1
 555 132 l 2x7e
454 394 m 0
 386 394 329 270 329 152 c 0
 329 104 343 81 365 81 c 0x7e
 399 81 449 182 469 281 c 2
 489 382 l 1
 482 390 468 394 454 394 c 0
EndSplineSet
Validated: 33
EndChar

StartChar: A
Encoding: 65 65 33
Width: 649
Flags: W
HStem: -4 37<-9.51572 46.9561 138.449 192.56 365.358 427.203 582.633 630.23> 225 48<246 402.999> 642 20G<440 449>
LayerCount: 2
Fore
SplineSet
110 134 m 2
 404 624 l 2
 412 637 435 662 445 662 c 0
 453 662 462 658 463 655 c 1
 556 148 l 2
 562 117 564 97 568 76 c 0
 576 35 626 33 633 33 c 1
 636 24 631 0 627 -4 c 1
 590 -2 545 4 504 4 c 0
 461 4 396 -2 362 -4 c 1
 358 1 365 33 370 33 c 1
 386 33 413 39 428 51 c 0
 435 56 439 61 440 68 c 0
 442 77 413 220 413 220 c 1
 413 220 411 224 408 224 c 0
 373 226 342 225 319 225 c 0
 281 225 255 225 222 224 c 0
 219 224 215 221 214 219 c 1
 214 219 180 163 164 135 c 0
 150 110 132 74 131 67 c 0
 126 41 189 33 196 33 c 1
 200 26 193 0 189 -4 c 1
 157 0 131 4 90 4 c 0
 47 4 21 0 -12 -4 c 1
 -15 0 -13 21 -7 32 c 1
 4 32 52 48 64 64 c 0
 85 92 93 106 110 134 c 2
364 476 m 1
 246 280 l 1
 246 280 246 276 248 276 c 0
 266 274 303 273 324 273 c 0
 353 273 370 273 399 275 c 0
 401 275 403 280 403 280 c 1
 364 476 l 1
EndSplineSet
Validated: 33
EndChar

StartChar: B
Encoding: 66 66 34
Width: 554
Flags: W
HStem: -3 42<-6.36725 61.9043 203.25 318.986> 332 39<258 356.366> 620 40<113.448 166.931 308.338 399.74>
LayerCount: 2
Fore
SplineSet
258 371 m 1
 306 371 l 2
 352 371 393 412 408 487 c 0
 426 582 404 620 357 620 c 0
 336 620 315 619 308 608 c 0
 301 596 298 576 292 547 c 2
 258 371 l 1
250 332 m 1
 207 109 l 2
 206 103 198 63 203 51 c 0
 208 40 235 39 259 39 c 0
 302 39 364 73 384 176 c 0
 399 251 386 332 298 332 c 2
 250 332 l 1
392 660 m 0
 478 660 572 618 549 502 c 0
 533 422 449 376 422 366 c 0
 414 363 415 360 416 360 c 0
 461 354 553 296 533 192 c 0
 520 126 469 67 404 30 c 0
 342 -5 273 -4 204 -3 c 0
 165 -3 24 -2 -12 -3 c 1
 -15 3 -11 27 -5 34 c 1
 7 35 51 38 58 51 c 0
 69 71 75 102 83 145 c 2
 155 513 l 2
 163 556 170 587 166 607 c 0
 164 620 121 622 109 623 c 1
 106 630 112 654 117 660 c 1
 158 657 210 657 249 657 c 0
 288 657 338 660 392 660 c 0
EndSplineSet
Validated: 33
EndChar

StartChar: C
Encoding: 67 67 35
Width: 595
Flags: W
HStem: -7 44<251.36 413.302> 624 43<320.26 484.328>
VStem: 13 144<163.523 404.486> 552 34<480.548 544.905>
LayerCount: 2
Fore
SplineSet
404 624 m 4
 273 624 157 478 157 268 c 4
 157 176 195 37 326 37 c 4
 373 37 416 55 446 80 c 4
 492 118 532 196 535 204 c 5
 549 204 560 199 566 192 c 5
 564 181 512 48 498 40 c 4
 442 9 384 -7 298 -7 c 4
 103 -7 13 142 13 276 c 4
 13 526 227 667 404 667 c 4
 465 667 546 650 599 638 c 5
 599 627 588 506 586 494 c 4
 585 488 575 480 564 480 c 7
 559 480 555 480 552 484 c 5
 550 523 522 624 404 624 c 4
EndSplineSet
Validated: 1
EndChar

StartChar: D
Encoding: 68 68 36
Width: 697
Flags: W
HStem: -3 42<-6.36725 61.9043 205.837 366.096> 620 40<113.448 166.931 308.338 440.533>
LayerCount: 2
Fore
SplineSet
292 547 m 2
 213 141 l 2
 212 135 201 82 205 62 c 0
 208 48 235 39 259 39 c 0
 411 39 496 119 534 314 c 0
 572 510 495 620 357 620 c 0
 336 620 315 619 308 608 c 0
 301 596 298 576 292 547 c 2
392 660 m 0
 607 660 722 522 682 317 c 0
 637 83 457 -3 256 -3 c 0
 217 -3 24 -2 -12 -3 c 1
 -15 3 -11 27 -5 34 c 1
 7 35 51 38 58 51 c 0
 69 71 75 102 83 145 c 2
 155 513 l 2
 163 556 170 587 166 607 c 0
 164 620 121 622 109 623 c 1
 106 630 112 654 117 660 c 1
 158 657 210 657 249 657 c 0
 288 657 337 659 392 660 c 0
EndSplineSet
Validated: 33
EndChar

StartChar: E
Encoding: 69 69 37
Width: 549
Flags: W
HStem: -3 37<-8.59805 58.512> -2.2894 44.2894<204.668 400.762> 310 47<256.968 381.521> 620 37<115.098 166.741 308.338 482.305>
VStem: 403 29<234.175 275.196> 440 29<399.002 434.894> 515 36<511.277 581.026>
LayerCount: 2
Back
SplineSet
106.96 2 m 0x76
 48.96 2 33.96 -2 -12.04 -4 c 17
 -13.04 -3 -14.04 0 -14.04 5 c 0
 -14.04 17 -8.04004 30 -6.04004 30 c 0
 4.95996 30 45.96 42 52.96 55 c 0
 63.96 74 70.96 106 77.96 143 c 2
 150.96 521 l 2
 153.96 539 161.96 576 160.96 599 c 1
 158.96 611 120.96 628 109.96 628 c 0
 108.96 628 107.96 631 107.96 635 c 0
 107.96 644 109.96 657 114.96 662 c 1xae
 114.96 662 194.96 659 245.96 659 c 24
 362.96 660 445.96 664 546.96 664 c 1
 544.96 634 544.96 603 544.96 573 c 0
 544.96 553 544.96 534 544.96 516 c 1
 541.96 513 529.96 511 522.96 511 c 0
 515.96 511 511.96 513 510.96 518 c 0
 496.96 568 447.96 610 398.96 610 c 2
 363.96 610 l 2
 325.96 610 304.96 609 300.96 597 c 0
 293.96 578 284.96 542 280.96 519 c 2
 250.96 365 l 2
 249.96 360 269.96 359 289.96 359 c 2
 368.96 359 l 2
 398.96 359 400.96 362 426.96 421 c 0
 428.96 426 435.96 428 442.96 428 c 0
 449.96 428 459.96 426 461.96 423 c 1
 425.96 234 l 1
 423.96 232 411.96 230 404.96 230 c 0
 397.96 230 392.96 233 391.96 238 c 0
 390.96 267 389.96 283 380.96 292 c 0
 370.96 302 349.96 304 305.96 304 c 0
 279.96 304 238.96 304 236.96 295 c 2
 207.96 141 l 2
 204.96 126 199.96 101 199.96 82 c 0
 199.96 60 201.96 54 260.96 54 c 2
 284.96 54 l 2
 319.96 54 364.96 65 394.96 80 c 0
 414.96 90 453.96 125 478.96 170 c 0
 480.96 174 485.96 176 492.96 176 c 0
 501.96 176 517.96 173 519.96 170 c 1
 491.96 116 450.96 42 435.96 -2 c 1
 334.96 -2 191.96 2 106.96 2 c 0x76
EndSplineSet
Fore
SplineSet
249 657 m 0xbe
 288 657 498 663 553 664 c 1
 550 614 551 561 551 516 c 1
 548 513 535 511 528 511 c 0
 521 511 516 514 515 519 c 0
 506 574 491 620 434 620 c 2
 357 620 l 0
 336 620 315 619 308 608 c 0
 301 596 298 576 292 547 c 2
 257 368 l 2
 256 362 275 357 295 357 c 2
 344 357 l 2
 399 357 414 369 440 427 c 0
 442 432 445 435 452 435 c 0
 459 435 467 433 469 430 c 1
 432 238 l 1
 430 236 421 234 414 234 c 0
 407 234 403 237 403 242 c 0
 401 290 390 299 382 303 c 0
 372 308 348 310 313 310 c 0
 287 310 245 308 243 296 c 2
 213 141 l 2
 212 135 201 82 205 62 c 0
 208 48 237 42 261 42 c 0
 323 42 l 2
 358 42 390 52 416 75 c 0
 440 96 459 125 484 170 c 0
 486 174 492 176 499 176 c 0
 508 176 523 173 525 170 c 1
 497 116 457 42 442 -2 c 1
 416.203 -2 241.651 -2 116 -2.2894 c 0x7e
 51.6885 -2.43752 0.187748 -2.66145 -12 -3 c 1
 -15 3 -11 27 -5 34 c 1
 7 35 51 38 58 51 c 0
 69 71 75 102 83 145 c 2
 155 513 l 2
 163 556 170 587 166 607 c 0
 164 620 121 622 109 623 c 1
 106 630 112 654 117 660 c 1
 158 657 210 657 249 657 c 0xbe
EndSplineSet
Validated: 33
EndChar

StartChar: F
Encoding: 70 70 38
Width: 547
Flags: W
HStem: -4 37<-7.72067 58.9979 204.001 264.413> 306 47<256.968 381.521> 620 37<116.098 167.741 309.338 483.305>
VStem: 403 29<230.175 271.196> 440 29<395.002 430.894> 516 36<511.277 581.026>
LayerCount: 2
Back
SplineSet
117.96 3 m 0xec
 59.96 3 38.96 -1 -12.04 -4 c 17
 -13.04 -3 -14.04 0 -14.04 5 c 0
 -14.04 17 -8.04004 30 -6.04004 30 c 0
 4.95996 30 45.96 42 52.96 55 c 0
 63.96 74 70.96 106 77.96 143 c 2
 150.96 521 l 2
 153.96 539 161.96 576 160.96 599 c 1
 158.96 611 120.96 628 109.96 628 c 0
 108.96 628 107.96 631 107.96 635 c 0
 107.96 644 109.96 657 114.96 662 c 1xdc
 114.96 662 194.96 659 245.96 659 c 24
 362.96 660 444.96 664 545.96 664 c 1
 543.96 634 543.96 603 543.96 573 c 0
 543.96 553 543.96 534 543.96 516 c 1
 540.96 513 528.96 511 521.96 511 c 0
 514.96 511 510.96 513 509.96 518 c 0
 495.96 568 446.96 610 397.96 610 c 2
 362.96 610 l 2
 324.96 610 303.96 609 299.96 597 c 0
 292.96 578 283.96 542 279.96 519 c 2
 249.96 365 l 2
 248.96 360 268.96 359 288.96 359 c 2
 367.96 359 l 2
 397.96 359 399.96 362 425.96 421 c 0
 427.96 426 434.96 428 441.96 428 c 0
 448.96 428 458.96 426 460.96 423 c 1
 424.96 234 l 1
 422.96 232 410.96 230 403.96 230 c 0
 396.96 230 391.96 233 390.96 238 c 0
 389.96 267 388.96 283 379.96 292 c 0
 369.96 302 348.96 304 304.96 304 c 0
 278.96 304 237.96 304 235.96 295 c 2
 206.96 141 l 2
 199.96 106 197.96 88 197.96 74 c 0
 197.96 31 273.96 30 280.96 30 c 0
 283.96 30 282.96 20 281.96 14 c 0
 280.96 9 278.96 -1 276.96 -4 c 1
 239.96 -2 159.96 3 117.96 3 c 0xec
EndSplineSet
Fore
SplineSet
250 657 m 0
 289 657 499 663 554 664 c 1
 551 614 552 561 552 516 c 1
 549 513 536 511 529 511 c 0
 522 511 517 514 516 519 c 0
 507 574 492 620 435 620 c 2
 358 620 l 0
 337 620 316 619 309 608 c 0
 302 596 299 576 293 547 c 2
 257 364 l 2
 256 358 275 353 295 353 c 2
 344 353 l 2
 399 353 414 365 440 423 c 0
 442 428 445 431 452 431 c 0
 459 431 467 429 469 426 c 1
 432 234 l 1
 430 232 421 230 414 230 c 0
 407 230 403 233 403 238 c 0
 401 286 390 295 382 299 c 0
 372 304 348 306 313 306 c 0
 287 306 245 304 243 292 c 2
 215 145 l 2
 207 102 200 71 204 51 c 0
 206 38 256 34 268 33 c 1
 271 26 266 2 261 -4 c 1
 226 0 160 3 121 3 c 0
 82 3 25 0 -12 -4 c 1
 -15 2 -10 26 -4 33 c 1
 8 34 52 38 59 51 c 0
 70 71 76 102 84 145 c 2
 156 513 l 2
 164 556 171 587 167 607 c 0
 165 620 122 622 110 623 c 1
 107 630 113 654 118 660 c 1
 159 657 211 657 250 657 c 0
EndSplineSet
Validated: 33
EndChar

StartChar: G
Encoding: 71 71 39
Width: 595
Flags: W
HStem: -7 44<251.36 385.676> 274 37<364.178 418.658 569.574 619.751> 624 43<320.26 484.11>
VStem: 13 144<163.523 404.486> 422 105<101.752 214.497> 552 34<480.548 544.905>
LayerCount: 2
Fore
SplineSet
404 667 m 0
 465 667 546 650 599 638 c 1
 599 627 588 506 586 494 c 0
 585 488 575 480 564 480 c 3
 559 480 555 480 552 484 c 1
 550 523 521 624 404 624 c 0
 273 624 157 478 157 268 c 0
 157 176 195 37 326 37 c 0
 360 37 376 45 383 50 c 0
 387 53 391 58 393 67 c 0
 396 82 408 148 417 196 c 0
 421 216 423 225 422 247 c 0
 420 272 372 274 361 274 c 0
 356 274 362 306 368 311 c 1
 415 309 467 305 514 305 c 0
 553 305 586 309 624 311 c 1
 625 298 619 274 616 274 c 1
 609 274 581 268 569 261 c 0
 563 257 554 237 550 218 c 0
 543 181 534 132 527 98 c 0
 525 89 528 74 527 69 c 0
 525 58 503 42 490 36 c 0
 437 10 384 -7 298 -7 c 0
 103 -7 13 142 13 276 c 0
 13 526 227 667 404 667 c 0
EndSplineSet
Validated: 33
EndChar

StartChar: H
Encoding: 72 72 40
Width: 726
Flags: W
HStem: -4 37<-7.72067 58.9979 204.001 256.413 346.402 412.998 558.001 610.413> 317 51<261.686 468.405> 625 37<114.587 166.999 312.002 378.598 468.587 520.999 666.002 732.598>
LayerCount: 2
Back
SplineSet
364.96 369 m 4
 408.96 369 475.96 369 476.96 375 c 6
 504.96 523 l 6
 507.96 541 513.96 574 513.96 600 c 4
 513.96 626 476.96 628 465.96 628 c 4
 464.96 628 463.96 630 463.96 634 c 4
 463.96 643 467.96 658 471.96 662 c 5
 513.96 660 560.96 656 603.96 656 c 4
 644.96 656 686.96 660 724.96 662 c 5
 724.96 660 724.96 658 724.96 656 c 7
 724.96 634 717.96 628 715.96 628 c 4
 708.96 628 664.96 615 658.96 604 c 4
 645.96 580 641.96 555 634.96 519 c 6
 560.96 139 l 6
 554.96 108 549.96 92 549.96 59 c 7
 549.96 43 591.96 30 598.96 30 c 4
 599.96 30 600.96 28 600.96 25 c 4
 600.96 17 596.96 2 592.96 -4 c 5
 555.96 -2 510.96 3 469.96 3 c 4
 426.96 3 383.96 -2 340.96 -4 c 5
 339.96 -3 339.96 -1 339.96 2 c 4
 339.96 12 342.96 30 344.96 30 c 4
 355.96 30 396.96 40 404.96 53 c 4
 414.96 70 424.96 117 428.96 135 c 6
 462.96 304 l 6
 462.96 305 l 7
 462.96 311 395.96 311 352.96 311 c 4
 305.96 311 240.96 311 238.96 303 c 6
 206.96 139 l 6
 200.96 108 196.96 92 196.96 59 c 7
 196.96 43 237.96 30 244.96 30 c 4
 245.96 30 246.96 28 246.96 25 c 4
 246.96 17 243.96 2 239.96 -4 c 5
 202.96 -2 153.96 3 112.96 3 c 4
 69.96 3 29.96 -2 -13.04 -4 c 5
 -14.04 -3 -14.04 -1 -14.04 2 c 4
 -14.04 12 -10.04 30 -8.04004 30 c 4
 2.95996 30 42.96 39 50.96 52 c 4
 60.96 69 72.96 117 75.96 135 c 6
 150.96 523 l 6
 153.96 539 159.96 579 159.96 596 c 4
 159.96 620 118.96 628 111.96 628 c 4
 110.96 628 110.96 629 110.96 632 c 4
 110.96 641 113.96 659 116.96 662 c 5
 158.96 660 195.96 656 238.96 656 c 4
 279.96 656 332.96 660 370.96 662 c 5
 370.96 661 370.96 659 370.96 657 c 7
 370.96 647 366.96 628 362.96 628 c 4
 355.96 628 309.96 615 303.96 604 c 4
 294.96 588 280.96 525 279.96 519 c 6
 252.96 378 l 6
 252.96 377 252.96 377 252.96 376 c 7
 252.96 371 262.96 369 364.96 369 c 4
EndSplineSet
Fore
SplineSet
250 655 m 4
 289 655 345 658 382 662 c 5
 385 656 381 632 375 625 c 5
 363 624 319 620 312 607 c 4
 301 587 294 556 286 513 c 6
 259 371 l 5
 259 369 260 368 260 368 c 5
 296 367 330 365 372 365 c 4
 406 365 447 367 481 368 c 5
 481 368 484 370 484 372 c 4
 510 513 l 6
 518 556 525 587 521 607 c 4
 519 620 477 624 465 625 c 5
 462 632 467 656 472 662 c 5
 507 658 565 655 604 655 c 4
 643 655 699 658 736 662 c 5
 739 656 735 632 729 625 c 5
 717 624 673 620 666 607 c 4
 655 587 648 556 640 513 c 6
 569 145 l 6
 561 102 554 71 558 51 c 4
 560 38 602 34 614 33 c 5
 617 26 612 2 607 -4 c 5
 572 0 514 3 475 3 c 4
 436 3 380 0 343 -4 c 5
 340 2 344 26 350 33 c 5
 362 34 406 38 413 51 c 4
 424 71 431 102 439 145 c 6
 471 310 l 4
 471 312 470 315 470 315 c 5
 436 316 400 317 362 317 c 4
 259 317 251 315 248 313 c 5
 247 312 246 309 246 309 c 5
 215 145 l 6
 207 102 200 71 204 51 c 4
 206 38 248 34 260 33 c 5
 263 26 258 2 253 -4 c 5
 218 0 160 3 121 3 c 4
 82 3 25 0 -12 -4 c 5
 -15 2 -10 26 -4 33 c 5
 8 34 52 38 59 51 c 4
 70 71 76 102 84 145 c 6
 156 513 l 6
 164 556 171 587 167 607 c 4
 165 620 123 624 111 625 c 5
 108 632 113 656 118 662 c 5
 153 658 211 655 250 655 c 4
EndSplineSet
Validated: 33
EndChar

StartChar: I
Encoding: 73 73 41
Width: 372
Flags: W
HStem: -4 37<-7.72067 58.9979 204.001 256.413> 625 37<114.587 166.999 312.002 378.598>
LayerCount: 2
Fore
SplineSet
250 655 m 4
 289 655 345 658 382 662 c 5
 385 656 381 632 375 625 c 5
 363 624 319 620 312 607 c 4
 301 587 294 556 286 513 c 6
 215 145 l 6
 207 102 200 71 204 51 c 0
 206 38 248 34 260 33 c 1
 263 26 258 2 253 -4 c 1
 218 0 160 3 121 3 c 0
 82 3 25 0 -12 -4 c 1
 -15 2 -10 26 -4 33 c 1
 8 34 52 38 59 51 c 0
 70 71 76 102 84 145 c 2
 156 513 l 2
 164 556 171 587 167 607 c 0
 165 620 123 624 111 625 c 1
 108 632 113 656 118 662 c 1
 153 658 211 655 250 655 c 4
EndSplineSet
Validated: 33
EndChar

StartChar: J
Encoding: 74 74 42
Width: 347
Flags: W
HStem: -218 24<-50.3093 -31.766> 625 37<168.587 220.999 366.002 432.598>
LayerCount: 2
Fore
SplineSet
304 655 m 0
 343 655 399 658 436 662 c 1
 439 656 435 632 429 625 c 1
 417 624 373 620 366 607 c 0
 355 587 348 556 340 513 c 2
 268 143 l 2
 224 -85 18 -200 -41 -218 c 1
 -46 -215 -52 -205 -52 -200 c 0
 -52 -197 -51 -195 -50 -194 c 1
 53 -138 105 -31 137 135 c 2
 210 513 l 2
 218 556 225 587 221 607 c 0
 219 620 177 624 165 625 c 1
 162 632 167 656 172 662 c 1
 207 658 265 655 304 655 c 0
EndSplineSet
Validated: 33
EndChar

StartChar: K
Encoding: 75 75 43
Width: 713
Flags: W
HStem: -4 37<-7.72067 58.2049 204.001 255.76 599.208 653.09> 625 37<114.587 166.999 312.002 378.598 485.048 530.952 639.445 719.052>
LayerCount: 2
Fore
SplineSet
518 141 m 0
 595 26 650 29 657 29 c 1
 660 22 653 0 652 -2 c 1
 625 -4 625 -6 587 -6 c 0
 488 -6 446 20 398 92 c 0
 375 126 301 244 264 302 c 0
 262 305 257 306 255 306 c 0
 251 306 248 304 245 300 c 1
 215 145 l 2
 207 102 200 71 204 51 c 0
 206 38 248 34 260 33 c 1
 263 26 258 2 253 -4 c 1
 218 0 160 3 121 3 c 0
 82 3 25 0 -12 -4 c 1
 -15 2 -10 26 -4 33 c 1
 8 34 52 38 59 51 c 0
 70 71 76 102 84 145 c 2
 156 513 l 2
 164 556 171 587 167 607 c 0
 165 620 123 624 111 625 c 1
 108 632 113 656 118 662 c 1
 153 658 211 655 250 655 c 0
 289 655 345 658 382 662 c 1
 385 656 381 632 375 625 c 1
 363 624 319 620 312 607 c 0
 301 587 294 556 286 513 c 2
 252 337 l 1
 300 372 339 403 366 428 c 0
 434 489 465 514 515 570 c 0
 527 583 530 596 531 603 c 0
 535 624 496 626 483 626 c 1
 480 634 483 653 488 662 c 1
 522 660 574 655 608 655 c 0
 649 655 689 658 724 662 c 1
 725 655 722 633 716 627 c 1
 707 626 641 619 602 583 c 2
 602 583 462 455 377 376 c 0
 370 369 369 365 372 360 c 0
 426 274 465 220 518 141 c 0
EndSplineSet
Validated: 33
EndChar

StartChar: L
Encoding: 76 76 44
Width: 525
Flags: W
HStem: -3 37<-8.59805 58.512> -2 44<204.668 400.762> 625 37<113.587 165.999 311.002 377.598>
LayerCount: 2
Back
SplineSet
206.96 139 m 2x60
 203.96 121 199.96 101 199.96 82 c 0
 199.96 61 201.96 54 260.96 54 c 2
 284.96 54 l 2xa0
 319.96 54 364.96 65 394.96 80 c 0
 414.96 90 453.96 125 478.96 170 c 0
 480.96 174 485.96 176 492.96 176 c 0
 501.96 176 517.96 173 519.96 170 c 1
 491.96 116 450.96 42 435.96 -2 c 1
 334.96 -2 203.96 2 118.96 2 c 0
 65.96 2 -12.04 -4 -12.04 -4 c 1
 -13.04 -2 -14.04 2 -14.04 5 c 0
 -14.04 17 -9.04004 30 -7.04004 30 c 0
 3.95996 30 48.96 45 54.96 56 c 0
 65.96 79 72.96 118 75.96 135 c 2
 150.96 523 l 2
 153.96 539 159.96 579 159.96 596 c 0
 159.96 620 118.96 628 111.96 628 c 0
 110.96 628 110.96 629 110.96 632 c 0
 110.96 641 113.96 659 116.96 662 c 1
 158.96 660 195.96 656 238.96 656 c 0
 279.96 656 332.96 660 370.96 662 c 1
 370.96 661 370.96 659 370.96 657 c 3
 370.96 647 366.96 628 362.96 628 c 0
 355.96 628 309.96 615 303.96 604 c 0
 294.96 588 280.96 525 279.96 519 c 2
 206.96 139 l 2x60
EndSplineSet
Fore
SplineSet
213 141 m 2xa0
 212 135 201 82 205 62 c 0
 208 48 237 42 261 42 c 0
 323 42 l 2
 358 42 390 52 416 75 c 0
 440 96 459 125 484 170 c 0
 486 174 492 176 499 176 c 0
 508 176 523 173 525 170 c 1
 497 116 457 42 442 -2 c 1
 416 -2 245 -2 120 -2 c 0x60
 54 -2 1 -3 -12 -3 c 1
 -15 3 -11 27 -5 34 c 1
 7 35 51 38 58 51 c 0
 69 71 75 102 83 145 c 2
 155 513 l 2
 163 556 170 587 166 607 c 0
 164 620 122 624 110 625 c 1
 107 632 112 656 117 662 c 1
 152 658 210 655 249 655 c 0
 288 655 344 658 381 662 c 1
 384 656 380 632 374 625 c 1
 362 624 318 620 311 607 c 0
 300 587 293 556 285 513 c 2
 213 141 l 2xa0
EndSplineSet
Validated: 33
EndChar

StartChar: M
Encoding: 77 77 45
Width: 879
Flags: W
HStem: -4 37<-8.38565 61.1055 162.264 221.676 518.514 586.539 739.028 790.667> 625 37<154.096 203.347 834.532 887.939>
LayerCount: 2
Fore
SplineSet
257 656 m 0
 289 656 317 660 355 662 c 1
 370 598 412 408 449 238 c 1
 449 238 451 236 452 236 c 0
 453 236 457 241 457 242 c 2
 457 242 563 426 626 546 c 24
 649 589 678 658 678 658 c 1
 686 657 760 655 778 655 c 0
 810 655 850 660 888 662 c 1
 891 658 891 632 885 624 c 1
 878 624 845 620 834 613 c 0
 823 606 817 599 813 572 c 0
 802 502 764 280 745 152 c 0
 739 113 734 77 738 51 c 0
 741 37 786 33 793 33 c 1
 795 24 793 6 788 -4 c 1
 751 -2 704 4 663 4 c 0
 620 4 558 -2 515 -4 c 1
 512 0 517 25 521 33 c 1
 532 33 578 38 589 52 c 0
 595 60 602 77 604 87 c 0
 606 97 611 130 614 148 c 2
 673 497 l 2
 674 500 679 523 672 523 c 0
 670 523 669 521 666 516 c 2
 409 40 l 2
 404 31 378 -2 361 -2 c 0
 358 -2 356 -1 353 0 c 1
 247 523 l 1
 200 315 196 291 160 134 c 0
 155 112 150 72 150 65 c 0
 151 44 218 33 225 33 c 1
 226 26 224 6 219 -4 c 1
 182 -2 147 4 106 4 c 0
 63 4 31 -2 -12 -4 c 1
 -14 3 -11 22 -6 32 c 1
 5 32 65 42 80 68 c 0
 86 78 104 140 108 156 c 0
 136 273 196 534 207 581 c 0
 208 588 209 596 206 603 c 0
 201 614 166 625 150 625 c 1
 146 633 155 660 157 662 c 1
 199 660 214 656 257 656 c 0
EndSplineSet
Validated: 33
EndChar

StartChar: N
Encoding: 78 78 46
Width: 765
Flags: W
HStem: -4 37<-6.92593 65.9346 159.197 221.766> 4 29<-8.00891 59.5625> 625 38<119.65 172.608 541.955 607.154 689.441 769.979> 625 30<546.958 605.252 693.887 772.432>
LayerCount: 2
Fore
SplineSet
227 655 m 0x90
 260 655 299 658 330 662 c 1
 350 584 463 401 548 248 c 1
 551 255 555 275 558 289 c 2
 594 476 l 0
 601 514 613 589 609 604 c 0
 605 622 549 626 538 626 c 1
 536 626 539 654 545 663 c 1x20
 587 661 614 655 657 655 c 0x10
 698 655 738 661 776 663 c 1
 777 657 774 635 766 625 c 1
 759 625 697 623 685 602 c 0
 678 588 658 515 651 479 c 2
 585 139 l 2
 574 81 570 51 562 -1 c 1
 559 -4 541 -5 538 -5 c 0
 530 -5 521 5 514 18 c 2
 232 519 l 1
 162 157 l 2
 155 121 151 74 153 60 c 0
 156 41 218 34 225 34 c 1
 229 24 222 2 219 -4 c 1xa0
 182 -2 144 4 103 4 c 0x40
 60 4 31 -2 -12 -4 c 1
 -15 5 -6 33 -4 33 c 1
 7 33 64 41 75 59 c 0
 84 74 99 122 106 160 c 0
 131 291 149.553 383.086 175 514 c 0
 185.497 568 183 585 175 604 c 0
 169 617 129 625 118 625 c 0
 113 625 117 657 123 662 c 1
 151 660 184 655 227 655 c 0x90
EndSplineSet
Validated: 33
EndChar

StartChar: O
Encoding: 79 79 47
Width: 661
Flags: W
HStem: -10 43<263.896 396.749> 624 43<336.848 465.469>
VStem: 52 144<149.833 390.06> 538 144<259.072 501.723>
LayerCount: 2
Fore
SplineSet
405 624 m 3
 267 624 196 409 196 244 c 0
 196 129 234 33 329 33 c 7
 464 33 538 245 538 410 c 0
 538 525 495 624 405 624 c 3
427 667 m 0
 591 667 682 522 682 393 c 0
 682 137 464 -10 298 -10 c 0
 158 -10 52 115 52 261 c 0
 52 510 262 667 427 667 c 0
EndSplineSet
Validated: 1
EndChar

StartChar: P
Encoding: 80 80 48
Width: 565
Flags: W
HStem: -4 37<-7.72067 58.9979 204.001 256.413> 286 41<282.29 359.776> 620 40<114.448 167.931 309.338 399.412>
LayerCount: 2
Fore
SplineSet
570 465 m 0
 547 345 425 286 331 286 c 0
 304 286 290.882 295.839 284 301 c 0
 280 304 274 319 274 324 c 0
 274 328 277 331 279 331 c 1
 288 328 295 327 309 327 c 0
 355 327 416 385 429 451 c 0
 446 540 420 620 358 620 c 0
 337 620 316 619 309 608 c 0
 302 596 299 576 293 547 c 2
 215 145 l 2
 207 102 200 71 204 51 c 0
 206 38 248 34 260 33 c 1
 263 26 258 2 253 -4 c 1
 218 0 160 3 121 3 c 0
 82 3 25 0 -12 -4 c 1
 -15 2 -10 26 -4 33 c 1
 8 34 52 38 59 51 c 0
 70 71 76 102 84 145 c 2
 156 513 l 2
 164 556 171 587 167 607 c 0
 165 620 122 622 110 623 c 1
 107 630 113 654 118 660 c 1
 159 657 211 657 250 657 c 0
 289 657 339 660 394 660 c 0
 510 660 591 572 570 465 c 0
EndSplineSet
Validated: 33
EndChar

StartChar: Q
Encoding: 81 81 49
Width: 661
Flags: W
HStem: -140 67<517.479 618.042> 624 43<336.848 465.469>
VStem: 52 144<149.415 390.06> 538 144<257.372 501.723>
LayerCount: 2
Fore
SplineSet
427 667 m 0
 591 667 682 522 682 393 c 0
 682 179 537 56 408 10 c 1
 488 -36 529 -73 625 -73 c 0
 648 -73 669 -68 676 -66 c 1
 683 -66 691 -70 695 -76 c 1
 683 -86 594 -140 537 -140 c 0
 431 -140 356.806 -57.9888 236 -8 c 0
 120 40 52 141 52 261 c 0
 52 510 262 667 427 667 c 0
405 624 m 0
 267 624 196 409 196 244 c 0
 196 129 234 33 329 33 c 0
 464 33 538 245 538 410 c 0
 538 525 495 624 405 624 c 0
EndSplineSet
Validated: 1
EndChar

StartChar: R
Encoding: 82 82 50
Width: 657
Flags: W
HStem: -4 37<-7.72067 58.2049 204.001 254.859 569.922 631.813> 299 39<252 273.484> 620 40<114.448 167.931 309.338 404.222>
LayerCount: 2
Fore
SplineSet
250 657 m 0
 289 657 339 660 394 660 c 0
 510 660 582 582 558 458 c 0
 541 371 432 325 393 316 c 1
 442 218 447 200 492 130 c 0
 547 44 618 28 633 28 c 1
 636 21 632 -2 631 -4 c 1
 604 -6 610 -8 572 -8 c 0
 419 -8 384 65 367 99 c 0
 272 284 l 0
 272 284 265 299 258 299 c 0
 251 299 245 299 245 299 c 9
 215 145 l 2
 207 102 200 71 204 51 c 0
 206 38 248 34 260 33 c 1
 263 26 258 2 253 -4 c 1
 218 0 160 3 121 3 c 0
 82 3 25 0 -12 -4 c 1
 -15 2 -10 26 -4 33 c 1
 8 34 52 38 59 51 c 0
 70 71 76 102 84 145 c 2
 156 513 l 2
 164 556 171 587 167 607 c 0
 165 620 122 622 110 623 c 1
 107 630 113 654 118 660 c 1
 159 657 211 657 250 657 c 0
252 338 m 17
 295 338 l 0
 348 338 397 372 418 448 c 0
 438 520 434 620 358 620 c 0
 337 620 316 619 309 608 c 0
 302 596 299 576 293 547 c 2
 252 338 l 17
EndSplineSet
Validated: 33
EndChar

StartChar: S
Encoding: 83 83 51
Width: 457
Flags: W
HStem: -10 42<114.295 236.499> 628 42<248.974 357.207>
VStem: 12 40<107.755 197.152> 402 38<470.012 570.597>
LayerCount: 2
Back
SplineSet
305.16 670 m 0xf8
 360.16 670 396.16 653 456.16 642 c 1
 456.16 642 431.16 465 427.16 465 c 0
 423.16 465 418.16 465 413.16 465 c 0
 401.16 465 391.16 466 391.16 482 c 0xf4
 391.16 520 367.16 614 295.16 614 c 0
 221.16 614 201.16 537 201.16 511 c 0
 201.16 457 260.16 416 309.16 377 c 0
 355.16 340 411.16 316 411.16 228 c 0
 411.16 67 268.16 -10 167.16 -10 c 0
 112.16 -10 55.1602 2 2.16016 16 c 1
 2.16016 16 7.16016 59 7.16016 104 c 3
 7.16016 131 6.16016 176 6.16016 182 c 0
 6.16016 192 26.1602 190 30.1602 190 c 0
 34.1602 190 51.1602 186 54.1602 182 c 1
 54.1602 128 93.1602 47 160.16 47 c 0
 259.16 47 274.16 154 274.16 169 c 0
 274.16 223 207.16 263 170.16 295 c 0
 120.16 337 68.1602 373 68.1602 450 c 0
 68.1602 583 207.16 670 305.16 670 c 0xf8
EndSplineSet
Fore
SplineSet
311 670 m 4
 366 670 408 655 462 642 c 5
 456 589 449 537 440 476 c 5
 436 472 432 470 428 470 c 4
 425 470 402 469 402 477 c 4
 405 533 379 628 307 628 c 4
 271 628 224 608 211 541 c 4
 199 479 266 422 315 381 c 4
 368 337 435 294 412 175 c 4
 391 65 275 -10 173 -10 c 4
 118 -10 54 2 1 16 c 5
 0 60 8 158 12 186 c 5
 17 192 37 200 42 200 c 4
 49 200 52 198 52 192 c 4
 50 138 88 32 172 32 c 4
 219 32 267 58 281 129 c 4
 295 200 215 258 175 292 c 4
 117 341 58 385 78 489 c 4
 98 592 215 670 311 670 c 4
EndSplineSet
Validated: 33
EndChar

StartChar: T
Encoding: 84 84 52
Width: 573
Flags: W
HStem: -4 37<58.4019 124.998 270.001 322.413> 613 44<103.131 242 372 502.637>
VStem: 534 36<483.215 572.16>
LayerCount: 2
Fore
SplineSet
306 657 m 0
 470 657 l 0
 537 657 553 676 570 676 c 0
 577 676 578 675 581 673 c 1
 570 489 l 1
 567 486 550 482 542 482 c 0
 537 482 534 483 534 487 c 0
 537 552 506 613 459 613 c 2
 372 613 l 1
 281 145 l 2
 273 102 266 71 270 51 c 0
 272 38 314 34 326 33 c 1
 329 26 324 2 319 -4 c 1
 284 0 227 3 188 3 c 0
 149 3 92 0 55 -4 c 1
 52 2 56 26 62 33 c 1
 74 34 118 38 125 51 c 0
 136 71 143 102 151 145 c 2
 242 613 l 1
 155 613 l 2
 108 613 53 552 31 487 c 0
 29 483 26 482 21 482 c 0
 13 482 -2 486 -4 489 c 1
 56 673 l 1
 60 675 61 676 68 676 c 0
 85 676 94 657 161 657 c 0
 306 657 l 0
EndSplineSet
Validated: 33
EndChar

StartChar: U
Encoding: 85 85 53
Width: 690
Flags: W
HStem: -9 72<211.809 341.424> 625 37<41.5874 93.9994 239.002 305.598 471.587 530.18 622.268 696.598>
LayerCount: 2
Fore
SplineSet
177 655 m 0
 216 655 272 658 309 662 c 1
 312 656 308 632 302 625 c 1
 290 624 246 620 239 607 c 0
 228 587 221 556 213 513 c 2
 178 330 l 2
 165 262 157 212 168 159 c 0
 186 71 255 63 291 63 c 0
 365 63 455 134 489 309 c 2
 522 479 l 2
 530 522 537 581 533 601 c 0
 529 620 480 624 468 625 c 1
 465 632 470 656 475 662 c 1
 518 658 547 655 590 655 c 0
 631 655 661 660 700 662 c 1
 703 656 699 632 693 625 c 1
 681 624 629 622 617 601 c 0
 606 581 588 523 580 480 c 2
 542 286 l 2
 502 82 364 -9 230 -9 c 0
 152 -9 84 19 51 79 c 0
 24 128 22 197 42 301 c 2
 83 513 l 2
 91 556 98 587 94 607 c 0
 92 620 50 624 38 625 c 1
 35 632 40 656 45 662 c 1
 80 658 138 655 177 655 c 0
EndSplineSet
Validated: 33
EndChar

StartChar: V
Encoding: 86 86 54
Width: 660
Flags: W
HStem: 625 37<15.4483 59.1155 217.279 278.721 452.448 516.346 595.004 666.598>
LayerCount: 2
Fore
SplineSet
150 655 m 0
 189 655 246 658 283 662 c 1
 286 656 281 632 275 625 c 1
 263 624 218 623 213 598 c 0
 210 582 215 551 221 523 c 0
 249 390 294 186 294 186 c 1
 294 186 467 493 482 521 c 0
 495 547 514 580 518 601 c 0
 521 619 460 624 448 625 c 1
 445 632 451 656 456 662 c 1
 499 658 522 655 565 655 c 0
 606 655 631 660 670 662 c 1
 673 656 669 632 663 625 c 1
 651 624 609 623 595 607 c 0
 577 587 559 557 540 524 c 0
 425 323 360 215 252 30 c 0
 241 12 210 -11 199 -11 c 0
 191 -11 192 -4 189 3 c 1
 85 510 l 2
 79 539 72 572 68 592 c 0
 62 618 23 624 11 625 c 1
 8 632 14 656 19 662 c 1
 54 658 111 655 150 655 c 0
EndSplineSet
Validated: 33
EndChar

StartChar: W
Encoding: 87 87 55
Width: 904
Flags: W
HStem: 625 37<14.4612 62.4055 223.586 278.598 695.448 757.432 838.004 909.721>
LayerCount: 2
Fore
SplineSet
150 655 m 0
 189 655 245 658 282 662 c 1
 285 656 281 632 275 625 c 1
 263 624 215 620 215 586 c 0
 215 581 216.939 552.146 221 523 c 0
 238 401 259 251 259 251 c 1
 259 251 420 560 455 625 c 0
 465 644 481 662 491 662 c 0
 495 662 497 657 499 646 c 0
 528 478 574 214 574 214 c 1
 574 214 709 489 725 521 c 0
 737 547 755 580 759 601 c 0
 762 619 703 624 691 625 c 1
 688 632 694 656 699 662 c 1
 742 658 765 655 808 655 c 0
 849 655 875 660 914 662 c 1
 917 656 912 632 906 625 c 1
 894 624 852 623 838 607 c 0
 820 587 800 559 783 524 c 0
 689 335 632 225 537 40 c 0
 524 15 501 -11 490 -11 c 0
 482 -11 478 -4 475 3 c 1
 402 418 l 1
 402 418 285 188 211 44 c 0
 205 33 179 -11 168 -11 c 0
 160 -11 156 -4 153 3 c 1
 84 510 l 2
 81 540 79 549 73 590 c 0
 69.1367 616.402 23 624 11 625 c 1
 7 632 13 656 18 662 c 1
 53 658 111 655 150 655 c 0
EndSplineSet
Validated: 33
EndChar

StartChar: X
Encoding: 88 88 56
Width: 757
Flags: W
HStem: -4 37<-8.59805 68.4213 168.047 232.483 362.146 418.618 601.204 657.486> 625 37<136.178 193.464 358.112 414.296 529.3 584.464 693.186 764.27>
LayerCount: 2
Back
SplineSet
283.24 656 m 0
 329.24 656 380.24 660 418.24 662 c 1
 418.483 660.542 417.992 657.607 417.992 654 c 3
 417.992 642.764 413.025 625 409.24 625 c 0
 396.24 625 360.24 619 356.24 604 c 0
 355.24 598 356.24 588 359.24 582 c 2
 430.24 414 l 1
 489.24 478 584.24 571 588.24 594 c 0
 591.24 611 557.24 625 525.24 625 c 0
 523.301 625 523.745 629.814 523.745 636 c 3
 523.745 645.762 528.567 658.939 532.24 662 c 1
 566.24 660 612.24 656 646.24 656 c 0
 694.24 656 733.24 660 771.24 662 c 1
 771.68 660.679 771.618 658.146 771.618 655 c 7
 771.618 643.854 767.139 625 763.24 625 c 0
 756.24 625 703.24 618 672.24 586 c 2
 454.24 356 l 1
 508.24 229 566.24 93 576.24 76 c 0
 596.24 41 640.24 33 647.24 33 c 0
 650.24 33 646.24 18 645.24 11 c 0
 644.24 6 640.24 -2 639.24 -4 c 1
 602.24 -2 543.24 2 505.24 2 c 0
 453.24 2 409.24 -2 357.24 -4 c 1
 356.142 -2.62793 356.348 0.779297 356.348 5 c 3
 356.348 16.1562 362.612 33 366.24 33 c 0
 376.24 33 420.24 43 423.24 61 c 0
 424.24 64 424.24 69 423.24 72 c 2
 340.24 269 l 1
 319.24 245 173.24 83 170.24 66 c 0
 166.24 44 205.24 33 233.24 33 c 0
 236.24 33 234.24 19 233.24 12 c 0
 232.24 5 229.24 -2 228.24 -4 c 1
 198.24 -2 141.24 2 107.24 2 c 0
 59.2402 2 25.2402 -2 -12.7598 -4 c 1
 -12.7598 -1 -14.7598 5 -13.7598 10 c 0
 -12.7598 16 -8.75977 33 -5.75977 33 c 0
 1.24023 33 62.2402 44 82.2402 67 c 2
 313.24 332 l 1
 228.24 537 l 2
 217.24 563 203.24 600 192.24 610 c 0
 181.24 620 157.24 625 146.24 625 c 0
 144.197 625 144.87 630.341 144.87 637 c 3
 144.87 646.64 149.691 659.043 153.24 662 c 1
 198.24 660 237.24 656 283.24 656 c 0
EndSplineSet
Fore
SplineSet
284 656 m 0
 330 656 381 660 419 662 c 1
 420 656 415 625 410 625 c 1
 397 625 361 619 357 604 c 0
 356 598 357 588 360 582 c 2
 431 414 l 1
 483 471 565 551 585 584 c 0
 588 588 589 591 589 594 c 0
 592 611 559 625 527 625 c 1
 522 625 527 657 533 662 c 1
 565 658 621 655 655 655 c 0
 703 655 740 658 768 662 c 1
 770 656 765 625 760 625 c 1
 753 625 696 623 646 572 c 2
 447 369 l 1
 500 242 566 93 577 76 c 0
 597 41 648 33 661 33 c 1
 663 24 660 4 654 -4 c 1
 617 -2 544 2 506 2 c 0
 454 2 410 -2 358 -4 c 1
 354 1 362 33 367 33 c 0
 377 33 422 43 425 61 c 0
 426 64 425 69 424 72 c 2
 339 273 l 1
 321 253 209 130 174 83 c 0
 168 75 164 69 163 66 c 0
 158 42 206 33 234 33 c 1
 237 26 235 7 230 -4 c 1
 200 -2 142 2 108 2 c 0
 60 2 26 -2 -12 -4 c 1
 -15 2 -11 26 -5 33 c 1
 2 33 67 35 105 79 c 2
 318 322 l 1
 230 537 l 2
 219 564 205 600 194 610 c 0
 183 620 144 625 133 625 c 1
 128 625 134 657 140 662 c 1
 185 660 238 656 284 656 c 0
EndSplineSet
Validated: 33
EndChar

StartChar: Y
Encoding: 89 89 57
Width: 597
Flags: W
HStem: -4 37<40.4019 106.998 252.001 304.413> 625 37<15.5874 58.879 218.279 279.598 394.587 453.604 532.763 603.598>
LayerCount: 2
Fore
SplineSet
133 145 m 2
 160 284 l 0
 161 291 160 296 158 304 c 0
 145 359 87 537 87 537 c 2
 78 565 76 572 69 592 c 0
 60 617 24 624 12 625 c 1
 9 632 14 656 19 662 c 1
 54 658 112 655 151 655 c 0
 190 655 246 658 283 662 c 1
 286 656 282 632 276 625 c 1
 264 624 219 623 214 598 c 0
 213 594 216 589 218 582 c 2
 286 361 l 1
 290 356 390 498 446 578 c 0
 451 586 454 594 455 601 c 0
 458 619 403 624 391 625 c 1
 388 632 393 656 398 662 c 1
 441 658 458 655 501 655 c 0
 542 655 568 660 607 662 c 1
 610 656 606 632 600 625 c 1
 588 624 544 623 526 600 c 0
 502 571 336 357 298 298 c 0
 293 291 290 285 289 279 c 0
 263 145 l 2
 254 102 248 71 252 51 c 0
 254 38 296 34 308 33 c 1
 311 26 306 2 301 -4 c 1
 266 0 208 3 169 3 c 0
 130 3 74 0 37 -4 c 1
 34 2 38 26 44 33 c 1
 56 34 100 38 107 51 c 0
 118 71 124 102 133 145 c 2
EndSplineSet
Validated: 33
EndChar

StartChar: Z
Encoding: 90 90 58
Width: 636
Flags: W
HStem: 0 47<170 449.225> 610 45<226.542 474.113> 642 20G<163 181 603.5 645>
LayerCount: 2
Fore
SplineSet
304 610 m 2xc0
 205 610 176 536 143 474 c 0
 141 471 139 468 130 468 c 0
 120 468 106 470 104 473 c 1
 126 531 152 598 174 662 c 1xa0
 188 658 282 655 295 655 c 2
 425 656 l 2
 503 657 564 660 643 666 c 1
 647 665 648 643 646 633 c 1
 643 625 170 47 170 47 c 17
 184 47 371 47 371 47 c 2
 406 47 440 59 466 82 c 0
 490 103 507 125 532 170 c 0
 534 174 539 176 546 176 c 0
 555 176 571 173 573 170 c 1
 548 117 507 44 490 1 c 1
 451 1 12 0 12 0 c 1
 0 0 -12 18 -8 22 c 2
 475 610 l 1
 304 610 l 2xc0
EndSplineSet
Validated: 33
EndChar

StartChar: bracketleft
Encoding: 91 91 59
Width: 353
Flags: W
HStem: 707 52<226.093 333.486>
LayerCount: 2
Fore
SplineSet
177 750 m 2
 179 755 182 759 186 759 c 0
 239 759 311 761 349 765 c 1
 352 762 354 759 354 753 c 0
 354 742 344 732 335 728 c 0
 303 714 252 709 233 707 c 0
 229 707 228 705 226 701 c 2
 76 -56 l 2
 75 -60 78 -62 82 -63 c 0
 101 -68 145 -76 175 -95 c 0
 183 -100 191 -108 191 -115 c 0
 191 -124 187 -130 183 -133 c 1
 114 -120 40 -108 16 -107 c 0
 12 -107 8 -102 9 -97 c 2
 177 750 l 2
EndSplineSet
Validated: 1
EndChar

StartChar: backslash
Encoding: 92 92 60
Width: 203
Flags: W
VStem: 17 180
LayerCount: 2
Fore
SplineSet
197 -4 m 2
 200 -20 176 -40 165 -40 c 0
 161 -40 157 -40 153 -37 c 1
 101 269 17 755 17 755 c 1
 19 758 25 762 31 762 c 0
 52 762 71 735 73 725 c 2
 197 -4 l 2
EndSplineSet
Validated: 33
EndChar

StartChar: bracketright
Encoding: 93 93 61
Width: 336
Flags: W
HStem: -133 42<-11.0608 60.7069> 728 37<141.136 223.25>
VStem: -13 337
LayerCount: 2
Fore
SplineSet
149 765 m 5
 184 762 257 756 314 756 c 0
 322 756 325 749 324 745 c 0
 323 738 159 -97 159 -97 c 2
 158 -98 155 -105 147 -106 c 0
 82 -112 33 -121 -6 -133 c 1
 -8 -132 -13 -126 -13 -119 c 0
 -13 -107 4 -96 14 -91 c 0
 38 -79 74 -64 101 -56 c 0
 107 -54 109 -52 110 -48 c 2
 257 697 l 2
 258 702 256 705 250 706 c 0
 226 709 181 716 155 728 c 1
 144 734 140 746 140 755 c 0
 140 763 148 765 149 765 c 5
EndSplineSet
Validated: 1
EndChar

StartChar: asciicircum
Encoding: 94 94 62
Width: 323
Flags: W
HStem: 469 221
VStem: 21 283
LayerCount: 2
Fore
SplineSet
21 499 m 5
 29 513 114 567 183 677 c 4
 188 686 188 690 195 690 c 4
 218 690 205 668 245 588 c 4
 261 558 303 505 304 500 c 5
 303 496 293 469 286 469 c 4
 271 469 212 525 178 582 c 5
 126 525 42 469 27 469 c 4
 21 469 21 485 21 499 c 5
EndSplineSet
Validated: 1
EndChar

StartChar: underscore
Encoding: 95 95 63
Width: 514
Flags: W
HStem: -45 62<42.4207 462.857>
LayerCount: 2
Fore
SplineSet
35 -35 m 1
 35 -35 44 17 58 17 c 2
 476 17 l 2
 479 17 478 13 478 9 c 0
 478 3 475 -13 463 -39 c 0
 460 -45 454 -45 454 -45 c 1
 40 -45 l 1
 40 -45 33 -45 35 -35 c 1
EndSplineSet
Validated: 1
EndChar

StartChar: grave
Encoding: 96 96 64
Width: 176
Flags: W
HStem: 522 165
VStem: 22 138
LayerCount: 2
Fore
SplineSet
22 654 m 0
 22 667 40 687 71 687 c 0
 84 687 96 683 100 678 c 0
 126 636 160 547 160 540 c 0
 160 536 148 522 141 522 c 0
 132 522 22 613 22 654 c 0
EndSplineSet
Validated: 1
EndChar

StartChar: a
Encoding: 97 97 65
Width: 458
Flags: W
HStem: -8 86<64 185 276.5 379> 394 55<223.816 331>
VStem: 6 126<86.0352 221.784>
LayerCount: 2
Fore
SplineSet
313 449 m 4
 349 449 400 438 420 431 c 5
 358 132 l 6
 357 128 354 104 354 99 c 4
 354 90 358 78 368 78 c 4
 390 78 436 133 439 139 c 5
 446 139 453 118 453 112 c 5
 436 80 348 -8 294 -8 c 4
 259 -8 232 14 232 58 c 4
 232 62 233 70 234 77 c 4
 235 85 237 92 238 96 c 5
 217 59 152 -7 92 -7 c 4
 36 -7 6 47 6 115 c 4
 6 294 186 449 313 449 c 4
257 394 m 4
 189 394 132 270 132 152 c 4
 132 104 146 81 168 81 c 4
 202 81 252 182 272 281 c 6
 292 382 l 5
 285 390 271 394 257 394 c 4
EndSplineSet
Validated: 1
EndChar

StartChar: b
Encoding: 98 98 66
Width: 422
Flags: W
HStem: -6 45<97.5 199.844> 361 88<235.5 352> 632 29<45.8327 103.927> 676 20G<218 231.5>
VStem: 106 129<558.143 680> 286 129<220.023 359.933>
LayerCount: 2
Fore
SplineSet
258 361 m 0
 213 361 153 255 136 167 c 0
 125 111 125 39 161 39 c 0
 225 39 286 206 286 302 c 0
 286 327 282 361 258 361 c 0
168 336 m 1
 196 379 276 449 324 449 c 0
 380 449 415 410 415 337 c 0
 415 149 243 -6 129 -6 c 0
 66 -6 13 38 13 107 c 0
 13 120 16 148 19 162 c 2
 97 560 l 2
 101 578 106 602 106 613 c 0
 106 632 61 632 45 632 c 1
 42 636 45 657 49 661 c 1
 104 666 207 688 229 696 c 1
 234 693 235 683 235 677 c 0
 235 669 227 626 222 602 c 2
 168 336 l 1
EndSplineSet
Validated: 33
EndChar

StartChar: c
Encoding: 99 99 67
Width: 360
Flags: W
HStem: -6 83<97.5 196.587> 399 50<183.531 278>
VStem: 7 126<90.6136 245.809>
LayerCount: 2
Fore
SplineSet
258 449 m 0
 298 449 333 437 346 427 c 1
 352 418 361 400 361 377 c 0
 361 347 335 316 305 316 c 0
 280 316 264 334 254 353 c 0
 245 370 232 399 210 399 c 0
 173 399 133 275 133 170 c 0
 133 102 155 77 195 77 c 0
 240 77 292 137 295 140 c 1
 303 140 308 120 308 114 c 1
 293 91 203 -6 127 -6 c 0
 68 -6 7 37 7 131 c 0
 7 287 138 449 258 449 c 0
EndSplineSet
Validated: 1
EndChar

StartChar: d
Encoding: 100 100 68
Width: 464
Flags: W
HStem: -7 88<61 182 280 376> 394 55<254 303> 632 29<273.833 331.927> 676 20G<446 459.5>
VStem: 3 126<86.0352 222.076> 334 129<557.234 680>
LayerCount: 2
Fore
SplineSet
280 353 m 0
 280 383 271 394 254 394 c 0
 186 394 129 270 129 152 c 0
 129 104 143 81 165 81 c 0
 199 81 257 201 269 281 c 2
 269 281 280 340 280 353 c 0
325 560 m 0
 328 578 334 602 334 613 c 0
 334 632 289 632 273 632 c 1
 270 636 273 657 277 661 c 1
 332 666 435 688 457 696 c 1
 462 693 463 683 463 677 c 0
 463 669 455 626 450 602 c 2
 355 132 l 2
 354 128 351 104 351 99 c 0
 351 90 355 78 365 78 c 0
 387 78 433 133 436 139 c 1
 443 139 450 118 450 112 c 1
 433 80 345 -8 291 -8 c 0
 269 -8 252 0 241 16 c 0
 235 25 229 36 229 58 c 0
 229 66 233 88 235 96 c 1
 214 59 149 -7 89 -7 c 0
 33 -7 3 47 3 115 c 0
 3 282 162 429 286 448 c 0
 292 449 297 449 303 449 c 1
 325 560 l 0
EndSplineSet
Validated: 1
EndChar

StartChar: e
Encoding: 101 101 69
Width: 373
Flags: W
HStem: -6 83<86.5 214.5> 188 38<136 177.561> 412 37<196.991 284.5>
VStem: 7 124<91.9422 188.325> 251 119<301.561 411.54>
LayerCount: 2
Fore
SplineSet
259 449 m 4
 310 449 370 427 370 357 c 4
 370 254 195 188 133 188 c 5
 132 185 131 168 131 163 c 4
 131 126 142 77 192 77 c 4
 237 77 290 139 293 142 c 5
 302 142 308 118 308 112 c 5
 295 90 185 -6 122 -6 c 4
 51 -6 7 47 7 140 c 4
 7 288 144 449 259 449 c 4
136 226 m 5
 175 226 251 299 251 373 c 4
 251 391 247 412 225 412 c 4
 177 412 141 277 136 226 c 5
EndSplineSet
Validated: 1
EndChar

StartChar: f
Encoding: 102 102 70
Width: 377
Flags: W
HStem: -218 46<-5 73.8745> 378 46<121.321 177 301 404.157> 649 46<352.939 430>
DStem2: 68.1286 -218 183.351 -218 0.190809 0.981627<165.854 799.907>
LayerCount: 2
Fore
SplineSet
413 695 m 0
 447 695 476 685 487 677 c 1
 492 669 496 657 496 644 c 0
 496 619 481 595 458 595 c 0
 441 595 427 604 416 619 c 0
 407 632 397 649 379 649 c 0
 348 649 332 583 301 424 c 1
 401 424 l 2
 405 424 406 417 406 412 c 0
 406 402 400 386 395 378 c 1
 292 378 l 1
 292 378 261 184 237 58 c 4
 205 -106 92 -218 12 -218 c 4
 -22 -218 -51 -208 -62 -200 c 5
 -67 -192 -71 -180 -71 -167 c 4
 -71 -142 -56 -118 -33 -118 c 4
 -16 -118 -2 -127 9 -142 c 4
 18 -155 28 -172 46 -172 c 4
 85 -172 90 -105 121 54 c 5
 177 378 l 1
 112 378 l 2
 111 378 110 379 110 381 c 0
 110 391 135 424 158 424 c 2
 185 424 l 1
 217 588 346 695 413 695 c 0
EndSplineSet
Validated: 1
EndChar

StartChar: g
Encoding: 103 103 71
Width: 485
VWidth: 0
Flags: W
HStem: -226 48<137.484 282.61> 394 55<406.776 485.808> 419 39<237.864 305.121>
VStem: -15 116<-144.29 -55.5235> 61 169<46.5 115.5> 83 114<206.832 360.454> 316 104<-135.113 10> 322 112<233.352 385.762>
LayerCount: 2
Fore
SplineSet
316 -113 m 0x92
 316 -72 216 -32 157 -14 c 1
 121 -33 101 -53 101 -84 c 0
 101 -149 154 -178 214 -178 c 0
 253 -178 316 -157 316 -113 c 0x92
277 419 m 0xa5
 228 421 200 344 197 277 c 0
 195 230 204 180 241 178 c 0
 285 176 320 242 322 302 c 0
 324 349 316 417 277 419 c 0xa5
406 394 m 1xc4
 410 388 434 360 434 309 c 0
 434 215 344 159 296 140 c 0
 268 129 230 126 230 105 c 0xc9
 230 75 420 60 420 -40 c 0
 420 -135 309 -226 163 -226 c 0
 53 -226 -15 -174 -15 -110 c 0xd2
 -15 -39 73 -13 121 4 c 1
 121 4 83 21 76 28 c 0
 68 36 61 37 61 56 c 0xc8
 61 81 158 133 206 144 c 1
 144 160 83 198 83 277 c 0
 83 376 167 458 265 458 c 1xa4
 304 458 335 445 360 434 c 0
 369 430 433 447 446 449 c 1
 459 445 497 424 497 412 c 0
 497 405 489 394 481 394 c 0
 467 394 419 394 406 394 c 1xc4
EndSplineSet
Validated: 33
EndChar

StartChar: h
Encoding: 104 104 72
Width: 468
Flags: W
HStem: -8 86<289.5 391> 339 110<256.5 365> 632 29<56.8327 114.927> 676 20G<229 242.5>
VStem: 117 129<557.059 680> 243 123<34.1714 191.883> 287 122<220.031 398.174>
LayerCount: 2
Fore
SplineSet
233 602 m 0xfa
 233 602 178 323 176 314 c 0
 173 302 170 284 168 274 c 1
 198 342 287 449 337 449 c 3
 393 449 409 419 409 362 c 0xfa
 409 328 394 259 389 233 c 2
 370 132 l 2
 369 128 366 104 366 99 c 0
 366 90 370 78 380 78 c 0
 402 78 448 133 451 139 c 1
 458 139 465 118 465 112 c 1
 448 80 360 -8 306 -8 c 0
 273 -8 243 12 243 63 c 0xf4
 243 77 250 115 252 123 c 1
 275 242 l 2
 278 254 287 308 287 318 c 0
 287 328 282 339 271 339 c 0
 242 339 164 218 136 91 c 10
 116 0 l 17
 106 -3 71 -6 60 -6 c 0
 49 -6 13 -3 1 0 c 1
 7 31 107 554 108 560 c 0
 112 579 117 602 117 613 c 0
 117 632 72 632 56 632 c 1
 53 636 56 657 60 661 c 1
 115 666 218 688 240 696 c 1
 245 693 246 683 246 677 c 0
 246 669 236 616 233 602 c 0xfa
EndSplineSet
Validated: 1
EndChar

StartChar: i
Encoding: 105 105 73
Width: 281
VWidth: 0
Flags: W
HStem: -8 86<98.5 200> 363 86<77 178> 540 147<154.393 235.607>
VStem: 52 123<34.1714 189.984> 103 122<251.016 405.986> 127 136<567.686 659.998>
LayerCount: 2
Fore
SplineSet
98 309 m 6xf0
 99 313 103 337 103 342 c 4
 103 351 98 363 88 363 c 0
 66 363 20 308 17 302 c 1
 10 302 3 323 3 329 c 1
 20 361 104 449 158 449 c 0
 198 449 225 424 225 378 c 0xe8
 225 364 218 328 216 318 c 0
 179 132 l 2
 178 128 175 104 175 99 c 0
 175 90 179 78 189 78 c 0
 211 78 257 133 260 139 c 1
 267 139 274 118 274 112 c 1
 257 80 169 -8 115 -8 c 0
 82 -8 52 12 52 63 c 0
 52 77 59 115 61 123 c 1
 98 309 l 6xf0
205 687 m 0
 239 687 263 660 263 625 c 0
 263 581 227 540 185 540 c 0
 151 540 127 568 127 603 c 0xe4
 127 647 163 687 205 687 c 0
EndSplineSet
Validated: 1
EndChar

StartChar: j
Encoding: 106 106 74
Width: 363
VWidth: 0
Flags: W
HStem: -218 22<-8.06308 -1.37372> 363 86<172 273> 541 148<262.393 343.607>
VStem: 198 122<250.078 405.986> 235 136<568.686 661.314>
LayerCount: 2
Fore
SplineSet
193 309 m 2xf0
 194 313 198 337 198 342 c 0
 198 351 193 363 183 363 c 0
 161 363 115 308 112 302 c 1
 105 302 98 323 98 329 c 1
 115 361 199 449 253 449 c 0
 293 449 320 424 320 378 c 0
 320 364 313 328 311 318 c 0
 311 318 288 195 273 120 c 4
 257 36 227 -20 186 -75 c 4
 143 -132 26 -210 -2 -218 c 5
 -7 -218 -11 -205 -11 -196 c 5
 94 -115 124 -49 153 100 c 4
 193 309 l 2xf0
313 689 m 0
 347 689 371 661 371 626 c 0
 371 582 335 541 293 541 c 0
 259 541 235 569 235 604 c 0xe8
 235 648 271 689 313 689 c 0
EndSplineSet
Validated: 1
EndChar

StartChar: k
Encoding: 107 107 75
Width: 467
VWidth: 0
Flags: W
HStem: -4 86<268.5 388> 374 75<281.91 391> 632 29<56.8327 114.927> 676 20G<229 242.5>
VStem: 117 129<553.063 680> 315 129<323.305 400>
LayerCount: 2
Back
SplineSet
360 131.97 m 2
 359.316 128 355.84 104.165 355.84 99.0166 c 0
 355.84 89.748 359.916 78 370.316 78 c 0
 392.156 78 438.316 133 441.316 139 c 1
 448.316 139 455.316 118.179 455.316 112 c 1
 438.316 80 350 -7.57129 295.54 -7.57129 c 0
EndSplineSet
Fore
SplineSet
362 449 m 3
 420 449 444 423 444 377 c 0
 444 311 347 255 272 230 c 1
 289 182 333 82 376 82 c 0
 400 82 436 127 444 138 c 1
 454 138 458 117 458 112 c 1
 448 85 367 -4 307 -4 c 0
 230 -4 178 137 157 208 c 1
 142 133 116 0 116 0 c 17
 106 -3 71 -6 60 -6 c 0
 49 -6 13 -3 1 0 c 1
 7 31 107 554 108 560 c 0
 112 579 117 602 117 613 c 0
 117 632 72 632 56 632 c 1
 53 636 56 657 60 661 c 1
 115 666 218 688 240 696 c 1
 245 693 246 683 246 677 c 0
 246 669 236 616 233 602 c 2
 184 341 l 17
 196 367 278 449 362 449 c 3
287 374 m 3
 228 374 165 272 165 248 c 1
 227 248 315 288 315 342 c 3
 315 352 310 374 287 374 c 3
EndSplineSet
Validated: 1
EndChar

StartChar: l
Encoding: 108 108 76
Width: 241
Flags: W
HStem: -8 86<53.5 155> 632 29<49.8327 107.927> 676 20G<222 235.5>
VStem: 7 123<34.1714 191.016> 110 129<558.971 680>
LayerCount: 2
Fore
SplineSet
101 560 m 2xf0
 104 578 110 602 110 613 c 0
 110 632 65 632 49 632 c 1
 46 636 49 657 53 661 c 1
 108 666 211 688 233 696 c 1
 238 693 239 683 239 677 c 0xe8
 239 669 231 626 226 602 c 2
 134 132 l 2
 133 126 130 104 130 99 c 0
 130 90 134 78 144 78 c 0
 166 78 212 133 215 139 c 1
 222 139 229 118 229 112 c 1
 212 80 124 -8 70 -8 c 0
 37 -8 7 12 7 63 c 0
 7 77 14 115 16 123 c 1
 101 560 l 2xf0
EndSplineSet
Validated: 1
EndChar

StartChar: m
Encoding: 109 109 77
Width: 729
Flags: W
HStem: -8 86<548.5 650> 429 20G<133 180 352 405 576.5 627>
VStem: 105 122<245.644 405.986> 327 122<247.375 398.174> 502 123<34.1714 183.992> 549 122<221.378 398.174>
LayerCount: 2
Fore
SplineSet
511 123 m 0xf8
 521 168 537 242 537 242 c 2
 540 254 549 308 549 318 c 0
 549 328 544 339 533 339 c 0
 504 339 426 218 398 91 c 1
 378 0 l 1
 368 -3 333 -6 322 -6 c 0
 311 -6 275 -3 263 0 c 1
 315 242 l 2
 318 254 327 308 327 318 c 0
 327 328 322 339 311 339 c 0
 282 339 204 218 176 91 c 2
 156 0 l 1
 146 -3 111 -6 100 -6 c 0
 89 -6 53 -3 41 0 c 1
 100 309 l 2
 101 313 105 337 105 342 c 0
 105 351 100 363 90 363 c 0
 68 363 22 308 19 302 c 1
 12 302 5 323 5 329 c 1
 22 361 106 449 160 449 c 0
 200 449 227 424 227 378 c 0
 227 364 220 328 218 318 c 0
 216 306 208 274 208 274 c 1
 238 342 327 449 377 449 c 0
 433 449 449 419 449 362 c 0
 449 346 446 321 442 297 c 1
 479 364 554 449 599 449 c 0
 655 449 671 419 671 362 c 0xf4
 671 325 656 260 651 233 c 0
 646 208 634 160 629 132 c 0
 627 122 625 104 625 99 c 0
 625 90 629 78 639 78 c 0
 661 78 707 133 710 139 c 1
 717 139 724 118 724 112 c 1
 707 80 619 -8 565 -8 c 0
 532 -8 502 12 502 63 c 0
 502 77 509 115 511 123 c 0xf8
EndSplineSet
Validated: 1
EndChar

StartChar: n
Encoding: 110 110 78
Width: 509
Flags: W
HStem: -8 86<329.5 431> 339 110<296.5 405> 363 86<79 180>
VStem: 105 122<245.622 405.986> 283 123<34.1714 191.883> 327 122<220.031 398.174>
LayerCount: 2
Fore
SplineSet
218 318 m 0xb4
 216 306 208 273 208 274 c 1
 238 342 327 449 377 449 c 3
 433 449 449 419 449 362 c 0xd4
 449 328 434 259 429 233 c 2
 410 132 l 2
 409 128 406 104 406 99 c 0
 406 90 410 78 420 78 c 0
 442 78 488 133 491 139 c 1
 498 139 505 118 505 112 c 1
 488 80 400 -8 346 -8 c 0
 313 -8 283 12 283 63 c 0xd8
 283 77 290 115 292 123 c 1
 315 242 l 2
 318 254 327 308 327 318 c 0
 327 328 322 339 311 339 c 0xd4
 282 339 204 218 176 91 c 10
 156 0 l 17
 146 -3 111 -6 100 -6 c 0
 89 -6 53 -3 41 0 c 1
 100 309 l 2
 101 313 105 337 105 342 c 0
 105 351 100 363 90 363 c 0
 68 363 22 308 19 302 c 1
 12 302 5 323 5 329 c 1
 22 361 106 449 160 449 c 0
 200 449 227 424 227 378 c 0
 227 364 220 328 218 318 c 0xb4
EndSplineSet
Validated: 37
EndChar

StartChar: o
Encoding: 111 111 79
Width: 422
Flags: W
HStem: -6 40<141.948 207.69> 409 40<212.831 277.47>
VStem: 7 125<55.3865 244.792> 288 125<195.799 392.267>
LayerCount: 2
Back
SplineSet
259 403 m 0
 175 403 124 258 124 158 c 0
 124 78 145 27 181 27 c 0
 264 27 312 173 312 273 c 0
 312 353 295 403 259 403 c 0
273 435 m 0
 353 435 390 374 390 288 c 0
 390 148 277 -5 162 -5 c 0
 82 -5 46 52 46 138 c 0
 46 278 158 435 273 435 c 0
262.64 449 m 3
 372.64 449 409.64 376 409.64 287 c 3
 409.64 137 302.64 -6 168.64 -6 c 3
 58.6396 -6 21.6396 67 21.6396 156 c 3
 21.6396 291 128.64 449 262.64 449 c 3
EndSplineSet
Fore
SplineSet
254 409 m 4
 179 409 132 235 132 125 c 4
 132 101 132 34 166 34 c 4
 241 34 288 209 288 312 c 4
 288 345 288 409 254 409 c 4
265 449 m 4
 348 449 413 416 413 297 c 4
 413 153 270 -6 150 -6 c 4
 67 -6 7 46 7 142 c 4
 7 286 145 449 265 449 c 4
EndSplineSet
Validated: 1
EndChar

StartChar: p
Encoding: 112 112 80
Width: 516
Flags: W
HStem: -219 32<-14.2744 28.5752> -210 30<176.804 222.633> -5 44<215 288.887> 365 84<336.99 442>
VStem: 379 129<221.407 360.245>
LayerCount: 2
Fore
SplineSet
340 365 m 0x38
 310 365 280 345 258 323 c 1
 253 296 223 149 223 149 c 2
 208 72 220 39 246 39 c 0
 317 39 379 215 379 299 c 0
 379 332 372 365 340 365 c 0x38
410 449 m 0
 474 449 508 398 508 328 c 0
 508 160 340 -5 218 -5 c 0
 212 -5 200 -4 191 0 c 1
 165 -126 l 2
 163 -135 162 -144 162 -154 c 0
 162 -159 166 -174 176 -177 c 0
 193 -181 220 -180 223 -180 c 0
 227 -181 224 -209 219 -211 c 1
 206 -211 195 -210 184 -210 c 0x78
 133 -210 45 -212 -13 -219 c 1
 -18 -218 -16 -190 -11 -187 c 1xb8
 7 -187 20 -182 29 -171 c 0
 36 -162 40 -151 45 -128 c 2
 120 232 l 5
 72 184 l 5
 68 189 65 204 65 211 c 4
 65 222 74 234 80 239 c 6
 131 287 l 5
 161 444 l 1
 172 447 211 449 222 449 c 0
 233 449 270 446 280 441 c 1
 277 423 268 382 266 373 c 1
 294 404 359 449 410 449 c 0
EndSplineSet
Validated: 33
EndChar

StartChar: q
Encoding: 113 113 81
Width: 416
Flags: W
HStem: -220 21G<117 136.5> -210 22<122 270 320.506 354.633> -7 88<59.5 182.5> 394 55<222.323 333.5>
VStem: 5 126<85.6669 220.771>
LayerCount: 2
Fore
SplineSet
351 -211 m 1x78
 337 -211 283 -210 270 -210 c 0x78
 212 -210 155 -216 118 -220 c 1xb8
 116 -218 116 -188 122 -188 c 0
 151 -185 179 -172 184 -146 c 2
 228 84 l 1
 206 49 147 -7 89 -7 c 0
 30 -7 5 56 5 114 c 0
 5 276 167 449 316 449 c 0
 351 449 387 443 413 427 c 1
 358 139 l 2
 357 135 306 -133 306 -133 c 2
 305 -140 304 -148 304 -154 c 0
 304 -170 311 -181 355 -181 c 0
 359 -181 356 -208 351 -211 c 1x78
281 341 m 0
 284 358 283 394 256 394 c 0
 189 394 131 272 131 157 c 0
 131 102 148 81 165 81 c 0
 200 81 253 186 270 275 c 0
 275 302 277 314 281 341 c 0
EndSplineSet
Validated: 33
EndChar

StartChar: r
Encoding: 114 114 82
Width: 437
Flags: W
HStem: 346 103<294.5 396.104> 363 86<79 180>
VStem: 105 122<236.618 405.986> 204 236<253.5 401.5>
LayerCount: 2
Fore
SplineSet
369 449 m 3x90
 398 449 407 445 424 436 c 1
 432 426 440 411 440 392 c 0
 440 344 409 320 382 320 c 0
 362 320 348 332 336 338 c 0
 326 343 325 346 309 346 c 0x90
 280 346 204 218 176 91 c 10
 156 0 l 17
 146 -3 111 -6 100 -6 c 0
 89 -6 53 -3 41 0 c 1
 100 309 l 2
 101 313 105 337 105 342 c 0
 105 351 100 363 90 363 c 0
 68 363 22 308 19 302 c 1
 12 302 5 323 5 329 c 1
 22 361 106 449 160 449 c 0
 200 449 227 424 227 378 c 0x60
 227 364 220 328 218 318 c 0
 216 306 204 253 204 254 c 1
 229 346 315 449 369 449 c 3x90
EndSplineSet
Validated: 37
EndChar

StartChar: s
Encoding: 115 115 83
Width: 344
Flags: W
HStem: -7 40<94 192.893> 410 39<152.539 247.5>
VStem: 52 92<280 381.074> 204 93<66.3106 168>
LayerCount: 2
Fore
SplineSet
221 449 m 3
 274 449 309 435 331 418 c 1
 340 408 342 386 342 378 c 3
 342 356 324 327 292 327 c 3
 267 327 246 354 233 373 c 0
 220 393 208 410 184 410 c 3
 162 410 144 391 144 364 c 0
 144 327 204 287 241 251 c 4
 265 228 297 199 297 137 c 4
 297 48 211 -7 114 -7 c 7
 74 -7 31 7 9 24 c 1
 0 35 -3 51 -3 62 c 3
 -3 88 16 116 45 116 c 3
 70 116 86 98 105 71 c 4
 122 47 134 33 159 33 c 7
 181 33 204 58 204 76 c 4
 204 120 139 160 101 202 c 4
 76 230 52 250 52 310 c 0
 52 390 124 449 221 449 c 3
EndSplineSet
Validated: 1
EndChar

StartChar: t
Encoding: 116 116 84
Width: 294
Flags: W
HStem: -8 86<74.5 176> 378 46<22.3211 87 212 302.431>
VStem: 28 123<34.1714 190.195>
LayerCount: 2
Fore
SplineSet
96 424 m 1
 111 504 l 1
 122 518 213 570 221 570 c 0
 227 570 234 567 238 564 c 1
 212 424 l 1
 300 424 l 2
 304 424 304 417 304 412 c 0
 304 402 299 386 294 378 c 1
 203 378 l 1
 155 132 l 2
 154 126 151 104 151 99 c 0
 151 90 155 78 165 78 c 0
 187 78 233 133 236 139 c 1
 243 139 250 118 250 112 c 1
 233 80 145 -8 91 -8 c 0
 58 -8 28 12 28 63 c 0
 28 77 34 110 37 123 c 2
 87 378 l 1
 13 378 l 2
 12 378 11 379 11 381 c 0
 11 391 36 424 59 424 c 2
 96 424 l 1
EndSplineSet
Validated: 1
EndChar

StartChar: u
Encoding: 117 117 85
Width: 506
Flags: W
HStem: -8 110<97.5 212.5> -8 86<325.5 427> 363 86<78 179>
VStem: 60 122<42.0872 220.113> 104 122<248.099 405.986> 279 123<34.1714 197.02>
LayerCount: 2
Fore
SplineSet
286 113 m 0x74
 290 134 295 155 298 166 c 1
 260 85 166 -8 123 -8 c 3xb4
 72 -8 60 17 60 78 c 0x74
 60 110 74 178 79 204 c 8
 87 245 93 268 99 309 c 18
 100 313 104 337 104 342 c 0
 104 351 99 363 89 363 c 0
 67 363 21 308 18 302 c 1
 11 302 4 323 4 329 c 1
 21 361 105 449 159 449 c 0
 199 449 226 424 226 378 c 0x6c
 226 364 219 328 217 318 c 0
 215 306 194 199 194 199 c 2
 192 187 182 133 182 123 c 0
 182 113 187 102 198 102 c 0xb4
 227 102 310 249 335 372 c 10
 349 441 l 17
 359 444 394 447 405 447 c 0
 416 447 452 444 464 441 c 1
 406 132 l 2
 405 127 402 104 402 99 c 0
 402 90 406 78 416 78 c 0
 438 78 484 133 487 139 c 1
 494 139 501 118 501 112 c 1
 484 80 396 -8 342 -8 c 0
 309 -8 279 12 279 63 c 0
 279 70 282 91 286 113 c 0x74
EndSplineSet
Validated: 1
EndChar

StartChar: v
Encoding: 118 118 86
Width: 447
VWidth: 0
Flags: W
HStem: -5 21G<112 154.5> 356 93<67.5 179.5>
VStem: 86 122<112.541 355.991> 342 102<281.768 363.379>
LayerCount: 2
Fore
SplineSet
230 112 m 1
 262 135 296 170 318 211 c 4
 340 253 342 286 342 307 c 4
 342 332 325 364 300 384 c 5
 300 421 342 449 366 449 c 4
 404 449 444 425 444 357 c 4
 444 230 186 -5 123 -5 c 1
 101 45 86 168 86 290 c 2
 86 334 l 2
 86 343 85 356 75 356 c 0
 60 356 20 308 17 302 c 1
 10 302 3 323 3 329 c 1
 21 362 104 449 158 449 c 0
 201 449 208 423 208 393 c 2
 208 393 208 373 208 361 c 24
 208 353 208 341 208 341 c 2
 208 231 222 122 230 112 c 1
EndSplineSet
Validated: 1
EndChar

StartChar: w
Encoding: 119 119 87
Width: 709
VWidth: 0
Flags: W
HStem: -5 22G<114 161 378 422> 356 93<67.5 179.5>
VStem: 86 122<125.4 355.991> 342 111<252.389 336.328> 604 102<281.171 363.221>
LayerCount: 2
Fore
SplineSet
453 406 m 1
 453 354 459 287 466 230 c 0
 474 168 484 117 488 112 c 1
 514 126 554 161 580 206 c 0
 602 244 604 279 604 302 c 0
 604 331 587 364 562 384 c 1
 562 421 604 449 628 449 c 0
 666 449 706 425 706 357 c 0
 706 230 459 -4 385 -4 c 1
 371 15 361 58 353 102 c 0
 347 135 343 168 342 192 c 1
 310 125 197 24 125 -5 c 1
 103 45 86 168 86 290 c 2
 86 334 l 2
 86 343 85 356 75 356 c 0
 60 356 20 308 17 302 c 1
 10 302 3 323 3 329 c 1
 21 362 104 449 158 449 c 0
 201 449 208 423 208 393 c 2
 208 393 208 373 208 361 c 0
 208 353 208 341 208 341 c 2
 208 231 222 131 230 121 c 1
 255 138 286 180 305 218 c 0
 319 246 334 287 340 323 c 1
 348 357 431 406 453 406 c 1
EndSplineSet
Validated: 1
EndChar

StartChar: x
Encoding: 120 120 88
Width: 509
VWidth: 0
Flags: W
HStem: -8 86<282.5 386> -7 76<63 135.541> 356 93<122.5 227> 373 76<369.448 438.5>
LayerCount: 2
Fore
SplineSet
213 449 m 0x60
 241 449 255 422 263 393 c 2
 290 297 l 1
 330 375 l 1
 355 421 386 449 426 449 c 0
 451 449 485 440 498 428 c 1
 503 419 510 396 510 380 c 0
 510 353 491 319 455 319 c 0
 431 319 417 337 410 348 c 0
 404 358 395 373 388 373 c 0
 377 373 368 360 356 340 c 2
 304 251 l 1
 344 118 l 2
 350 99 358 78 375 78 c 0
 397 78 443 133 446 139 c 1
 453 139 460 118 460 112 c 1
 443 80 354 -8 300 -8 c 0x90
 265 -8 250 24 238 58 c 0
 238 60 228 96 214 143 c 1
 175 67 l 1
 150 21 119 -7 79 -7 c 0
 47 -7 28 0 12 11 c 1
 5 17 -3 37 -3 59 c 0
 -3 86 14 123 50 123 c 0
 74 123 88 105 95 94 c 0
 101 85 110 69 117 69 c 0
 127 69 137 75 153 104 c 2
 200 189 l 1
 163 315 l 2
 160 324 150 356 130 356 c 0
 115 356 75 308 72 302 c 1
 65 302 58 323 58 329 c 1
 76 362 159 449 213 449 c 0x60
EndSplineSet
Validated: 1
EndChar

StartChar: y
Encoding: 121 121 89
Width: 539
Flags: W
HStem: -218 80<33.9333 121.535> 356 93<119.5 261.5>
VStem: 203 121<26 268.767> 430 102<249.552 363.061>
LayerCount: 2
Fore
SplineSet
190 449 m 0
 333 449 324 87 324 26 c 1
 360 70 430 195 430 304 c 0
 430 343 403 372 388 384 c 1
 388 418 426 449 455 449 c 0
 491 449 532 426 532 356 c 0
 532 122 185 -218 50 -218 c 0
 14 -218 -15 -199 -15 -156 c 0
 -15 -139 0 -114 15 -106 c 1
 30 -115 76 -138 114 -138 c 0
 176 -138 192 -106 194 -100 c 0
 204 -69 203 8 203 51 c 0
 203 165 181 356 132 356 c 0
 107 356 77 305 74 302 c 1
 66 303 59 326 60 329 c 1
 71 348 143 449 190 449 c 0
EndSplineSet
Validated: 33
EndChar

StartChar: z
Encoding: 122 122 90
Width: 432
Flags: W
HStem: -3 98<254.833 333> 38 95<73.9431 192> 314 95<239 356.478> 352 98<98 176.167>
LayerCount: 2
Back
SplineSet
120 352 m 0
 159 352 187 314 253 314 c 0
EndSplineSet
Fore
SplineSet
174 450 m 0x10
 216 450 242 440 269 428 c 0
 287 420 313 409 352 409 c 0
 375 409 406 434 422 449 c 1
 442 449 442 430 443 421 c 0
 443 407 139 129 136 125 c 1
 141 127 165 133 178 133 c 0x60
 206 133 233 128 253 118 c 0
 270 110 297 95 318 95 c 0
 348 95 368 136 375 145 c 1
 385 145 392 129 393 121 c 1
 374 82 310 -3 257 -3 c 0x80
 215 -3 189 7 162 19 c 0
 144 27 118 38 79 38 c 0
 56 38 25 13 9 -2 c 1
 -11 -2 -11 17 -12 26 c 1
 -12 42 293 318 295 322 c 1
 290 320 266 314 253 314 c 0x60
 225 314 198 319 178 329 c 0
 161 337 134 352 113 352 c 0
 83 352 63 311 56 302 c 1
 46 302 39 318 38 326 c 1
 57 365 121 450 174 450 c 0x10
EndSplineSet
Validated: 1
EndChar

StartChar: braceleft
Encoding: 123 123 91
Width: 303
Flags: W
HStem: -144 22<171.136 178.225> 718 22<331.861 347.796>
VStem: 69 279
LayerCount: 2
Fore
SplineSet
174 404 m 0
 179 432 173 455 170 481 c 0
 166 503 164 526 169 554 c 0
 188 654 296 730 341 740 c 1
 347 740 352 726 348 718 c 1
 319 704 262 657 251 599 c 0
 243 560 248 540 253 516 c 0
 257 495 262 471 254 432 c 0
 239 356 167 303 137 298 c 1
 165 293 217 240 202 164 c 0
 194 125 181 101 169 80 c 0
 155 56 142 36 134 -3 c 0
 123 -61 161 -108 184 -122 c 1
 185 -130 175 -144 169 -144 c 1
 128 -134 50 -58 69 42 c 0
 75 73 89 98 102 122 c 0
 115 145 128 166 133 192 c 0
 143 245 110 275 75 287 c 1
 74 289 73 294 74 298 c 0
 75 302 77 307 79 309 c 1
 119 321 164 351 174 404 c 0
EndSplineSet
Validated: 33
EndChar

StartChar: bar
Encoding: 124 124 92
Width: 242
Flags: W
LayerCount: 2
Fore
SplineSet
186 757 m 1
 193 762 204 766 217 766 c 4
 225 766 234 763 233 756 c 2
 63 -116 l 17
 52 -124 35 -125 28 -125 c 0
 19 -125 15 -119 16 -115 c 2
 16 -115 116 418 186 757 c 1
EndSplineSet
Validated: 1
EndChar

StartChar: braceright
Encoding: 125 125 93
Width: 237
Flags: W
HStem: -144 22<4.0638 21.5483> 718 22<173.205 180.432>
VStem: 5 277
LayerCount: 2
Fore
SplineSet
182 740 m 1
 223 730 301 654 282 554 c 0
 276 525 264 501 251 478 c 0
 238 454 224 431 219 404 c 0
 209 351 242 321 277 309 c 1
 278 307 278 302 277 298 c 0
 276 294 275 289 273 287 c 1
 233 275 188 245 178 192 c 0
 173 166 177 144 181 121 c 0
 185 97 188 72 182 42 c 0
 163 -58 55 -134 10 -144 c 1
 4 -144 1 -130 5 -122 c 1
 33 -108 89 -61 100 -3 c 0
 107 35 103 56 98 79 c 0
 94 100 89 124 97 164 c 0
 112 240 185 293 215 298 c 1
 187 303 134 356 149 432 c 0
 158 476 171 499 185 522 c 0
 198 544 210 564 217 599 c 0
 228 657 190 704 168 718 c 1
 167 726 176 740 182 740 c 1
EndSplineSet
Validated: 33
EndChar

StartChar: asciitilde
Encoding: 126 126 94
Width: 500
Flags: W
HStem: 245 61<282.229 416.173> 298 61<86.0172 219.942>
LayerCount: 2
Fore
SplineSet
166 359 m 0x40
 253 359 288 306 375 306 c 0
 411 306 437 327 468 350 c 1
 470 349 472 343 472 335 c 0
 472 289 395 245 337 245 c 0x80
 249 245 214 298 126 298 c 0
 90 298 64 277 33 254 c 1
 31 255 29 261 29 269 c 0
 29 318 114 359 166 359 c 0x40
EndSplineSet
Validated: 1
EndChar

StartChar: exclamdown
Encoding: 161 161 96
Width: 241
Flags: W
HStem: 293 150<126.002 199.453>
VStem: -4 121<-214.285 -95.7977> 91 140<324.997 408.063>
LayerCount: 2
Fore
SplineSet
46 -238 m 0xc0
 17 -238 -4 -219 -4 -187 c 0
 -4 -149 100 184 112 220 c 0
 116 232 123 242 128 242 c 0
 141 242 152 231 152 213 c 0
 152 181 122 -141 117 -170 c 0
 109 -213 75 -238 46 -238 c 0xc0
91 351 m 0xa0
 91 401 138 443 178 443 c 0
 210 443 231 417 231 383 c 0
 231 334 188 293 145 293 c 0
 114 293 91 317 91 351 c 0xa0
EndSplineSet
Validated: 1
EndChar

StartChar: cent
Encoding: 162 162 97
Width: 360
Flags: W
HStem: -6 83<144.5 243.587> 399 50<230.531 325>
VStem: 54 126<68.4643 245.809>
LayerCount: 2
Back
SplineSet
197 -92 m 1
 466 642 l 1
140 -92 m 1
 409 642 l 1
EndSplineSet
Fore
SplineSet
305 449 m 0
 345 449 380 437 393 427 c 1
 399 418 408 400 408 377 c 0
 408 347 382 316 352 316 c 0
 327 316 311 334 301 353 c 0
 292 370 279 399 257 399 c 0
 220 399 180 275 180 170 c 0
 180 102 202 77 242 77 c 0
 287 77 339 137 342 140 c 1
 350 140 355 120 355 114 c 1
 340 91 250 -6 174 -6 c 0
 115 -6 54 37 54 131 c 0
 54 287 185 449 305 449 c 0
311 474 m 17
 318 474 347 473 346 466 c 9
 170 -45 l 17
 162 -45 134 -43 135 -36 c 9
 311 474 l 17
EndSplineSet
Validated: 37
EndChar

StartChar: sterling
Encoding: 163 163 98
Width: 439
Flags: W
HStem: -8 102<256.528 376.5> 307 42<101.625 393.891> 585 56<315.247 418.5>
VStem: 150 104<207.188 459.277>
LayerCount: 2
Fore
SplineSet
111 349 m 5
 126 349 395 349 405 349 c 5
 416 338 393 311 387 307 c 5
 84 307 l 21
 80 313 103 349 111 349 c 5
254 270 m 0
 239 195 193 145 165 122 c 1
 184 132 208 137 229 137 c 0
 264 137 311 94 359 94 c 0
 394 94 414 126 424 141 c 1
 428 143 435 139 438 134 c 24
 442 128 440 121 439 115 c 1
 423 83 362 -8 289 -8 c 0
 226 -8 189 51 120 51 c 0
 103 51 56 10 37 -6 c 1
 30 -6 25 12 27 21 c 1
 43 44 87 81 102 102 c 1
 123 139 137 183 147 232 c 0
 157 282 144 363 150 391 c 0
 186 567 315 641 402 641 c 0
 435 641 445 628 460 616 c 1
 470 595 451 535 412 535 c 0
 368 535 373 585 333 585 c 0
 296 585 272 528 260 459 c 0
 248 387 265 326 254 270 c 0
EndSplineSet
Validated: 37
EndChar

StartChar: currency
Encoding: 164 164 99
Width: 515
Flags: W
HStem: 120 35<258.799 335.331> 461 35<299.149 373.949>
LayerCount: 2
Fore
SplineSet
295 155 m 0
 341 155 381 219 396 294 c 0
 414 386 387 461 339 461 c 0
 293 461 250 394 235 319 c 0
 217 227 247 155 295 155 c 0
450 455 m 1
 515 510 l 2
 517.861 512.543 521.733 511.448 525.748 508 c 0
 534.362 500.602 543.636 482.37 545 466 c 1
 478 410 l 1
 489 380 492 344 485 307 c 0
 477 267 459 230 433 199 c 1
 472 141 l 2
 473.768 138.642 472.41 134.722 469 130.184 c 0
 460.839 119.326 440.927 104.937 424 100 c 1
 386 155 l 1
 354 133 317 120 280 120 c 0
 240 120 206 135 182 160 c 1
 123 110 l 2
 120.437 107.722 117.144 108.363 113.699 111 c 0
 105.046 117.623 95.4305 136.835 94 154 c 1
 154 205 l 1
 142 235 139 270 146 307 c 0
 155 351 175 391 204 423 c 1
 166 479 l 2
 164.45 481.067 165.369 484.335 168 488.167 c 0
 175.551 499.167 197.201 514.809 215 520 c 1
 253 465 l 1
 284 485 319 496 354 496 c 0
 394 496 426 481 450 455 c 1
EndSplineSet
Validated: 33
EndChar

StartChar: yen
Encoding: 165 165 100
Width: 597
Flags: W
HStem: -4 36<123.175 188.511 328.819 379.413> 130 44<120.67 444.517> 219 44<137.67 461.517> 606 36<98.7264 141.157 296.172 355.825 466.587 524.102 600.437 669.825>
LayerCount: 2
Fore
SplineSet
140 219 m 2
 137 219 135 222 135 226 c 0
 135 237 140 252 150 263 c 1
 460 263 l 2
 462 263 463 260 463 256 c 0
 463 245 461 229 450 219 c 1
 140 219 l 2
123 130 m 2
 120 130 118 133 118 137 c 0
 118 148 123 163 133 174 c 1
 443 174 l 2
 445 174 446 171 446 167 c 0
 446 156 444 140 433 130 c 1
 123 130 l 2
213 141 m 2
 239 275 l 0
 240 282 239 287 237 295 c 0
 224 348 168 521 168 521 c 2
 159 548 158 555 151 574 c 0
 142 598 108 605 96 606 c 1
 93 613 97 636 102 642 c 1
 136 638 193 635 231 635 c 0
 269 635 323 638 359 642 c 1
 362 636 358 613 352 606 c 1
 340 605 297 604 292 580 c 0
 291 576 294 572 296 565 c 2
 361 350 l 1
 365 345 463 483 517 561 c 0
 522 569 524 576 525 583 c 0
 528 600 475 605 463 606 c 1
 460 613 465 636 470 642 c 1
 512 638 528 635 570 635 c 0
 610 635 635 640 673 642 c 1
 676 636 672 613 666 606 c 1
 654 605 611 604 594 582 c 0
 571 554 410 346 373 289 c 0
 368 282 365 277 364 271 c 0
 339 141 l 2
 330 99 325 68 329 49 c 0
 331 36 371 33 383 32 c 1
 386 25 381 2 376 -4 c 1
 342 0 286 3 248 3 c 0
 210 3 156 0 120 -4 c 1
 117 2 121 25 127 32 c 1
 139 33 181 36 188 49 c 0
 199 68 204 99 213 141 c 2
EndSplineSet
Validated: 37
EndChar

StartChar: brokenbar
Encoding: 166 166 101
Width: 242
Flags: W
LayerCount: 2
Fore
SplineSet
186 757 m 1
 193 762 204 766 217 766 c 0
 225 766 234 763 233 756 c 2
 160 384 l 17
 149 376 132 375 125 375 c 0
 116 375 112 381 113 385 c 2
 113 385 121 417 186 757 c 1
89 257 m 1
 96 262 107 266 120 266 c 0
 128 266 137 263 136 256 c 2
 63 -116 l 17
 52 -124 35 -125 28 -125 c 0
 19 -125 15 -119 16 -115 c 2
 16 -115 24 -83 89 257 c 1
EndSplineSet
Validated: 1
EndChar

StartChar: section
Encoding: 167 167 102
Width: 431
Flags: W
HStem: -92 50<109.5 206.16> 603 50<333.84 430.5>
LayerCount: 2
Fore
SplineSet
424 653 m 0
 437 653 456 646 468 640 c 1
 471 630 469 616 468 610 c 0
 464 588 451 570 424 570 c 0
 406 570 397 582 390 590 c 0
 383 598 370 603 356 603 c 0
 327 603 282 587 275 549 c 0
 266 503 327 427 362 384 c 0
 410 325 453 276 435 184 c 0
 420 105 302 -8 262 -34 c 9
 265 -22 263 -14 270 -3 c 24
 280 15 304 37 304 37 c 0
 332 66 349 86 358 130 c 0
 374 213 330 270 290 320 c 0
 254 364 196 418 209 486 c 0
 225 566 320 653 424 653 c 0
236 523 m 0
 206 492 191 475 182 431 c 0
 166 348 209 291 250 241 c 0
 286 197 344 143 331 75 c 0
 315 -5 220 -92 116 -92 c 0
 103 -92 82 -84 72 -78 c 1
 70 -71 70 -58 71 -52 c 0
 75 -30 90 -9 117 -9 c 0
 135 -9 145 -22 152 -31 c 0
 158 -39 170 -42 184 -42 c 0
 213 -42 258 -26 265 12 c 0
 274 58 213 134 178 177 c 0
 130 236 87 285 105 377 c 0
 120 456 238 569 278 595 c 9
 275 583 277 575 270 564 c 24
 260 546 236 523 236 523 c 0
EndSplineSet
Validated: 37
EndChar

StartChar: dieresis
Encoding: 168 168 103
Width: 410
Flags: W
HStem: 446.45 131.1<158.167 230.343 346.267 418.443>
VStem: 135.1 119.7<470.614 554.386> 323.2 119.7<470.614 554.386>
LayerCount: 2
Fore
SplineSet
323.2 513.9 m 0
 329.85 549.05 362.15 577.55 395.4 577.55 c 27
 427.7 577.55 449.55 549.05 442.9 513.9 c 0
 436.25 478.75 404.9 446.45 371.65 446.45 c 27
 337.45 446.45 316.55 478.75 323.2 513.9 c 0
135.1 513.9 m 0
 141.75 549.05 174.05 577.55 207.3 577.55 c 27
 239.6 577.55 261.45 549.05 254.8 513.9 c 0
 248.15 478.75 216.8 446.45 183.55 446.45 c 27
 149.35 446.45 128.45 478.75 135.1 513.9 c 0
EndSplineSet
Validated: 524321
EndChar

StartChar: copyright
Encoding: 169 169 104
Width: 599
Flags: W
HStem: 38 44<224.372 399.053> 163 25<300.499 379.238> 429 26<324.026 403.086> 538 46<273.037 452.367>
VStem: 426 20<371.821 401.829>
LayerCount: 2
Fore
SplineSet
362 455 m 0
 387 455 419 444 441 439 c 1
 441 434 447 382 446 377 c 0
 446 375 436 371 431 371 c 3
 429 371 428 370 426 372 c 1
 424 388 415 429 361 429 c 0
 307 429 279 368 272 310 c 0
 264 246 282 188 336 188 c 0
 359 188 376 195 387 205 c 0
 405 221 419 253 420 256 c 1
 426 256 435 255 437 252 c 1
 436 247 420 191 414 189 c 0
 389 180 357 163 322 163 c 0
 243 163 194 217 205 305 c 0
 216 394 289 455 362 455 c 0
125 310 m 0
 110 184 192 82 309 82 c 0
 426 82 534 184 549 310 c 0
 564 436 482 538 365 538 c 0
 248 538 140 436 125 310 c 0
371 584 m 0
 511 584 611 462 592 311 c 0
 573 160 444 38 304 38 c 0
 164 38 65 160 84 311 c 0
 103 462 231 584 371 584 c 0
EndSplineSet
Validated: 33
EndChar

StartChar: ordfeminine
Encoding: 170 170 105
Width: 458
Flags: W
HStem: 247 59<78.5 160.32 234.5 311> 510 44<181.553 274.5>
VStem: 36 92<306.296 415.379>
LayerCount: 2
Fore
SplineSet
247 246 m 0
 222 246 200 257 200 287 c 0
 200 290 201 296 202 301 c 0
 203 306 203 310 204 313 c 1
 189 288 143 247 99 247 c 0
 58 247 36 283 36 329 c 0
 36 450 169 554 261 554 c 0
 288 554 325 547 339 542 c 1
 295 349 l 2
 295 346 292 330 292 327 c 0
 292 321 295 313 303 313 c 0
 319 313 353 350 355 354 c 1
 360 351 365 336 363 327 c 1
 351 305 287 246 247 246 c 0
218 510 m 0
 168 510 128 434 128 354 c 0
 128 322 138 306 154 306 c 0
 179 306 215 374 230 441 c 2
 244 502 l 1
 239 507 228 510 218 510 c 0
EndSplineSet
Validated: 1
EndChar

StartChar: guillemotleft
Encoding: 171 171 106
Width: 461
Flags: W
LayerCount: 2
Fore
SplineSet
441 92 m 1
 435 82 419 74 413 73 c 1
 409 77 354 154 248 233 c 1
 245 237 244 243 245 248 c 0
 246 253 250 259 254 263 c 1
 391 342 476 419 481 423 c 1
 486 422 500 414 502 404 c 1
 497 398 388 284 347 248 c 1
 374 212 438 98 441 92 c 1
268 92 m 1
 262 82 245 74 239 73 c 1
 235 77 181 154 75 233 c 1
 72 237 70 243 71 248 c 0
 72 253 76 259 80 263 c 1
 217 342 302 419 307 423 c 1
 312 422 326 414 328 404 c 1
 323 398 214 284 173 248 c 1
 200 212 265 98 268 92 c 1
EndSplineSet
Validated: 1
EndChar

StartChar: logicalnot
Encoding: 172 172 107
Width: 471
Flags: W
HStem: 318 51<51.6798 385>
LayerCount: 2
Fore
SplineSet
63 369 m 1
 453 369 l 17
 444 322 409 144 409 144 c 2
 408 140 382 128 366 128 c 0
 356 128 349 132 350 136 c 2
 385 318 l 1
 54 318 l 2
 51 318 49 321 49 326 c 0
 49 339 52 356 63 369 c 1
EndSplineSet
Validated: 1
EndChar

StartChar: registered
Encoding: 174 174 108
Width: 599
Flags: W
HStem: 89 44<230.872 405.622> 234 16<213.895 240.895 301.059 324.775 451.149 467> 355 19<313 323.438> 482 19<244.56 267.941 327.099 366.4> 589 46<279.537 458.92>
LayerCount: 2
Fore
SplineSet
360 501 m 0
 406 501 442 475 436 427 c 0
 432 394 390 367 372 362 c 1
 394 323 420 288 420 288 c 0
 443 255 466 251 469 251 c 1
 470 248 467 235 467 234 c 1
 456 233 440 232 425 232 c 0
 396 232 382 245 368 268 c 0
 322 349 l 0
 322 349 319 355 316 355 c 0
 313 355 310 355 310 355 c 9
 303 295 l 2
 301 278 299 266 301 258 c 0
 302 253 320 250 325 250 c 1
 326 247 325 236 323 234 c 1
 308 236 285 237 269 237 c 0
 253 237 229 236 214 234 c 1
 212 236 214 247 216 250 c 1
 221 250 239 253 241 258 c 0
 245 266 246 278 248 295 c 2
 266 441 l 2
 268 458 270 470 268 478 c 0
 267 483 249 484 244 484 c 1
 243 487 245 499 247 501 c 1
 264 500 286 500 302 500 c 0
 318 500 338 501 360 501 c 0
346 482 m 0
 338 482 329 482 327 478 c 0
 325 473 323 465 322 453 c 2
 313 374 l 17
 328 374 l 0
 352 374 374 393 378 424 c 0
 382 456 371 482 346 482 c 0
372 589 m 0
 255 589 147 487 132 361 c 0
 117 235 199 133 316 133 c 0
 433 133 541 235 556 361 c 0
 571 487 489 589 372 589 c 0
377 635 m 0
 517 635 618 513 599 362 c 0
 580 211 450 89 310 89 c 0
 170 89 71 211 90 362 c 0
 109 513 237 635 377 635 c 0
EndSplineSet
Validated: 33
EndChar

StartChar: macron
Encoding: 175 175 109
Width: 261
Flags: W
HStem: 551 39<16.5287 251.248>
VStem: 15 238<551.289 589.711>
LayerCount: 2
Fore
SplineSet
24 590 m 9
 248 590 l 2
 251 590 253 585 253 581 c 0
 253 573 248 557 242 551 c 1
 20 551 l 2
 17 551 15 557 15 562 c 0
 15 568 20 584 24 590 c 9
EndSplineSet
Validated: 1
EndChar

StartChar: degree
Encoding: 176 176 110
Width: 261
Flags: W
HStem: 425 46<182.648 270.188> 602 45<198.852 288.386>
VStem: 132 206
LayerCount: 2
Fore
SplineSet
175 537 m 0
 168 501 189 471 222 471 c 0
 255 471 288 501 295 537 c 0
 302 573 281 602 248 602 c 0
 215 602 182 573 175 537 c 0
132 537 m 0
 144 598 199 647 256 647 c 0
 313 647 350 598 338 537 c 0
 326 476 270 425 213 425 c 0
 156 425 120 476 132 537 c 0
EndSplineSet
Validated: 33
EndChar

StartChar: plusminus
Encoding: 177 177 111
Width: 532
Flags: W
HStem: 11 51<63.5193 466.797> 307 51<121.519 292 356 524.797>
LayerCount: 2
Fore
SplineSet
466 62 m 6
 468 62 469 59 469 54 c 4
 469 41 467 23 456 11 c 5
 65 11 l 6
 62 11 60 14 60 19 c 4
 60 32 65 49 75 62 c 5
 466 62 l 6
123 307 m 2
 120 307 118 310 118 315 c 0
 118 328 123 345 133 358 c 1
 300 358 l 1
 333 529 l 2
 335 542 378 545 382 545 c 0
 390 545 392 541 391 537 c 2
 356 358 l 1
 524 358 l 2
 526 358 527 355 527 350 c 0
 527 337 525 319 514 307 c 1
 348 307 l 1
 313 133 l 2
 311 123 286 117 270 117 c 0
 260 117 255 121 256 125 c 2
 292 307 l 1
 123 307 l 2
EndSplineSet
Validated: 1
EndChar

StartChar: uni00B2
Encoding: 178 178 112
Width: 328
Flags: W
HStem: 254 76<186 308.666> 589 55<210.579 313.548>
VStem: 287 90<488.646 582.984>
LayerCount: 2
Back
SplineSet
374.1 552.9 m 4
 374.1 500.44 337.579 460.043 289.78 418.7 c 4
 233.36 369.9 171.36 321.1 172.6 321.1 c 13
 279.24 321.1 l 6
 312.1 321.1 324.5 341.84 331.94 361.36 c 4
 333.112 364.436 336.28 366.85 341.24 366.85 c 4
 345.58 366.85 349.3 364.41 351.78 362.58 c 5
 338.76 332.08 307.76 264.98 302.8 254 c 13
 302.8 254 96.3398 254 92 254 c 5
 89.5195 254 87.04 260.1 87.6602 267.42 c 5
 121.76 297.92 192.172 370.402 227.16 412.6 c 4
 265.6 458.96 286.06 501.66 286.06 539.48 c 4
 286.06 571.2 268.08 593.77 234.6 593.77 c 4
 198.64 593.77 170.12 560.22 165.78 554.73 c 5
 160.2 554.73 154.62 562.05 154 566.93 c 5
 160.82 582.18 219.72 645.62 279.86 645.62 c 4
 325.12 645.62 374.1 612.07 374.1 552.9 c 4
EndSplineSet
Fore
SplineSet
377 553 m 0
 377 498 319 438 277 403 c 0
 244 376 226 357 186 330 c 1
 195 330 278 330 278 330 c 2
 309 330 321 358 335 380 c 0
 337 383 340 385 344 385 c 0
 348 385 356 384 358 382 c 1
 346 353 304 265 298 254 c 9
 87 254 l 1
 85 257 83 265 83 268 c 1
 138 321 164 347 221 409 c 0
 262 454 287 498 287 537 c 0
 287 569 272 589 240 589 c 0
 199 589 171 552 165 547 c 1
 162 547 150 553 152 565 c 1
 167 588 216 644 281 644 c 0
 346 644 377 599 377 553 c 0
EndSplineSet
Validated: 1
EndChar

StartChar: uni00B3
Encoding: 179 179 113
Width: 307
Flags: W
HStem: 245 31<144.5 230.075> 443 24<184.026 216.803> 594 50<211.45 297.512>
VStem: 268 93<327.612 434.695> 285 80<514.953 589.275>
LayerCount: 2
Fore
SplineSet
281 644 m 0xe8
 314 644 365 630 365 568 c 0xe8
 365 510 298 481 277 477 c 1
 295 476 361 468 361 394 c 0
 361 294 236 245 163 245 c 0
 126 245 96 257 86 268 c 1
 83 275 81 288 83 298 c 0
 86 315 101 338 124 338 c 0
 142 338 151 322 159 303 c 0
 166 285 179 276 194 276 c 0
 229 276 268 320 268 372 c 0xf0
 268 406 255 446 217 446 c 0
 213 446 196 446 186 443 c 1
 185 446 184 449 184 454 c 0
 184 458 185 465 186 467 c 1
 216 471 285 490 285 552 c 0
 285 573 274 594 240 594 c 0
 206 594 172 553 167 548 c 1
 163 549 150 559 154 569 c 1
 187 613 236 644 281 644 c 0xe8
EndSplineSet
Validated: 1
EndChar

StartChar: acute
Encoding: 180 180 114
Width: 218
Flags: W
HStem: 522 165
VStem: 130 184
LayerCount: 2
Back
SplineSet
304.021 653.988 m 4
 304.021 667.193 285.916 687 254.632 687 c 4
 241.632 687 229.632 683 225.632 678 c 4
 199.996 635.602 165.611 547.513 165.611 540.26 c 4
 165.611 535.76 177.581 522 184.632 522 c 4
 193.337 522 304.021 612.751 304.021 653.988 c 4
EndSplineSet
Fore
SplineSet
277 687 m 0
 310 687 316 666 314 658 c 0
 306 619 152 522 143 522 c 0
 136 522 129 534 130 540 c 0
 131 545 201 635 244 678 c 0
 250 683 264 687 277 687 c 0
EndSplineSet
Validated: 33
EndChar

StartChar: paragraph
Encoding: 182 182 116
Width: 372
Flags: W
HStem: -82 46<227.555 306.429> 622 37<301.388 461.763 555.479 622.399>
VStem: 98 203<358.892 526.178>
LayerCount: 2
Fore
SplineSet
343.888 659 m 4
 398.888 659 459 655 495 655 c 0
 534 655 590 658 627 662 c 1
 630 656 626 632 620 625 c 1
 608 624 564 620 557 607 c 0
 546 587 539 556 531 513 c 2
 469.553 194 l 2
 437.555 30 324.555 -82 244.555 -82 c 0
 210.555 -82 181.555 -72 170.555 -64 c 1
 165.555 -56 161.555 -44 161.555 -31 c 0
 161.555 -6 176.555 18 199.555 18 c 0
 216.555 18 230.555 9 241.555 -6 c 0
 250.555 -19 260.555 -36 278.555 -36 c 0
 317.555 -36 322.555 31 353.555 190 c 1
 420.33 537 l 2
 426 567 432.33 600 430.33 612 c 0
 428.33 621 419 622 411.441 622 c 0
 367 622 301 554 301 458 c 0
 301 391 316 346 362 324 c 1
 364 323 366 318 366 316 c 0
 366 292 305.887 273 274.888 273 c 0
 152.888 273 98 369 98 440 c 0
 98 584 258.888 659 343.888 659 c 4
EndSplineSet
Validated: 33
EndChar

StartChar: periodcentered
Encoding: 183 183 117
Width: 189
Flags: W
HStem: 188 150<109.384 184.619>
VStem: 78 140<222.562 306.831>
LayerCount: 2
Fore
SplineSet
78 250 m 0
 78 297 121 338 163 338 c 19
 195 338 218 313 218 280 c 0
 218 236 177 188 135 188 c 19
 101 188 78 216 78 250 c 0
EndSplineSet
Validated: 1
EndChar

StartChar: cedilla
Encoding: 184 184 118
Width: 406
Flags: W
HStem: -163 23<157.554 217.09> -65 36<210 226.267>
VStem: 230 51<-125.661 -65.9999>
LayerCount: 2
Fore
SplineSet
204 -4 m 1
 233 -4 l 9
 210 -29 l 25
 227 -29 l 2
 252 -29 281 -48 281 -76 c 0
 281 -126 223 -163 161 -163 c 3
 148 -163 124 -158 118 -153 c 1
 116 -151 114 -147 114 -144 c 0
 114 -128 123 -116 133 -116 c 3
 152 -116 159 -140 187 -140 c 3
 212 -140 230 -123 230 -100 c 0
 230 -77 214 -65 201 -65 c 0
 190 -65 183 -68 172 -73 c 0
 170 -73 157 -66 157 -61 c 0
 157 -56 177 -40 204 -4 c 1
EndSplineSet
Validated: 1
EndChar

StartChar: uni00B9
Encoding: 185 185 119
Width: 261
Flags: W
HStem: 252 26<98.7031 147.722 248.299 287.14> 621 20G<301 305>
VStem: 97 217
LayerCount: 2
Fore
SplineSet
201 511 m 2
 206 538 203 558 192 558 c 0
 184 558 158 547 147 542 c 1
 143 543 139 554 141 562 c 0
 141 563 142 568 143 569 c 1
 215 599 300 641 302 641 c 2
 303 641 l 2
 307 641 314 624 314 621 c 1
 309 610 295 575 287 536 c 2
 250 346 l 2
 247 328 243 298 248 291 c 0
 254 282 285 278 290 278 c 1
 292 278 286 253 285 252 c 1
 263 253 214 256 192 256 c 0
 170 256 120 253 97 252 c 1
 95 255 99 278 102 278 c 1
 109 278 141 284 149 292 c 0
 155 298 167 336 169 347 c 2
 201 511 l 2
EndSplineSet
Validated: 33
EndChar

StartChar: ordmasculine
Encoding: 186 186 120
Width: 422
Flags: W
HStem: 251 30<206.993 255.916> 523 29<256.866 304.036>
VStem: 107.945 92.0547<284.035 429.082> 311.755 92.0557<371.484 522.466>
LayerCount: 2
Back
SplineSet
269 523 m 3
 224 523 208 461 199 413 c 24
 188 355 192 282 237 282 c 3
 282 282 298 343 307 390 c 24
 318 448 314 523 269 523 c 3
282 553 m 0
 369 553 417 489 401 405 c 0
 385 321 307 251 224 251 c 0
 137 251 89 316 105 400 c 0
 121 484 200 553 282 553 c 0
EndSplineSet
Fore
SplineSet
287.885 523 m 4
 233.635 523 200 411 200 338 c 4
 200 322 202 281 224.955 281 c 4
 279.205 281 311.755 394 311.755 462 c 4
 311.755 484 308 523 287.885 523 c 4
295.48 552 m 4
 355.155 552 403.811 531 403.811 452 c 4
 403.811 357 299.82 251 213.021 251 c 4
 153.345 251 107.945 285 107.945 349 c 4
 107.945 444 208.68 552 295.48 552 c 4
EndSplineSet
Validated: 1
EndChar

StartChar: guillemotright
Encoding: 187 187 121
Width: 461
Flags: W
LayerCount: 2
Fore
SplineSet
117 404 m 1
 123 414 140 422 146 423 c 1
 150 419 204 342 310 263 c 1
 313 259 314 253 313 248 c 0
 312 243 308 237 304 233 c 1
 167 154 83 77 78 73 c 1
 73 74 58 82 56 92 c 1
 61 98 170 212 211 248 c 1
 184 284 120 398 117 404 c 1
291 404 m 1
 297 414 313 422 319 423 c 1
 323 419 378 342 484 263 c 1
 487 259 488 253 487 248 c 0
 486 243 482 237 478 233 c 1
 341 154 256 77 251 73 c 1
 246 74 232 82 230 92 c 1
 235 98 344 212 385 248 c 1
 358 284 294 398 291 404 c 1
EndSplineSet
Validated: 1
EndChar

StartChar: onequarter
Encoding: 188 188 122
Width: 686
Flags: W
HStem: 110 42<454 548 637 673.243> 254 23<85.4438 132.644 232.033 276.368>
LayerCount: 2
Fore
SplineSet
669 400 m 0
 675 400 683 389 682 384 c 2
 637 152 l 25
 670 152 l 18
 674 152 675 147 675 142 c 0
 675 131 668 116 664 110 c 1
 649 110 628 110 628 110 c 25
 608 3 l 1
 608 3 586 -1 564 -1 c 0
 550 -1 526 1 527 5 c 2
 548 110 l 25
 393 110 l 1
 389 112 387 121 388 125 c 1
 651 390 l 2
 657 396 665 400 669 400 c 0
579 282 m 25
 454 152 l 25
 555 152 l 25
 579 282 l 25
129 542 m 1
 125 544 122 557 122 561 c 0
 122 562 123 564 125 566 c 1
 187 598 259 630 291 646 c 9
 293 646 l 2
 296 646 299 632 298 624 c 1
 298 624 281 590 268 522 c 2
 235 343 l 2
 231 323 229 298 229 295 c 0
 229 278 275 277 279 277 c 0
 281 277 279 265 278 261 c 0
 277 258 277 255 276 254 c 1
 254 255 199 258 177 258 c 0
 155 258 107 255 84 254 c 1
 82 257 86 277 89 277 c 0
 96 277 129 281 135 291 c 0
 139 298 142 312 144 324 c 2
 180 508 l 2
 187 544 192 563 180 563 c 0
 176 563 140 547 129 542 c 1
664 633 m 2
 213 -8 l 1
 213 -8 186 -7 186 4 c 0
 186 6 187 8 188 10 c 26
 640 651 l 1
 640 651 665 649 665 638 c 0
 665 636 665 634 664 633 c 2
EndSplineSet
Validated: 33
EndChar

StartChar: onehalf
Encoding: 189 189 123
Width: 701
Flags: W
HStem: -2 76<543 665.666> 254 23<85.4438 132.644 232.033 276.368> 333 55<567.579 670.548>
VStem: 644 90<232.646 326.984>
LayerCount: 2
Fore
SplineSet
734 297 m 0
 734 242 676 182 634 147 c 0
 601 120 583 101 543 74 c 1
 552 74 635 74 635 74 c 2
 666 74 678 102 692 124 c 0
 694 127 697 129 701 129 c 0
 705 129 713 128 715 126 c 1
 703 97 661 9 655 -2 c 9
 444 -2 l 1
 442 1 440 9 440 12 c 1
 495 65 521 91 578 153 c 0
 619 198 644 242 644 281 c 0
 644 313 629 333 597 333 c 0
 556 333 528 296 522 291 c 1
 519 291 507 297 509 309 c 1
 524 332 573 388 638 388 c 0
 703 388 734 343 734 297 c 0
129 542 m 1
 125 544 122 557 122 561 c 0
 122 562 123 564 125 566 c 1
 187 598 259 630 291 646 c 9
 293 646 l 2
 296 646 299 632 298 624 c 1
 298 624 281 590 268 522 c 2
 235 343 l 2
 231 323 229 298 229 295 c 0
 229 278 275 277 279 277 c 0
 281 277 279 265 278 261 c 0
 277 258 277 255 276 254 c 1
 254 255 199 258 177 258 c 0
 155 258 107 255 84 254 c 1
 82 257 86 277 89 277 c 0
 96 277 129 281 135 291 c 0
 139 298 142 312 144 324 c 2
 180 508 l 2
 187 544 192 563 180 563 c 0
 176 563 140 547 129 542 c 1
664 633 m 2
 213 -8 l 1
 213 -8 186 -7 186 4 c 0
 186 6 187 8 188 10 c 26
 640 651 l 1
 640 651 665 649 665 638 c 0
 665 636 665 634 664 633 c 2
EndSplineSet
Validated: 33
EndChar

StartChar: threequarters
Encoding: 190 190 124
Width: 672
Flags: W
HStem: 110 42<459 553 642 678.243> 245 31<129.5 215.075> 443 24<169.026 201.803> 594 50<196.45 282.512>
VStem: 253 93<327.612 434.695> 270 80<514.953 589.275>
LayerCount: 2
Fore
SplineSet
674 400 m 0xf0
 680 400 688 389 687 384 c 2
 642 152 l 25
 675 152 l 18
 679 152 680 147 680 142 c 0
 680 131 673 116 669 110 c 1
 654 110 634 110 634 110 c 25
 613 3 l 1
 613 3 591 -1 569 -1 c 0
 555 -1 532 1 533 5 c 2
 553 110 l 25
 398 110 l 1
 394 112 392 121 393 125 c 1
 656 390 l 2
 662 396 670 400 674 400 c 0xf0
584 282 m 25
 459 152 l 25
 560 152 l 25
 584 282 l 25
266 644 m 0
 299 644 350 630 350 568 c 0xf4
 350 510 283 481 262 477 c 1
 280 476 346 468 346 394 c 0
 346 294 221 245 148 245 c 0
 111 245 81 257 71 268 c 1
 68 275 66 288 68 298 c 0
 71 315 86 338 109 338 c 0
 127 338 136 322 144 303 c 0
 151 285 164 276 179 276 c 0
 214 276 253 320 253 372 c 0xf8
 253 406 240 446 202 446 c 0
 198 446 181 446 171 443 c 1
 170 446 169 449 169 454 c 0
 169 458 170 465 171 467 c 1
 201 471 270 490 270 552 c 0xf4
 270 573 259 594 225 594 c 0
 191 594 157 553 152 548 c 1
 148 549 135 559 139 569 c 1
 172 613 221 644 266 644 c 0
665 633 m 2
 214 -8 l 1
 214 -8 187 -7 187 4 c 0
 187 6 188 8 189 10 c 26
 641 651 l 1
 641 651 666 649 666 638 c 0
 666 636 666 634 665 633 c 2
EndSplineSet
Validated: 33
EndChar

StartChar: questiondown
Encoding: 191 191 125
Width: 346
Flags: W
HStem: -208 73<92.9877 195.5> 311 138<245 318.443>
VStem: 11 73<-130.113 -46.876> 214 92<102.729 185.885> 218 126<335.383 422.244>
LayerCount: 2
Fore
SplineSet
344 378 m 0xe8
 337 341 303 311 268 311 c 27
 234 311 211 341 218 378 c 0
 225 415 258 449 293 449 c 27
 329 449 351 415 344 378 c 0xe8
180 223 m 1
 180 229 188 240 193 243 c 1
 217 243 306 192 306 136 c 3
 306 70 251 44 225 26 c 0
 198 7 148 -11 115 -39 c 0
 95 -56 84 -71 84 -96 c 3
 84 -120 96 -135 121 -135 c 0
 151 -135 182 -84 212 -84 c 0
 258 -84 270 -133 255 -171 c 1
 243 -186 219 -208 172 -208 c 0
 89 -208 11 -136 11 -62 c 0
 11 -7 24 34 99 81 c 0
 115 91 148 105 175 123 c 0
 197 137 214 154 214 171 c 3xf0
 214 200 188 218 180 223 c 1
EndSplineSet
Validated: 33
EndChar

StartChar: AE
Encoding: 198 198 132
Width: 916
Flags: W
HStem: -3 37<16.6123 77.5 388.181 453.418> -2.2894 44.2894<598.469 794.781> 270 48<340 480.953> 302 47<622.844 752.521> 620 37<447.473 468.986 651.292 825.834>
VStem: 780 29<226.106 283.319> 800 28<387.185 426.857> 866 36<511.204 571.025>
LayerCount: 2
Back
SplineSet
420 497 m 29
 130 100 l 29
480 471 m 25
 190 74 l 25
EndSplineSet
Fore
SplineSet
587 657 m 0xad
 626 657 836 663 891 664 c 1
 893 614 898 561 902 516 c 1
 899 513 887 511 880 511 c 0
 873 511 867 514 866 519 c 0
 852 574 833 620 776 620 c 2
 699 620 l 2
 678 620 657 619 651 608 c 0
 645 596 643 576 640 547 c 2
 622 360 l 2
 622 354 641 349 661 349 c 2
 710 349 l 2
 765 349 779 361 800 419 c 0
 802 424 804 427 811 427 c 0
 818 427 826 425 828 422 c 1x1b
 809 230 l 1
 807 228 799 226 792 226 c 0
 785 226 780 229 780 234 c 0
 774 282 761 291 753 295 c 0
 743 300 719 302 684 302 c 0
 658 302 616 300 615 288 c 2
 599 141 l 2
 598 135 593 82 599 62 c 0
 603 48 633 42 657 42 c 2
 719 42 l 2
 754 42 785 52 809 75 c 0
 831 96 847 125 868 170 c 0
 870 174 875 176 882 176 c 0
 891 176 907 173 909 170 c 1
 886 116 853 42 842 -2 c 1
 816.203 -2 641.651 -2 516 -2.2894 c 0x5d
 451.689 -2.43752 400.188 -2.66145 388 -3 c 1
 384 3 386 27 391 34 c 1
 403 35 447 38 453 51 c 0
 462 71 465 102 469 145 c 2
 481 265 l 2
 480 266 479 269 477 269 c 0
 442 271 420 270 397 270 c 0
 359 270 344 270 311 269 c 0
 308 269 303 266 302 264 c 2
 302 264 231 163 212 135 c 0
 196 110 175 74 173 67 c 0
 166 41 228 33 235 33 c 1
 238 26 236 0 232 -4 c 1
 200 0 161 4 120 4 c 0
 77 4 51 0 18 -4 c 1
 15 0 12 21 19 32 c 1
 30 32 80 48 93 64 c 0
 117 92 125 106 145 134 c 2
 461 590 l 0
 461 590 469 602.901 469 608 c 0
 469 618 450 623 444 623 c 1
 440 630 445 654 449 660 c 1
 490 657 548 657 587 657 c 0xad
511 567 m 1
 340 325 l 1
 340 325 340 321 342 321 c 0
 360 319 385 318 406 318 c 0x29
 435 318 453 318 482 320 c 0
 484 320 487 325 487 325 c 1
 507 513 l 2
 509 534 510 552 511 567 c 1
EndSplineSet
Validated: 33
EndChar

StartChar: Eth
Encoding: 208 208 142
Width: 697
Flags: W
HStem: -3 42<-6.36725 61.9043 205.837 366.096> 304 39<50.6816 390.88> 620 40<113.448 166.931 308.338 440.533>
LayerCount: 2
Fore
SplineSet
59 343 m 1
 87 343 376 343 389 343 c 0
 393 343 395 339 394 335 c 0
 393 330 388 311 383 304 c 1
 355 304 65 304 52 304 c 0
 48 304 48 311 49 315 c 0
 50 320 52 336 59 343 c 1
EndSplineSet
Refer: 36 68 N 1 0 0 1 0 0 2
Validated: 5
EndChar

StartChar: multiply
Encoding: 215 215 149
Width: 405
Flags: W
VStem: 162 68<231.125 264>
LayerCount: 2
Fore
SplineSet
21 70 m 0
 15 70 6 97 6 113 c 1
 160 248 l 2
 161 249 162 250 162 251 c 0
 162 253 162 255 161 256 c 2
 60 393 l 1
 60 407 87 429 92 429 c 0
 96 429 94 427 96 425 c 2
 200 284 l 2
 201 283 203 282 204 282 c 2
 206 283 l 26
 364 424 l 2
 366 426 368 427 370 427 c 0
 377 427 385 401 385 383 c 1
 232 247 l 2
 231 246 230 246 230 245 c 3
 230 244 230 244 231 243 c 2
 331 107 l 1
 331 93 311 70 304 70 c 0
 300 70 298 71 297 73 c 2
 194 213 l 2
 193 214 192 215 191 215 c 0
 190 215 188 214 187 213 c 2
 26 73 l 2
 24 71 23 70 21 70 c 0
EndSplineSet
Validated: 1
EndChar

StartChar: Oslash
Encoding: 216 216 150
Width: 661
Flags: W
HStem: -10 43<263.896 396.749> 624 43<336.848 465.469>
VStem: 52 144<149.833 390.06> 538 144<259.072 501.723>
LayerCount: 2
Fore
SplineSet
107 -13 m 21
 99 -10 78 6 83 12 c 13
 599 669 l 21
 607 667 629 651 624 645 c 13
 107 -13 l 21
405 624 m 3
 267 624 196 409 196 244 c 0
 196 129 234 33 329 33 c 3
 464 33 538 245 538 410 c 0
 538 525 495 624 405 624 c 3
427 667 m 0
 591 667 682 522 682 393 c 0
 682 137 464 -10 298 -10 c 0
 158 -10 52 115 52 261 c 0
 52 510 262 667 427 667 c 0
EndSplineSet
Validated: 37
EndChar

StartChar: Thorn
Encoding: 222 222 156
Width: 372
Flags: W
HStem: -4 37<-7.72067 58.9979 204.001 256.413> 135 44<250.83 334.219> 472 41<290.093 372.046> 623 37<116.098 167.343 309.71 376.89>
LayerCount: 2
Fore
SplineSet
361 513 m 0
 480 513 562 424 541 317 c 0
 518 197 396 135 302 135 c 0
 269 135 256 147 251 154 c 0
 248 158 246 171 246 176 c 0
 246 180 248 183 250 183 c 1
 259 180 266 179 280 179 c 0
 326 179 387 237 400 303 c 0
 417 392 391 472 329 472 c 0
 308 472 290 468 281 456 c 0
 272.95 445.267 270 428 264 399 c 2
 215 145 l 2
 207 102 200 71 204 51 c 0
 206 38 248 34 260 33 c 1
 263 26 258 2 253 -4 c 1
 218 0 160 3 121 3 c 0
 82 3 25 0 -12 -4 c 1
 -15 2 -10 26 -4 33 c 1
 8 34 52 38 59 51 c 0
 70 71 76 102 84 145 c 2
 156 513 l 2
 164 556 171 587 167 607 c 0
 165 620 122 622 110 623 c 1
 107 630 113 654 118 660 c 1
 159 657 211 657 250 657 c 0
 289 657 345 660 382 664 c 1
 385 658 381 634 375 627 c 1
 363 626 319 622 312 609 c 0
 302 591 295 559 288 520 c 0
 288 520 288 509 290 509 c 0
 292 509 293 510 295 510 c 0
 309 513 340 513 361 513 c 0
EndSplineSet
Validated: 33
EndChar

StartChar: germandbls
Encoding: 223 223 157
Width: 542
Flags: W
HStem: -218 46<-31 48.0006> -4 34<351.786 416.763> 378 46<96.3211 133> 655 40<351.896 425.567>
VStem: 306 99<306.059 366.295> 427 91<61.9563 150.5> 445 107<491.815 637.081>
LayerCount: 2
Back
SplineSet
306 309 m 7
 306 398 446 422 446 566 c 3
EndSplineSet
Fore
SplineSet
275 424 m 0xfa
 298 563 334 655 392 655 c 0
 443 655 445 568 445 556 c 0xfa
 445 492 404 446 389 430 c 0
 359 398 306 360 306 310 c 0
 306 264 325 232 354 193 c 0
 381 157 427 107 427 76 c 0
 427 44 401 30 385 30 c 0
 336 30 341 97 304 97 c 3
 283 97 258 80 258 52 c 0
 258 29 269 16 275 11 c 1
 292 0 306 -4 366 -4 c 3
 445 -4 518 57 518 127 c 0xfc
 518 174 494 213 455 266 c 0
 434 295 405 334 405 361 c 3
 405 371 408 382 421 391 c 0
 452 414 552 468 552 570 c 0
 552 648 479 695 413 695 c 0
 333 695 192 588 160 424 c 1
 133 424 l 2
 110 424 85 391 85 381 c 0
 85 379 86 378 87 378 c 2
 152 378 l 1
 96 54 l 1
 65 -105 59 -172 20 -172 c 0
 2 -172 -8 -155 -17 -142 c 0
 -28 -127 -42 -118 -59 -118 c 0
 -82 -118 -97 -142 -97 -167 c 0
 -97 -180 -93 -192 -88 -200 c 1
 -77 -208 -48 -218 -14 -218 c 0
 66 -218 179 -106 211 58 c 0
 235 184 251 282 275 424 c 0xfa
EndSplineSet
Validated: 9
EndChar

StartChar: ae
Encoding: 230 230 164
Width: 566
Flags: W
HStem: -8 70<94 208.995> -6 83<354.038 469.5> 188 38<391 432.561> 411 38<215.186 311.443 448.507 539.5>
VStem: 266.76 119.24<91.8924 187.849> 506 119<301.561 411.54>
LayerCount: 2
Fore
SplineSet
480 412 m 0x3c
 432 412 396 277 391 226 c 1
 430 226 506 299 506 373 c 0
 506 391 502 412 480 412 c 0x3c
266.76 90.8828 m 1
 263.627 105.715 265.267 186.015 271.214 208.847 c 1
 249.945 204.6 207.896 188.598 198 182 c 0
 183 172 162 146 159 124 c 1
 151 81 177 62 199 62 c 0xbc
 218.989 62 257.101 82.8398 266.76 90.8828 c 1
290 449 m 0
 332.885 449 367.142 427.258 384.661 391.073 c 1
 425.357 426.701 471.202 449 514 449 c 0
 565 449 625 427 625 357 c 0
 625 254 450 188 388 188 c 1
 387 185 386 168 386 163 c 0
 386 126 397 77 447 77 c 0
 492 77 545 139 548 142 c 1
 557 142 563 118 563 112 c 1
 550 90 440 -6 377 -6 c 0x7c
 331.076 -6 296.447 16.1738 277.716 57.0039 c 1
 262.405 46.0859 156.936 -8 127 -8 c 0
 61 -8 26 55 37 114 c 0
 45 153 74 186 98 194 c 0
 134 206 204 228 270 249 c 0
 275.132 250.633 276.439 254.035 277 263 c 2
 280 311 l 2
 280.512 319.363 280.825 327.784 280.825 336 c 0
 280.825 376 273.709 411 248 411 c 0
 215 411 199 372 181 327 c 0
 171.827 304.068 155 283 125 283 c 0
 102 283 82 303 87 331 c 0
 90 344 98 358 108 372 c 1
 122 385 213 449 290 449 c 0
EndSplineSet
Validated: 33
EndChar

StartChar: eth
Encoding: 240 240 174
Width: 431
VWidth: 0
Flags: W
HStem: -7 41<144.038 206.447> 409 40<213.012 290.143> 674 21<142.681 151.236>
LayerCount: 2
Fore
SplineSet
166 509 m 17
 162 516 152 536 157 541 c 9
 407 705 l 17
 411 699 422 679 417 674 c 9
 166 509 l 17
138 674 m 1
 139 681 144 695 151 695 c 1
 291 656 458 509 410 263 c 0
 381 115 242 -7 152 -7 c 0
 30 -7 -6 94 15 204 c 0
 36 312 158 449 264 449 c 0
 282 449 298 447 305 446 c 1
 305 508 283 598 138 674 c 1
278 217 m 0
 289 272 301 355 298 369 c 0
 290.313 404.874 267 409 253 409 c 0
 193 409 157 304 141 210 c 0
 124.249 111.591 130 34 166 34 c 0
 216 34 259 119 278 217 c 0
EndSplineSet
Validated: 37
EndChar

StartChar: divide
Encoding: 247 247 181
Width: 464
VWidth: 0
Flags: W
HStem: 0 112<188.306 261.101> 223 51<43.5193 473.797> 385 112<261.738 334.533>
VStem: 173 104<15.7791 97.0155> 246.432 104<400.779 482.016>
CounterMasks: 1 e0
LayerCount: 2
Fore
SplineSet
45 223 m 2xe0
 42 223 40 226 40 231 c 0
 40 244 45 261 55 274 c 1
 473 274 l 2
 475 274 476 271 476 266 c 0
 476 253 474 235 463 223 c 1
 45 223 l 2xe0
305.432 497 m 0
 331.432 497 350.432 477 350.432 450 c 0
 350.432 417 323.432 385 290.432 385 c 0
 264.432 385 246.432 406 246.432 433 c 0xe8
 246.432 466 272.432 497 305.432 497 c 0
232 112 m 0
 258 112 277 92 277 65 c 0
 277 32 250 0 217 0 c 0
 191 0 173 21 173 48 c 0xf0
 173 81 199 112 232 112 c 0
EndSplineSet
Validated: 1
EndChar

StartChar: oslash
Encoding: 248 248 182
Width: 422
Flags: W
HStem: -6 40<130.163 207.69> 409 40<212.831 293.935>
VStem: 7 125<58.5181 244.792> 288 125<195.799 367.149>
LayerCount: 2
Fore
SplineSet
326 459 m 17
 332 459 353 455 354 449 c 9
 102 -19 l 17
 96 -20 78 -16 74 -8 c 9
 326 459 l 17
254 409 m 0
 179 409 132 235 132 125 c 0
 132 101 132 34 166 34 c 0
 241 34 288 209 288 312 c 0
 288 345 288 409 254 409 c 0
265 449 m 0
 348 449 413 416 413 297 c 0
 413 153 270 -6 150 -6 c 0
 67 -6 7 46 7 142 c 0
 7 286 145 449 265 449 c 0
EndSplineSet
Validated: 5
EndChar

StartChar: thorn
Encoding: 254 254 188
Width: 516
Flags: W
HStem: -219 32<-14.2744 28.5752> -210 30<176.804 222.633> -5 44<215 288.887> 365 84<336.99 442> 633 29<135.833 193.927> 677 20G<308 321.5>
VStem: 196 129<556.66 681> 379 129<221.407 360.245>
LayerCount: 2
Fore
SplineSet
312 603 m 2xbf
 309 585 268 382 266 373 c 1
 294 404 359 449 410 449 c 0
 474 449 508 398 508 328 c 0
 508 160 340 -5 218 -5 c 0
 212 -5 200 -4 191 0 c 1
 165 -126 l 2
 163 -135 162 -144 162 -154 c 0
 162 -159 166 -174 176 -177 c 0
 193 -181 220 -180 223 -180 c 0
 227 -181 224 -209 219 -211 c 1
 206 -211 195 -210 184 -210 c 0x7f
 133 -210 45 -212 -13 -219 c 1
 -18 -218 -16 -190 -11 -187 c 1
 7 -187 20 -182 29 -171 c 0
 36 -162 40 -151 45 -128 c 2
 120 232 l 1
 72 184 l 1
 68 189 65 204 65 211 c 0
 65 222 74 234 80 239 c 2
 131 287 l 1
 187 561 l 2
 191 579 196 603 196 614 c 0
 196 633 151 633 135 633 c 1
 132 637 135 658 139 662 c 1
 194 667 297 689 319 697 c 1
 324 694 325 684 325 678 c 0
 325 670 317 627 312 603 c 2xbf
340 365 m 0
 310 365 280 345 258 323 c 1
 253 296 223 149 223 149 c 2
 208 72 220 39 246 39 c 0
 317 39 379 215 379 299 c 0
 379 332 372 365 340 365 c 0
EndSplineSet
Validated: 33
EndChar

StartChar: gravecomb
Encoding: 768 768 190
Width: 228
Flags: W
HStem: 512 148
VStem: 154 172
LayerCount: 2
Fore
SplineSet
317 512 m 1
 300 516 154 584 154 619 c 0
 154 646 182 660 199 660 c 0
 212 660 226 657 230 653 c 0
 260 625 323 534 326 524 c 1
 325 518 320 514 317 512 c 1
EndSplineSet
Validated: 1
EndChar

StartChar: acutecomb
Encoding: 769 769 191
Width: 228
Flags: W
HStem: 512 148
VStem: 154 172
LayerCount: 2
Back
SplineSet
163 512 m 1
 160 514 155 518 154 524 c 1
 157 534 220 625 250 653 c 0
 254 657 272 660 284 660 c 0
 317 660 326 645 326 628 c 0
 326 600 180 516 163 512 c 1
EndSplineSet
Fore
SplineSet
163 512 m 5
 160 514 155 518 154 524 c 5
 157 534 220 625 250 653 c 4
 254 657 268 660 281 660 c 4
 298 660 326 646 326 619 c 4
 326 584 180 516 163 512 c 5
EndSplineSet
Validated: 1
EndChar

StartChar: uni2010
Encoding: 8208 8208 197
Width: 288
Flags: W
VStem: 64 257<206.461 266.565>
LayerCount: 2
Fore
SplineSet
88 267 m 2
 315 279 l 2
 320 279 321 272 321 267 c 0
 321 254 305 205 295 204 c 10
 69 193 l 2
 66 193 64 200 64 208 c 0
 64 219 77 266 88 267 c 2
EndSplineSet
Validated: 1
EndChar

StartChar: uni2011
Encoding: 8209 8209 198
Width: 288
Flags: W
VStem: 64 257<206.461 266.565>
LayerCount: 2
Fore
SplineSet
88 267 m 2
 315 279 l 2
 320 279 321 272 321 267 c 0
 321 254 305 205 295 204 c 10
 69 193 l 2
 66 193 64 200 64 208 c 0
 64 219 77 266 88 267 c 2
EndSplineSet
Validated: 1
EndChar

StartChar: figuredash
Encoding: 8210 8210 199
Width: 462
Flags: W
HStem: 194 74<71.5838 467.416>
LayerCount: 2
Fore
SplineSet
470 268 m 2
 477 268 477 258 477 252 c 0
 477 230 460 199 455 194 c 9
 69 194 l 2
 62 194 62 204 62 210 c 0
 62 232 79 263 84 268 c 9
 470 268 l 2
EndSplineSet
Validated: 1
EndChar

StartChar: endash
Encoding: 8211 8211 200
Width: 462
Flags: W
HStem: 194 74<71.5838 467.416>
LayerCount: 2
Fore
SplineSet
470 268 m 2
 477 268 477 258 477 252 c 0
 477 230 460 199 455 194 c 9
 69 194 l 2
 62 194 62 204 62 210 c 0
 62 232 79 263 84 268 c 9
 470 268 l 2
EndSplineSet
Validated: 1
EndChar

StartChar: emdash
Encoding: 8212 8212 201
Width: 824
Flags: W
HStem: 194 74<71.5838 820.416>
LayerCount: 2
Fore
SplineSet
823 268 m 2
 830 268 830 258 830 252 c 0
 830 230 813 199 808 194 c 9
 69 194 l 2
 62 194 62 204 62 210 c 0
 62 232 79 263 84 268 c 9
 823 268 l 2
EndSplineSet
Validated: 1
EndChar

StartChar: afii00208
Encoding: 8213 8213 202
Width: 1005
Flags: W
HStem: 194 74<71.5838 1004.42>
LayerCount: 2
Fore
SplineSet
1007 268 m 2
 1014 268 1014 258 1014 252 c 0
 1014 230 997 199 992 194 c 9
 69 194 l 2
 62 194 62 204 62 210 c 0
 62 232 79 263 84 268 c 9
 1007 268 l 2
EndSplineSet
Validated: 1
EndChar

StartChar: quoteleft
Encoding: 8216 8216 203
Width: 168
Flags: W
HStem: 474 232
VStem: 142 99<491.816 580.445>
LayerCount: 2
Fore
SplineSet
142 555 m 4
 160 649 265 706 273 706 c 4
 280 706 287 699 289 688 c 5
 226 652 221 623 219 614 c 4
 214 588 220 572 227 560 c 4
 235 547 244 538 241 524 c 4
 236 500 204 474 174 474 c 4
 167 474 149 478 142 485 c 5
 136 498 136 525 142 555 c 4
EndSplineSet
Validated: 33
EndChar

StartChar: quoteright
Encoding: 8217 8217 204
Width: 175
Flags: W
HStem: 474 232
VStem: 175 99<599.555 688.184>
LayerCount: 2
Fore
SplineSet
274 625 m 4
 256 531 151 474 143 474 c 4
 136 474 129 481 127 492 c 5
 190 528 195 557 197 566 c 4
 202 592 196 608 189 620 c 4
 181 633 172 642 175 656 c 4
 180 680 212 706 242 706 c 4
 249 706 267 702 274 695 c 5
 280 682 280 655 274 625 c 4
EndSplineSet
Validated: 33
EndChar

StartChar: quotesinglbase
Encoding: 8218 8218 205
Width: 180
Flags: W
HStem: -107 232
VStem: 50 98<7.57574 108.101>
LayerCount: 2
Fore
SplineSet
149 44 m 4
 131 -50 25 -107 17 -107 c 4
 10 -107 3 -100 1 -89 c 5
 64 -53 69 -24 71 -15 c 4
 76 11 69 27 62 39 c 4
 54 52 47 61 50 75 c 4
 55 99 86 125 116 125 c 4
 123 125 141 121 148 114 c 5
 154 101 155 74 149 44 c 4
EndSplineSet
Validated: 33
EndChar

StartChar: quotedblleft
Encoding: 8220 8220 206
Width: 305
Flags: W
HStem: 474 232
VStem: 142 99<491.816 580.445> 280 98<490.899 588.652>
LayerCount: 2
Fore
SplineSet
279 555 m 0
 297 649 403 706 411 706 c 0
 418 706 425 699 427 688 c 1
 364 652 359 623 357 614 c 0
 352 588 358 572 365 560 c 0
 373 547 381 538 378 524 c 0
 373 500 342 474 312 474 c 0
 305 474 287 478 280 485 c 1
 274 498 273 525 279 555 c 0
142 555 m 0
 160 649 265 706 273 706 c 0
 280 706 287 699 289 688 c 1
 226 652 221 623 219 614 c 0
 214 588 220 572 227 560 c 0
 235 547 244 538 241 524 c 0
 236 500 204 474 174 474 c 0
 167 474 149 478 142 485 c 1
 136 498 136 525 142 555 c 0
EndSplineSet
Validated: 33
EndChar

StartChar: quotedblright
Encoding: 8221 8221 207
Width: 313
Flags: W
HStem: 474 232
VStem: 175 99<599.555 688.184> 313 99<591.348 689.101>
LayerCount: 2
Fore
SplineSet
274 625 m 4
 256 531 151 474 143 474 c 4
 136 474 129 481 127 492 c 5
 190 528 195 557 197 566 c 4
 202 592 196 608 189 620 c 4
 181 633 172 642 175 656 c 4
 180 680 212 706 242 706 c 4
 249 706 267 702 274 695 c 5
 280 682 280 655 274 625 c 4
412 625 m 4
 394 531 288 474 280 474 c 4
 273 474 266 481 264 492 c 5
 327 528 332 557 334 566 c 4
 339 592 333 608 326 620 c 4
 318 633 310 642 313 656 c 4
 318 680 349 706 379 706 c 4
 386 706 405 702 412 695 c 5
 418 682 418 655 412 625 c 4
EndSplineSet
Validated: 33
EndChar

StartChar: quotedblbase
Encoding: 8222 8222 208
Width: 319
Flags: W
HStem: -108 232
VStem: 50 99<17.5546 106.184> 188 99<6.57574 107.101>
LayerCount: 2
Fore
SplineSet
149 43 m 0
 131 -51 26 -108 18 -108 c 0
 11 -108 4 -101 2 -90 c 1
 65 -54 70 -25 72 -16 c 0
 77 10 70 26 63 38 c 0
 55 51 47 60 50 74 c 0
 55 98 87 124 117 124 c 0
 124 124 142 120 149 113 c 1
 155 100 155 73 149 43 c 0
287 43 m 0
 269 -51 163 -108 155 -108 c 0
 148 -108 141 -101 139 -90 c 1
 202 -54 207 -25 209 -16 c 0
 214 10 207 26 200 38 c 0
 192 51 185 60 188 74 c 0
 193 98 224 124 254 124 c 0
 261 124 280 120 287 113 c 1
 293 100 293 73 287 43 c 0
EndSplineSet
Validated: 33
EndChar

StartChar: dagger
Encoding: 8224 8224 209
Width: 366
Flags: W
HStem: 432 91<134.058 185.829 369.939 419.191> 463 25<192.477 247.602 298.97 362.826> 642 20G<301.5 322>
VStem: 172 18<-23.1803 16.439>
LayerCount: 2
Fore
SplineSet
236 488 m 8x70
 248 488 254 492 266 505 c 1
 272 538 275 606 261 625 c 1
 265 646 291 662 312 662 c 0
 332 662 351 646 347 625 c 1
 326 606 302 538 296 505 c 1
 303 492 308 488 320 488 c 0x70
 351 488 381 504 402 523 c 1
 422 523 433 497 429 476 c 0
 425 455 405 432 385 432 c 1xb0
 371 451 346 462 315 463 c 24
 301 463 286 447 284 435 c 1
 287 418 295 394 301 365 c 1
 254 227 247 185 190 -10 c 1
 186 -17 184 -23 179 -24 c 1
 175 -23 174 -15 172 -10 c 1
 191 185 200 227 206 365 c 1
 221 390 240 418 250 435 c 1
 252 447 245 463 231 463 c 24x70
 199 462 170 451 149 432 c 1
 129 432 119 455 123 476 c 0
 127 497 147 523 167 523 c 1xb0
 181 504 205 488 236 488 c 8x70
EndSplineSet
Validated: 33
EndChar

StartChar: daggerdbl
Encoding: 8225 8225 210
Width: 380
Flags: W
HStem: 115 91<78.7691 127.061 311.625 363.603> 150 25<134.889 198.03 248.892 305.139> 432 91<141.07 193.375 377.533 426.231> 463 25<198.912 255.459 306.02 370.187> 642 20G<308.5 329>
LayerCount: 2
Back
SplineSet
151 248 m 6
 158 248 159 253 159 275 c 6
 159 370 l 6
 159 375 156 379 151 379 c 4
 146 379 141 379 136 379 c 4
 98 379 73 376 31 374 c 5
 32 383 33 392 33 401 c 4
 33 412 32 424 31 435 c 5
 73 433 98 430 136 430 c 4
 141 430 146 430 151 430 c 4
 155 430 159 434 159 438 c 4
 159 513 154 554 150 629 c 5
 162 627 173 625 184 625 c 4
 195 625 207 627 219 629 c 5
 215 554 210 513 210 438 c 4
 210 434 214 430 218 430 c 6
 232 430 l 6
 270 430 296 433 338 435 c 5
 337 424 336 412 336 401 c 4
 336 392 337 383 338 374 c 5
 296 376 270 379 232 379 c 6
 218 379 l 6
 213 379 210 375 210 370 c 4
 210 332 210 294 210 256 c 4
 210 251 213 248 218 248 c 6
 338 253 l 5
 337 242 336 230 336 219 c 4
 336 210 337 200 338 191 c 5
 218 197 l 5
 213 196 211 192 210 186 c 5
 212 130 217 63 219 -10 c 5
 208 -6 195 -5 184 -5 c 4
 173 -5 162 -6 150 -10 c 5
 152 63 157 130 159 186 c 4
 159 191 156 197 151 197 c 6
 31 191 l 5
 32 200 33 210 33 219 c 4
 33 230 32 242 31 253 c 5
 151 248 l 6
EndSplineSet
Fore
SplineSet
290 273 m 1x18
 273 244 256 220 246 203 c 1
 244 191 253 175 267 175 c 24x58
 299 176 327 187 348 206 c 1
 368 206 379 183 375 162 c 0
 371 141 350 115 330 115 c 1x88
 316 134 293 150 262 150 c 0
 250 150 243 146 231 133 c 1
 225 100 221 32 235 13 c 1
 231 -8 206 -24 186 -24 c 0
 165 -24 146 -8 150 13 c 1
 171 32 195 100 201 133 c 1
 194 146 189 150 177 150 c 16x48
 146 150 116 134 95 115 c 1
 75 115 65 141 69 162 c 0
 73 183 93 206 113 206 c 1x88
 127 187 151 176 182 175 c 24
 196 175 211 191 213 203 c 1
 210 220 200 248 195 273 c 1
 210 285 229 312 231 320 c 1
 233 329 218 358 213 365 c 1
 228 390 248 418 258 435 c 1
 260 447 252 463 238 463 c 24x58
 206 462 178 451 157 432 c 1
 137 432 126 455 130 476 c 0
 134 497 154 523 174 523 c 1x28
 188 504 212 488 243 488 c 8
 255 488 261 492 273 505 c 1
 279 538 283 606 269 625 c 1
 273 646 298 662 319 662 c 0
 339 662 358 646 354 625 c 1
 333 606 309 538 303 505 c 1
 310 492 315 488 327 488 c 0x18
 358 488 389 504 410 523 c 1
 430 523 440 497 436 476 c 0
 432 455 412 432 392 432 c 1x28
 378 451 354 462 323 463 c 24
 309 463 293 447 291 435 c 1
 294 418 302 394 308 365 c 1
 300 358 275 328 273 320 c 1
 271 312 279 285 290 273 c 1x18
EndSplineSet
Validated: 33
EndChar

StartChar: bullet
Encoding: 8226 8226 211
Width: 377
Flags: W
HStem: 123 281<191.464 285.39>
VStem: 108 260
LayerCount: 2
Fore
SplineSet
108 263 m 0
 123 340 194 404 266 404 c 0
 338 404 383 340 368 263 c 0
 353 186 283 123 211 123 c 0
 139 123 93 186 108 263 c 0
EndSplineSet
Validated: 33
EndChar

StartChar: onedotenleader
Encoding: 8228 8228 212
Width: 665
Flags: W
HStem: -11 138<297.557 371>
VStem: 272 126<15.7561 102.617>
LayerCount: 2
Fore
SplineSet
272 60 m 0
 279 97 313 127 348 127 c 27
 382 127 405 97 398 60 c 0
 391 23 358 -11 323 -11 c 27
 287 -11 265 23 272 60 c 0
EndSplineSet
Validated: 33
EndChar

StartChar: ellipsis
Encoding: 8230 8230 213
Width: 697
Flags: W
HStem: -11 138<78.557 152 330.557 404 582.557 656>
VStem: 53 126<15.7561 102.617> 305 126<15.7561 102.617> 557 126<15.7561 102.617>
CounterMasks: 1 70
LayerCount: 2
Fore
SplineSet
557 60 m 0
 564 97 598 127 633 127 c 27
 667 127 690 97 683 60 c 0
 676 23 643 -11 608 -11 c 27
 572 -11 550 23 557 60 c 0
305 60 m 0
 312 97 346 127 381 127 c 27
 415 127 438 97 431 60 c 0
 424 23 391 -11 356 -11 c 27
 320 -11 298 23 305 60 c 0
53 60 m 0
 60 97 94 127 129 127 c 27
 163 127 186 97 179 60 c 0
 172 23 139 -11 104 -11 c 27
 68 -11 46 23 53 60 c 0
EndSplineSet
Validated: 33
EndChar

StartChar: perthousand
Encoding: 8240 8240 214
Width: 1006
Flags: W
HStem: -1 30<501.708 552.225 812.792 863.309> 271 29<535.429 584.167 846.513 895.251> 341 30<211.791 262.309> 613 29<245.513 294.251>
LayerCount: 2
Fore
SplineSet
877.948 271 m 0
 823.698 271 795.896 159 801 86 c 0
 802.119 70 808.986 29 831.941 29 c 0
 886.191 29 912.84 142 908.084 210 c 0
 906.546 232 898.062 271 877.948 271 c 0
883.517 300 m 0
 943.191 300 993.315 279 998.839 200 c 0
 1005.48 105 908.904 -1 822.105 -1 c 0
 762.429 -1 714.651 33 710.177 97 c 0
 703.533 192 796.716 300 883.517 300 c 0
566.864 271 m 0
 512.614 271 484.812 159 489.916 86 c 0
 491.035 70 497.902 29 520.857 29 c 0
 575.107 29 601.756 142 597 210 c 0
 595.462 232 586.979 271 566.864 271 c 0
572.433 300 m 0
 632.107 300 682.231 279 687.755 200 c 0
 694.398 105 597.82 -1 511.021 -1 c 0
 451.345 -1 403.567 33 399.093 97 c 0
 392.449 192 485.632 300 572.433 300 c 0
276.948 613 m 0
 222.698 613 194.896 501 200 428 c 0
 201.119 412 207.986 371 230.941 371 c 0
 285.191 371 311.84 484 307.084 552 c 0
 305.546 574 297.063 613 276.948 613 c 0
282.517 642 m 0
 342.191 642 392.315 621 397.839 542 c 0
 404.482 447 307.904 341 221.104 341 c 0
 161.429 341 113.652 375 109.177 439 c 0
 102.533 534 195.716 642 282.517 642 c 0
628.273 618 m 2
 182.273 -14 l 1
 182.273 -14 148.273 -6 148.273 5 c 0
 148.273 7 149.273 9 150.273 11 c 26
 597.273 643 l 1
 597.273 643 629.273 634 629.273 623 c 0
 629.273 621 629.273 619 628.273 618 c 2
EndSplineSet
Validated: 33
EndChar

StartChar: minute
Encoding: 8242 8242 215
Width: 141
Flags: W
HStem: 484 215
VStem: 173 82<613.648 689.454>
LayerCount: 2
Fore
SplineSet
220 699 m 0
 239 699 259 687 255 667 c 0
 246 620 180 528 149 494 c 0
 144 489 138 484 134 484 c 0
 128 484 125 489 126 496 c 0
 127 499 155 612 173 666 c 0
 177 678 202 699 220 699 c 0
EndSplineSet
Validated: 33
EndChar

StartChar: second
Encoding: 8243 8243 216
Width: 276
Flags: W
HStem: 484 215
VStem: 173 82<613.648 689.454> 298 82<613.648 689.454>
LayerCount: 2
Fore
SplineSet
345 699 m 0
 364 699 384 687 380 667 c 0
 371 620 306 528 275 494 c 0
 270 489 264 484 260 484 c 0
 254 484 250 489 251 496 c 0
 252 499 280 612 298 666 c 0
 302 678 327 699 345 699 c 0
220 699 m 0
 239 699 259 687 255 667 c 0
 246 620 180 528 149 494 c 0
 144 489 138 484 134 484 c 0
 128 484 125 489 126 496 c 0
 127 499 155 612 173 666 c 0
 177 678 202 699 220 699 c 0
EndSplineSet
Validated: 33
EndChar

StartChar: uni2038
Encoding: 8248 8248 217
Width: 356
Flags: W
HStem: -61 174
VStem: 65 232
LayerCount: 2
Fore
SplineSet
281 -61 m 0
 269 -61 221 -17 193 28 c 1
 151 -17 81 -61 69 -61 c 0
 62 -61 65 -37 65 -37 c 1
 72 -26 140 16 196 103 c 0
 200 110 198 113 205 113 c 0
 225 113 215 96 248 33 c 0
 261 9 296 -32 297 -36 c 1
 296 -39 288 -61 281 -61 c 0
EndSplineSet
Validated: 1
EndChar

StartChar: guilsinglleft
Encoding: 8249 8249 218
Width: 335
Flags: W
VStem: 110 254
LayerCount: 2
Fore
SplineSet
303 92 m 1
 297 82 281 74 275 73 c 1
 271 77 216 154 110 233 c 1
 107 237 106 243 107 248 c 0
 108 253 112 259 116 263 c 1
 253 342 338 419 343 423 c 1
 348 422 362 414 364 404 c 1
 359 398 250 284 209 248 c 1
 236 212 300 98 303 92 c 1
EndSplineSet
Validated: 1
EndChar

StartChar: guilsinglright
Encoding: 8250 8250 219
Width: 461
Flags: W
VStem: 60 258
LayerCount: 2
Fore
SplineSet
291 404 m 5
 297 414 313 422 319 423 c 5
 323 419 378 342 484 263 c 5
 487 259 488 253 487 248 c 4
 486 243 482 237 478 233 c 5
 341 154 256 77 251 73 c 5
 246 74 232 82 230 92 c 5
 235 98 344 212 385 248 c 5
 358 284 294 398 291 404 c 5
EndSplineSet
Validated: 1
EndChar

StartChar: uni203E
Encoding: 8254 8254 220
Width: 667
Flags: W
HStem: 733 74<85.5838 588.416>
LayerCount: 2
Fore
SplineSet
591 807 m 2
 598 807 598 797 598 791 c 0
 598 769 581 738 576 733 c 9
 83 733 l 2
 76 733 76 743 76 749 c 0
 76 771 93 802 98 807 c 9
 591 807 l 2
EndSplineSet
Validated: 1
EndChar

StartChar: Euro
Encoding: 8364 8364 221
Width: 613
Flags: W
HStem: -7 44<300.019 459.176> 250 43<24.7946 373.873> 351 43<39.9538 389.032> 624 43<371.099 531.328>
VStem: 71 144<163.523 343.501> 599 34<480.548 544.905>
LayerCount: 2
Fore
SplineSet
451 624 m 0
 324 624 215 478 215 268 c 0
 215 176 253 37 369 37 c 0
 423 37 463 56 493 81 c 0
 539 119 575 196 578 204 c 1
 592 204 603 199 609 192 c 1
 607 181 555 48 541 40 c 0
 485 9 427 -7 341 -7 c 0
 160 -7 71 142 71 276 c 0
 71 526 286 667 451 667 c 0
 512 667 593 650 646 638 c 1
 646 627 635 506 633 494 c 0
 632 488 622 480 611 480 c 3
 606 480 602 480 599 484 c 1
 597 523 569 624 451 624 c 0
41.3184 351 m 2
 38 351 37.3184 355 37.3184 359 c 0
 37.3184 366 43.3184 388 50.3184 394 c 1
 388.159 394 l 2
 390.159 394 391.159 390 391.159 386 c 0
 391.159 381 388.159 360 379.159 351 c 1
 41.3184 351 l 2
26.1592 250 m 2
 23 250 22.1592 254 22.1592 258 c 0
 22.1592 265 28.1592 287 35.1592 293 c 1
 373 293 l 2
 375 293 376 289 376 285 c 0
 376 280 373 259 364 250 c 1
 26.1592 250 l 2
EndSplineSet
Validated: 5
EndChar

StartChar: arrowleft
Encoding: 8592 8592 222
Width: 717
Flags: W
HStem: 210 74<165 674.024>
LayerCount: 2
Fore
SplineSet
202 319 m 2
 165 284 l 1
 679 284 l 2
 685 284 686 281 686 271 c 0
 686 261 672 219 660 210 c 1
 150 210 l 1
 173 177 l 2
 208 126 227 108 227 99 c 0
 227 85 193 74 189 73 c 1
 188 75 135 132 17 227 c 0
 14 228 13 235 13 238 c 0
 13 247 17 259 26 268 c 1
 163 347 253 419 258 423 c 1
 263 422 286 411 286 399 c 0
 286 395 283 395 202 319 c 2
EndSplineSet
Validated: 1
EndChar

StartChar: arrowup
Encoding: 8593 8593 223
Width: 334
Flags: W
VStem: 15 325
LayerCount: 2
Fore
SplineSet
157 577 m 1
 119 540 l 1
 60 486 37 466 30 466 c 0
 19 466 15 496 15 502 c 1
 17 503 81 561 198 708 c 0
 201 713 206 714 212 714 c 0
 221 714 229 713 235 706 c 1
 283 575 337 505 340 500 c 1
 338 494 320 466 309 466 c 0
 302 466 289 486 251 540 c 2
 225 576 l 1
 105 -30 l 2
 104 -33 103 -36 92 -36 c 0
 75 -36 37 -22 37 -22 c 1
 157 577 l 1
EndSplineSet
Validated: 1
EndChar

StartChar: arrowright
Encoding: 8594 8594 224
Width: 704
Flags: W
HStem: 209 76<27.9756 537>
LayerCount: 2
Fore
SplineSet
537 209 m 1
 23 209 l 2
 17 209 16 212 16 222 c 0
 16 232 30 276 42 285 c 1
 552 285 l 1
 527 319 l 0
 487 371 471 390 473 398 c 0
 475 410 505 422 511 423 c 1
 515 419 566 347 672 268 c 1
 677 260 676 251 674 241 c 0
 673 235 670 229 665 227 c 1
 510 132 445 75 444 73 c 1
 439 74 414 86 416 98 c 0
 418 106 440 125 500 177 c 0
 537 209 l 1
EndSplineSet
Validated: 33
EndChar

StartChar: arrowdown
Encoding: 8595 8595 225
Width: 341
Flags: W
VStem: 0 325
LayerCount: 2
Fore
SplineSet
115 129 m 1
 235 735 l 2
 236 738 237 741 248 741 c 0
 265 741 303 727 303 727 c 1
 183 128 l 1
 221 165 l 1
 280 219 303 239 310 239 c 0
 321 239 325 209 325 203 c 1
 323 202 259 144 142 -3 c 0
 139 -8 134 -9 128 -9 c 0
 119 -9 111 -8 105 -1 c 1
 57 130 3 200 0 205 c 1
 2 211 20 239 31 239 c 0
 38 239 51 219 89 165 c 2
 115 129 l 1
EndSplineSet
Validated: 1
EndChar

StartChar: universal
Encoding: 8704 8704 226
Width: 652
Flags: W
HStem: -4 21G<187 200> 390 60<228.001 367.963> 631 36<7.4834 49.0558 204.528 261.43 428.625 480.466 597.391 656.462> 631 28<432.724 480.466>
LayerCount: 2
Fore
SplineSet
178 4 m 1xe0
 73 522 l 2
 67 559 63 577 59 597 c 0
 54 622 15 631 8 631 c 0
 5 631 6 641 7 647 c 0
 8 652 11 664 13 667 c 1xe0
 50 665 93 659 134 659 c 0xd0
 177 659 230 665 264 667 c 1
 268 662 262 631 257 631 c 0
 246 631 208 619 198 608 c 0
 196 605 194 603 193 597 c 0
 191 588 198 555 202 529 c 24
 207 500 214 455 214 455 c 1
 214 455 217 451 220 451 c 0
 255 449 288 450 311 450 c 0
 349 450 372 450 405 451 c 0
 408 451 412 454 413 456 c 1
 458 532 l 1
 474 556 487 577 490 594 c 0
 493 609 485 613 481 617 c 0
 470 628 433 633 426 633 c 0
 421 633 428 661 431 667 c 1
 468 665 491 661 532 661 c 0
 575 661 614 665 657 667 c 1
 658 665 658 658 657 652 c 0
 656 646 654 634 652 634 c 0
 641 634 581 610 568 592 c 0
 548 563 528 529 528 529 c 2
 256 77 l 0
 241 53 210 -4 190 -4 c 0
 184 -4 179 1 178 4 c 1xe0
367 387 m 0
 349 389 321 390 300 390 c 0
 271 390 261 390 232 388 c 0
 230 388 228 383 228 383 c 1
 261 205 l 1
 368 383 l 1
 368 383 369 387 367 387 c 0
EndSplineSet
Validated: 33
EndChar

StartChar: partialdiff
Encoding: 8706 8706 227
Width: 460
Flags: W
HStem: 0 55<103.298 226.484> 317 53<180.32 272.749> 580 62<198.138 298.507>
VStem: 327 106<368.94 550.27>
LayerCount: 2
Back
SplineSet
278 317 m 4
 242 317 213 270 201 209 c 4
 178 91 206 55 245 55 c 4
 298 55 325 145 339 219 c 5
 355 303 313 317 278 317 c 4
346 642 m 7
 460.579 642 490.888 531.848 490.888 422 c 7
 490.888 188 378 0 208 0 c 4
 117 0 56 60 82 194 c 4
 101 294 204 370 303 370 c 4
 341 370 359 361 362 361 c 4
 366.472 361 370 364 372 369 c 4
 377.687 386.061 384.849 426.733 384.849 466 c 7
 384.849 495.778 381.214 524.748 370 542 c 4
 349 575 310 580 282 580 c 7
 243 580 208 552 180 534 c 5
 176 538 173 564 186 576 c 4
 220 606 288 642 346 642 c 7
EndSplineSet
Fore
SplineSet
220 317 m 0
 184 317 155 270 143 209 c 0
 120 91 148 55 187 55 c 0
 240 55 267 145 281 219 c 1
 297 303 255 317 220 317 c 0
288 642 m 3
 403 642 433 532 433 422 c 3
 433 188 320 0 150 0 c 0
 59 0 -2 60 24 194 c 0
 43 294 146 370 245 370 c 0
 283 370 301 361 304 361 c 0
 308 361 312 364 314 369 c 0
 320 386 327 427 327 466 c 3
 327 496 323 525 312 542 c 0
 291 575 252 580 224 580 c 3
 185 580 150 552 122 534 c 1
 118 538 115 564 128 576 c 0
 162 606 230 642 288 642 c 3
EndSplineSet
Validated: 33
EndChar

StartChar: uni2206
Encoding: 8710 8710 228
Width: 603
Flags: W
HStem: 0 76<95.8638 440.969>
LayerCount: 2
Fore
SplineSet
444 83 m 6
 347 443 l 5
 344 446 339 447 335 441 c 6
 96 87 l 5
 93 80 96 76 101 76 c 6
 440 76 l 6
 444 76 445 79 444 83 c 6
411 613 m 5
 576 14 l 5
 576 14 569 8 566 0 c 5
 -3 0 l 5
 -6 6 -6 9 -8 16 c 5
 395 613 l 5
 411 613 l 5
EndSplineSet
Validated: 1
EndChar

StartChar: gradient
Encoding: 8711 8711 229
Width: 601
Flags: W
HStem: 566 76<153.955 502.136>
LayerCount: 2
Fore
SplineSet
154 559 m 2
 252 199 l 1
 255 196 259 195 263 201 c 2
 502 555 l 1
 505 562 502 566 497 566 c 2
 159 566 l 2
 155 566 153 563 154 559 c 2
187 29 m 1
 23 628 l 1
 23 628 30 634 33 642 c 1
 601 642 l 1
 604 636 604 633 606 626 c 1
 203 29 l 1
 187 29 l 1
EndSplineSet
Validated: 1
EndChar

StartChar: element
Encoding: 8712 8712 230
Width: 438
Flags: W
HStem: 11 60<122.933 361.902> 189 61<102.955 360.004> 370 60<169.75 430.022>
LayerCount: 2
Fore
SplineSet
362 220 m 0
 357 193 349 189 348 189 c 2
 95 189 l 2
 94 189 90 188 90 185 c 0
 89 122 119 71 181 71 c 2
 356 71 l 2
 356 71 369 64 362 29 c 0
 360 20 352 11 352 11 c 1
 171 11 l 2
 67 11 6 109 28 221 c 0
 49 330 142 430 243 430 c 2
 433 430 l 1
 433 430 437 421 435 409 c 0
 429 378 414 370 414 370 c 1
 232 370 l 2
 173 370 125 317 103 255 c 0
 102 252 104 250 107 250 c 2
 361 250 l 1
 361 249 365 237 362 220 c 0
EndSplineSet
Validated: 33
EndChar

StartChar: notelement
Encoding: 8713 8713 231
Width: 440
Flags: W
HStem: 11 60<139.564 362.902> 189 61<103.955 158 260 361.004> 370 60<170.75 288 389 431.022>
LayerCount: 2
Fore
SplineSet
75 -8 m 5
 72 -10 70 -10 66 -10 c 4
 63 -10 48 -6 39 10 c 4
 36 14 36 17 36 17 c 5
 65 58 l 1
 31 97 17 157 29 221 c 0
 50 330 143 430 244 430 c 2
 332 430 l 1
 370 484 l 5
 370 484 375 487 379 487 c 4
 390 487 399 479 405 470 c 4
 409 465 410 459 410 459 c 5
 389 430 l 1
 434 430 l 1
 434 430 438 421 436 409 c 0
 430 378 415 370 415 370 c 1
 346 370 l 1
 260 250 l 1
 362 250 l 1
 362 249 366 237 363 220 c 0
 358 193 350 189 349 189 c 2
 216 189 l 1
 139 81 l 1
 151 75 165 71 182 71 c 2
 357 71 l 1
 357 71 370 64 363 29 c 0
 361 20 353 11 353 11 c 1
 172 11 l 2
 145 11 121 18 101 29 c 1
 75 -8 l 5
203 250 m 1
 288 370 l 1
 233 370 l 2
 174 370 126 317 104 255 c 0
 103 252 105 250 108 250 c 2
 203 250 l 1
106 115 m 1
 158 189 l 1
 96 189 l 2
 95 189 91 188 91 185 c 0
 91 159 96 134 106 115 c 1
EndSplineSet
Validated: 33
EndChar

StartChar: summation
Encoding: 8721 8721 232
Width: 571
Flags: W
HStem: 2 58<160.956 424.897> 2 29<-7.53125 27.7578> 608 48<302.159 484.365> 627 29<113.102 139.47>
VStem: 530 34<506.298 551.036>
LayerCount: 2
Fore
SplineSet
464 0 m 1xa8
 363 0 188 2 103 2 c 0
 41 2 -8 -3 -8 -3 c 1
 -9 -1 -10 7 -8 15 c 0
 -6 23 -4 31 -2 31 c 0
 8 31 43 53 54 65 c 2
 271 306 l 2
 276 311 277 318 275 322 c 0
 267 342 208 490 156 592 c 0
 147 609 125 627 114 627 c 0
 112 627 112 634 113 641 c 0
 114 648 118 656 120 658 c 1
 120 658 166 656 228 656 c 0x58
 314 656 464 662 565 662 c 1
 562 612 564 556 564 511 c 1
 561 508 549 506 542 506 c 0
 535 506 531 508 530 513 c 0
 516 563 479 608 418 608 c 27
 398 608 392 608 366 608 c 0
 333 608 305 603 302 595 c 1
 409 360 l 1
 410 354 410 347 409 341 c 0
 408 336 405 332 402 329 c 0
 303 227 164 84 161 71 c 0
 160 64 162 60 225 60 c 0
 257 60 259 60 284 60 c 0
 332 60 391 65 421 80 c 0
 441 90 474 125 499 170 c 0
 501 174 506 176 513 176 c 0
 522 176 538 173 540 170 c 1
 512 116 479 44 464 0 c 1xa8
EndSplineSet
Validated: 33
EndChar

StartChar: minus
Encoding: 8722 8722 233
Width: 530
Flags: W
HStem: 209 74<43.2811 465.858>
LayerCount: 2
Fore
SplineSet
30 219 m 1
 30 219 47 283 56 283 c 2
 481 283 l 2
 484 283 487 283 486 276 c 0
 484 268 474 232 466 215 c 0
 463 209 458 209 458 209 c 1
 34 209 l 1
 34 209 28 209 30 219 c 1
EndSplineSet
Validated: 1
EndChar

StartChar: uni2213
Encoding: 8723 8723 234
Width: 513
Flags: W
HStem: 213 72<27.1421 192.109 280 450.789> 518 72<88.1413 501.217>
LayerCount: 2
Fore
SplineSet
262 210 m 2
 226 26 l 1
 226 26 210 16 167 10 c 0
 164 10 164 10 162 10 c 0
 156 10 157 13 158 17 c 2
 195 208 l 2
 195 210 195 213 190 213 c 2
 13 213 l 1
 13 213 7 213 9 223 c 0
 10 227 16 256 27 280 c 0
 30 286 35 285 35 285 c 1
 205 285 l 2
 208 285 211 289 211 291 c 2
 246 473 l 1
 246 473 246 478 252 480 c 0
 276 487 303 488 307 488 c 0
 316 488 315 482 315 482 c 1
 278 290 l 2
 277 287 277 285 280 285 c 2
 459 285 l 2
 463 285 466 285 465 278 c 0
 463 269 454 241 444 219 c 0
 441 213 437 213 437 213 c 1
 266 213 l 2
 263 213 262 212 262 210 c 2
511 590 m 1
 511 590 520 591 516 579 c 0
 500 531 492 521 489 518 c 1
 73 518 l 1
 73 518 65 517 70 531 c 0
 75 545 79 565 88 585 c 0
 91 591 95 590 95 590 c 1
 511 590 l 1
EndSplineSet
Validated: 1
EndChar

StartChar: radical
Encoding: 8730 8730 235
Width: 584
Flags: W
LayerCount: 2
Fore
SplineSet
14 150 m 1
 3 157 -6 174 -4 185 c 0
 -1 198 12 205 23 212 c 0
 58 235 168 312 183 324 c 0
 192 331 208 332 209 324 c 1
 212 292 212 280 217 254 c 2
 259 47 l 1
 275 90 542 791 542 791 c 1
 594 784 l 1
 594 784 287 -25 239 -153 c 1
 222 -171 194 -180 188 -180 c 0
 184 -180 181 -179 180 -175 c 2
 97 196 l 1
 14 150 l 1
EndSplineSet
Validated: 33
EndChar

StartChar: proportional
Encoding: 8733 8733 236
Width: 640
Flags: W
HStem: 37 73<136.311 237.394 517.052 560.164> 352 74<172.867 274.147 550.147 631.182>
LayerCount: 2
Fore
SplineSet
568 112 m 1
 576 112 576 101 574 90 c 0
 570 69 554 49 544 42 c 1
 422 42 379 162 369 162 c 2
 368 162 l 1
 306 99 237 37 146 37 c 0
 58 37 10 128 28 223 c 0
 49 332 152 426 253 426 c 0
 343 426 394 349 423 301 c 0
 424 299 427 298 428 300 c 0
 477 353 552 427 625 427 c 0
 632 427 635 396 631 373 c 0
 630 366 626 352 621 352 c 0
 617 352 612 352 605 352 c 0
 543 352 450 241 451 240 c 0
 466 210 497 112 568 112 c 1
112 229 m 0
 98 159 138 110 187 110 c 0
 248 110 313 187 341 218 c 0
 342 220 298 352 227 352 c 0
 177 352 125 297 112 229 c 0
EndSplineSet
Validated: 33
EndChar

StartChar: infinity
Encoding: 8734 8734 237
Width: 807
Flags: W
HStem: 39 74<133.222 239.941 522.875 625.953> 352 74<172.455 275.953 557.556 662.258>
LayerCount: 2
Fore
SplineSet
606 357 m 0
 549 357 473 268 454 246 c 0
 453 245 453 245 454 244 c 0
 469 214 509 113 573 113 c 0
 620 113 670 166 683 233 c 0
 697 304 658 357 606 357 c 0
227 352 m 0
 177 352 125 297 112 229 c 0
 98 159 137 110 186 110 c 0
 247 110 312 187 340 218 c 0
 341 219 342 219 341 220 c 0
 331 244 292 352 227 352 c 0
252 426 m 0
 342 426 393 349 422 301 c 0
 423 299 427 298 428 300 c 0
 477 353 555 426 645 426 c 0
 733 426 786 337 768 242 c 0
 747 132 642 39 540 39 c 0
 418 39 378 162 368 162 c 2
 367 162 l 1
 305 99 237 37 146 37 c 0
 58 37 10 128 28 223 c 0
 49 332 151 426 252 426 c 0
EndSplineSet
Validated: 33
EndChar

StartChar: notequal
Encoding: 8800 8800 238
Width: 509
Flags: W
HStem: 109 72<31.1421 145 253 443.789> 251 72<51.7465 246 355 470.928>
LayerCount: 2
Fore
SplineSet
39 261 m 1
 39 261 56 323 65 323 c 2
 298 323 l 1
 367 420 l 1
 367 420 372 423 376 423 c 0
 387 423 395 415 401 406 c 0
 405 401 407 395 407 395 c 1
 355 323 l 1
 483 323 l 2
 485 323 487 322 486 318 c 0
 484 309 474 279 464 257 c 0
 461 251 458 251 458 251 c 1
 303 251 l 1
 253 181 l 1
 451 181 l 2
 455 181 459 183 458 176 c 0
 456 167 447 137 437 115 c 0
 434 109 430 109 430 109 c 1
 202 109 l 1
 136 16 l 1
 133 14 130 14 126 14 c 0
 123 14 108 18 99 34 c 0
 96 38 96 41 96 41 c 1
 145 109 l 1
 16 109 l 1
 16 109 10 109 12 119 c 0
 13 123 20 152 31 176 c 0
 34 182 39 181 39 181 c 1
 196 181 l 1
 246 251 l 1
 44 251 l 1
 44 251 37 251 39 261 c 1
EndSplineSet
Validated: 1
EndChar

StartChar: lessequal
Encoding: 8804 8804 239
Width: 472
Flags: W
HStem: 4 67<7.51428 383.059>
LayerCount: 2
Back
SplineSet
437 62 m 5
 437 62 445 63 441 51 c 4
 425 3 421 9 418 6 c 5
 63 6 l 5
 63 6 54 5 59 19 c 4
 64 33 66 37 75 57 c 4
 78 63 82 62 82 62 c 5
 437 62 l 5
137 342 m 6
 516 529 l 6
 518 530 520 531 521 531 c 4
 524 531 529 521 528 484 c 4
 528 478 524 475 524 475 c 5
 188 310 l 5
 464 142 l 5
 464 142 466 141 465 136 c 4
 464 129 447 86 441 86 c 4
 440 86 438 87 436 88 c 6
 125 279 l 6
 113 287 113 301 116 318 c 4
 118 329 127 337 137 342 c 6
EndSplineSet
Fore
SplineSet
21 71 m 1
 74 71 382 71 382 71 c 2
 388 71 390 59 390 53 c 3
 390 39 381 21 372 4 c 1
 7 4 l 2
 0 4 0 16 0 22 c 3
 0 36 11 59 21 71 c 1
462 529 m 17
 466 524 474 498 474 477 c 27
 474 472 473 466 469 464 c 2
 138 308 l 1
 413 149 l 1
 413 131 397 86 391 86 c 0
 389 86 385 86 382 88 c 2
 62 269 l 2
 54 274 45 292 45 302 c 0
 45 328 73 348 85 354 c 0
 225 420 315 461 462 529 c 17
EndSplineSet
Validated: 1
EndChar

StartChar: greaterequal
Encoding: 8805 8805 240
Width: 456
Flags: W
HStem: 4 67<5.36435 381.584>
LayerCount: 2
Fore
SplineSet
18 71 m 1
 71 71 380 71 380 71 c 2
 386 71 388 59 388 53 c 3
 388 39 381 21 369 4 c 1
 5 4 l 2
 -2 4 -2 16 -2 22 c 3
 -2 36 9 59 18 71 c 1
23 86 m 17
 19 91 11 117 11 138 c 27
 11 143 12 149 16 151 c 2
 347 307 l 1
 72 466 l 1
 72 484 88 529 94 529 c 0
 96 529 100 529 103 527 c 2
 423 346 l 2
 431 341 440 323 440 313 c 0
 440 287 412 267 400 261 c 0
 260 195 170 154 23 86 c 17
EndSplineSet
Validated: 1
EndChar

StartChar: propersubset
Encoding: 8834 8834 241
Width: 437
Flags: W
HStem: 11 60<125.552 361.902> 370 60<169.75 430.022>
LayerCount: 2
Fore
SplineSet
232 370 m 2
 173 370 110 309 93 220 c 0
 76 130 119 71 181 71 c 2
 356 71 l 2
 356 71 369 64 362 29 c 0
 360 20 352 11 352 11 c 1
 171 11 l 2
 67 11 6 109 28 221 c 0
 49 330 142 430 243 430 c 2
 433 430 l 1
 433 430 437 421 435 409 c 0
 429 378 414 370 414 370 c 1
 232 370 l 2
EndSplineSet
Validated: 33
EndChar

StartChar: uni0302
Encoding: 770 770 242
Width: 353
Flags: W
HStem: 492 168
VStem: 127 221
LayerCount: 2
Fore
SplineSet
263 660 m 0
 266 660 269.898 657.948 274 650 c 0
 306 588 340 530 348 515 c 1
 346 505 341 494 336 492 c 1
 319 506 270.36 548 248.36 572 c 1
 217.36 548 153 504 131 492 c 1
 127 494 125 505 127 515 c 1
 138 526 204 597 250 650 c 0
 255.639 656.497 259 660 263 660 c 0
EndSplineSet
Validated: 524289
EndChar

StartChar: tildecomb
Encoding: 771 771 243
Width: 372
Flags: W
HStem: 519 50<329.433 422.186> 562 50<199.876 294.607>
VStem: 161 301
LayerCount: 2
Fore
SplineSet
263 612 m 0x60
 287 612 304 605 321 596 c 0
 342 585 358 569 388 569 c 0xa0
 421 569 448 604 455 612 c 1x60
 458 611 463 608 462 600 c 0
 460 584 449 567 440 557 c 0
 413 529 388 519 360 519 c 0xa0
 336 519 321 525 303 535 c 0
 283 546 264 562 234 562 c 0x60
 201 562 174 527 167 519 c 1xa0
 164 520 160 524 161 532 c 0
 163 548 173 564 182 574 c 0
 209 602 235 612 263 612 c 0x60
EndSplineSet
Validated: 1
EndChar

StartChar: dotlessi
Encoding: 305 305 244
Width: 281
VWidth: 0
Flags: W
HStem: -8 86<98.5 200> 363 86<77 178>
VStem: 52 123<34.1714 189.984> 103 122<251.016 405.986>
LayerCount: 2
Fore
SplineSet
98 309 m 2xe0
 99 313 103 337 103 342 c 0
 103 351 98 363 88 363 c 0
 66 363 20 308 17 302 c 1
 10 302 3 323 3 329 c 1
 20 361 104 449 158 449 c 0
 198 449 225 424 225 378 c 0xd0
 225 364 218 328 216 318 c 0
 179 132 l 2
 178 128 175 104 175 99 c 0
 175 90 179 78 189 78 c 0
 211 78 257 133 260 139 c 1
 267 139 274 118 274 112 c 1
 257 80 169 -8 115 -8 c 0
 82 -8 52 12 52 63 c 0
 52 77 59 115 61 123 c 1
 98 309 l 2xe0
EndSplineSet
Validated: 1
EndChar

StartChar: uni02F3
Encoding: 755 755 245
Width: 228
Flags: W
HStem: 535 150
VStem: 152 173
LayerCount: 2
Fore
SplineSet
311 535 m 4
 298 535 152 602 152 641 c 4
 152 658 175 685 208 685 c 4
 214 685 218 684 221 682 c 4
 248 657 325 566 325 557 c 4
 325 551 317 535 311 535 c 4
EndSplineSet
Validated: 1
EndChar

StartChar: uni02F4
Encoding: 756 756 246
Width: 228
Flags: W
HStem: 535 150
VStem: 184 173
LayerCount: 2
Fore
SplineSet
198 535 m 0
 192 535 184 551 184 557 c 0
 184 566 261 657 288 682 c 0
 291 684 295 685 301 685 c 0
 334 685 357 658 357 641 c 0
 357 602 211 535 198 535 c 0
EndSplineSet
Validated: 1
EndChar

StartChar: uni02F5
Encoding: 757 757 247
Width: 266
Flags: W
HStem: 706 131
VStem: 24 228
LayerCount: 2
Fore
SplineSet
239 706 m 0
 228 706 173 738 146 759 c 1
 112 740 41 706 30 706 c 0
 23 706 23 722 24 726 c 1
 33 735 62 756 92 782 c 0
 109 796 126 811 140 828 c 0
 146 834 152 837 156 837 c 0
 161 837 168 832 171 828 c 0
 181 813 192 798 204 784 c 0
 227 756 252 729 252 726 c 1
 250 718 245 706 239 706 c 0
EndSplineSet
Validated: 1
EndChar

StartChar: uni02F6
Encoding: 758 758 248
Width: 400
Flags: W
HStem: 703 63<369.678 472.226> 757 63<219.689 320.866>
LayerCount: 2
Fore
SplineSet
516 791 m 0x80
 516 768 475 703 409 703 c 0x80
 342 703 318 757 251 757 c 0
 224 757 184 712 177 712 c 0
 173 712 172 725 172 729 c 0
 172 758 221 820 282 820 c 0x40
 348 820 373 766 439 766 c 0
 466 766 507 811 511 811 c 0
 514 811 516 796 516 791 c 0x80
EndSplineSet
Validated: 1
EndChar

StartChar: uni0304
Encoding: 772 772 249
Width: 352
Flags: W
HStem: 546 43<163.589 400.816>
VStem: 161 242<546.431 589>
LayerCount: 2
Fore
SplineSet
392 546 m 1
 300 546 164 546 164 546 c 1
 164 546 161 549 161 555 c 0
 161 562 169 589 174 589 c 2
 398 589 l 2
 400 589 403 586 403 582 c 0
 403 577 400 555 392 546 c 1
EndSplineSet
Validated: 1
EndChar

StartChar: uni0305
Encoding: 773 773 250
Width: 526
Flags: W
HStem: 734 72<142.678 682.857>
LayerCount: 2
Fore
SplineSet
131 744 m 0
 131 746 146 806 156 806 c 2
 697 806 l 2
 699 806 703 805 701 797 c 0
 698 779 685 745 683 741 c 0
 680 735 674 734 674 734 c 1
 135 734 l 1
 135 734 129 734 131 744 c 0
EndSplineSet
Validated: 1
EndChar

StartChar: uni0306
Encoding: 774 774 251
Width: 231
Flags: W
HStem: 520 56<172.801 276.432> 621 20G<151 155 322 326>
VStem: 134 23<603.247 637.994> 319 18<621.269 639.513>
LayerCount: 2
Fore
SplineSet
226 576 m 4
 263 576 301 595 319 638 c 4
 319 640 321 641 323 641 c 4
 329 641 338 633 337 628 c 4
 337 627 335 622 335 620 c 4
 316 567 265 520 215 520 c 4
 165 520 131 564 134 621 c 4
 134 623 135 627 135 628 c 4
 136 633 148 641 154 641 c 4
 156 641 157 640 157 638 c 4
 158 595 195 576 226 576 c 4
EndSplineSet
Validated: 33
EndChar

StartChar: uni0307
Encoding: 775 775 252
Width: 265
Flags: W
HStem: 546 138<232.557 306>
VStem: 207 126<572.756 659.617>
LayerCount: 2
Fore
SplineSet
207 617 m 0
 214 654 248 684 283 684 c 27
 317 684 340 654 333 617 c 0
 326 580 293 546 258 546 c 27
 222 546 200 580 207 617 c 0
EndSplineSet
Validated: 33
EndChar

StartChar: uni0308
Encoding: 776 776 253
Width: 343
Flags: W
HStem: 465 139<143.859 219.141 319.288 394.712>
VStem: 117 129<492.062 577.554> 292 130<492.062 577.554>
LayerCount: 2
Fore
SplineSet
371 604 m 0
 407 604 429 573 422 535 c 0
 415 497 379 465 343 465 c 0
 307 465 285 497 292 535 c 0
 299 573 335 604 371 604 c 0
195 604 m 0
 231 604 253 573 246 535 c 0
 239 497 204 465 168 465 c 0
 132 465 110 497 117 535 c 0
 124 573 159 604 195 604 c 0
EndSplineSet
Validated: 33
EndChar

StartChar: hookabovecomb
Encoding: 777 777 254
Width: 167
Flags: W
HStem: 636 38<195.138 243.802>
VStem: 130 58<580.82 632.3> 150 44<499.931 514.906>
LayerCount: 2
Fore
SplineSet
242 674 m 0xc0
 280 674 301 649 295 616 c 0
 288 579 260 553 233 542 c 0
 211 533 198 528 195 515 c 0
 195 513 194 510 194 507 c 1
 193 504 169 498 156 498 c 1
 152 501 149 512 150 515 c 0xa0
 155 543 183 556 201 564 c 0
 224 574 239 587 243 606 c 0
 245 618 245 636 226 636 c 0
 205 636 192 619 188 600 c 0
 185 583 160 578 147 578 c 0
 139 578 128 583 130 595 c 0
 140 646 196 674 242 674 c 0xc0
EndSplineSet
Validated: 33
EndChar

StartChar: uni030A
Encoding: 778 778 255
Width: 426
Flags: W
HStem: 510 45<270.555 349.668> 663 44<283.185 362.399>
VStem: 224 184
LayerCount: 2
Fore
SplineSet
267 609 m 0
 261 579 278 555 306 555 c 0
 334 555 360 579 366 609 c 0
 372 639 355 663 327 663 c 0
 299 663 273 639 267 609 c 0
224 609 m 0
 234 663 286 707 336 707 c 0
 386 707 418 663 408 609 c 0
 398 555 347 510 297 510 c 0
 247 510 214 555 224 609 c 0
EndSplineSet
Validated: 33
EndChar

StartChar: uni030B
Encoding: 779 779 256
Width: 341
Flags: W
HStem: 512 148
VStem: 130 324
LayerCount: 2
Fore
SplineSet
291 512 m 1
 288 514 283 518 282 524 c 1
 285 534 348 625 378 653 c 0
 382 657 396 660 409 660 c 0
 426 660 454 646 454 619 c 0
 454 584 308 516 291 512 c 1
139 512 m 1
 136 514 131 518 130 524 c 1
 133 534 196 625 226 653 c 0
 230 657 244 660 257 660 c 0
 274 660 302 646 302 619 c 0
 302 584 156 516 139 512 c 1
EndSplineSet
Validated: 1
EndChar

StartChar: uni030C
Encoding: 780 780 257
Width: 353
Flags: W
HStem: 500 168
VStem: 151.36 221
LayerCount: 2
Fore
SplineSet
236.36 500 m 0
 233.36 500 229.463 502.052 225.36 510 c 0
 193.36 572 159.36 630 151.36 645 c 1
 153.36 655 158.36 666 163.36 668 c 1
 180.36 654 229 612 251 588 c 1
 282 612 346.36 656 368.36 668 c 1
 372.36 666 374.36 655 372.36 645 c 1
 361.36 634 295.36 563 249.36 510 c 0
 243.722 503.503 240.36 500 236.36 500 c 0
EndSplineSet
Validated: 524289
EndChar

StartChar: uni0312
Encoding: 786 786 258
Width: 131
Flags: W
VStem: 114 76<484.164 578.5>
LayerCount: 2
Fore
SplineSet
223 635 m 1
 227 635 240 628 240 625 c 1
 233 623 190 591 190 566 c 0
 190 544 216 540 216 508 c 0
 216 481.413 183.63 466.883 154 466 c 0
 141.28 465.621 128 468 119 473 c 1
 115 480 114 487 114 495 c 0
 114 543 180 622 223 635 c 1
EndSplineSet
Validated: 524321
EndChar

StartChar: uni0315
Encoding: 789 789 259
Width: 131
Flags: W
HStem: 454 227
VStem: 144 97<559.974 645.787> 165 76<539 664.339>
LayerCount: 2
Fore
SplineSet
105 476 m 4xa0
 105 482 165 519 165 559 c 4xa0
 165 580 144 587 144 616 c 4xc0
 144 675 200 681 238 681 c 5
 240 675 241 665 241 654 c 4
 241 641 240 625 237 610 c 4
 225 546 166 478 125 454 c 5
 123 454 l 6
 117 454 105 469 105 476 c 4xa0
EndSplineSet
Validated: 1
EndChar

StartChar: uni0326
Encoding: 806 806 260
Width: 131
Flags: W
HStem: -218 162<26.8587 42.6484>
VStem: 26 97<-163.5 -82.7684>
LayerCount: 2
Fore
SplineSet
-3 -101 m 4
 -3 -65 66 -56 111 -56 c 5
 121 -67 123 -81 123 -103 c 4
 123 -151 37 -209 -7 -218 c 5
 -8 -218 -9 -218 -10 -218 c 4
 -17 -218 -31 -211 -31 -204 c 4
 -31 -201 26 -176 26 -151 c 4
 26 -129 -3 -128 -3 -101 c 4
EndSplineSet
Validated: 1
EndChar

StartChar: uni0327
Encoding: 807 807 261
Width: 406
Flags: W
HStem: -156 32<118.743 202.37> -67 65<174.988 201.828>
VStem: 113 147
LayerCount: 2
Fore
SplineSet
202 -28 m 5
 202 -28 213 -27 220 -27 c 31
 247 -27 265 -52 260 -78 c 4
 251 -125 211 -156 154 -156 c 4
 134 -156 118 -147 113 -140 c 5
 113 -137 113 -127 114 -123 c 4
 115 -116 121 -109 124 -109 c 4
 129 -109 147 -124 167 -124 c 4
 193 -124 206 -109 209 -95 c 4
 212 -81 208 -67 192 -67 c 4
 186 -67 173 -69 163 -73 c 4
 161 -73 150 -61 153 -57 c 4
 164 -42 180 -16 190 -2 c 5
 220 -2 l 5
 202 -28 l 5
EndSplineSet
Validated: 33
EndChar

StartChar: dotbelowcomb
Encoding: 803 803 262
Width: 285
Flags: W
HStem: -192 148<78.75 155.75>
VStem: 48 138<-162.332 -75.1053>
LayerCount: 2
Fore
SplineSet
48 -118 m 0
 56 -77 94 -44 132 -44 c 0
 170 -44 194 -77 186 -118 c 0
 178 -159 141 -192 103 -192 c 0
 65 -192 40 -159 48 -118 c 0
EndSplineSet
Validated: 33
EndChar

StartChar: gravecomb.cap
Encoding: 63632 63632 263
Width: 270
Flags: W
HStem: 731 118
VStem: 200.389 207.611
LayerCount: 2
Fore
SplineSet
399 731 m 5
 384 733 200.389 777 200.389 817 c 4
 200.389 841 233 849 256 849 c 4
 270 849 293.153 846.266 302 841 c 4
 344 816 403 752 408 744 c 5
 408 740 403 734 399 731 c 5
EndSplineSet
Validated: 524289
EndChar

StartChar: acutecomb.cap
Encoding: 63633 63633 264
Width: 225
Flags: W
HStem: 731 118
VStem: 157 207.611
LayerCount: 2
Fore
SplineSet
166 731 m 5
 162 734 157 740 157 744 c 5
 162 752 221 816 263 841 c 4
 271.847 846.266 295 849 309 849 c 4
 332 849 364.611 841 364.611 817 c 4
 364.611 777 181 733 166 731 c 5
EndSplineSet
Validated: 524289
EndChar

StartChar: uni0302.cap
Encoding: 63634 63634 265
Width: 353
Flags: W
HStem: 704 140
VStem: 182 259
LayerCount: 2
Fore
SplineSet
334 844 m 4
 338 844 341.101 839.139 345 834 c 4
 367 805 418 744 441 720 c 5
 439.521 712 435.285 706 428.916 704 c 5
 417.471 707 347.306 744 320 764 c 5
 285.306 744 204.655 708 188.916 704 c 5
 185.285 706 180.834 714 182 720 c 5
 237 763 302 817 319.932 834 c 4
 326.146 839.891 331 844 334 844 c 4
EndSplineSet
Validated: 524289
EndChar

StartChar: uni030A.cap
Encoding: 63635 63635 266
Width: 286
Flags: W
HStem: 660 45<257.555 336.668> 813 44<270.898 348.945>
VStem: 211 184
LayerCount: 2
Fore
SplineSet
254 759 m 0
 248 729 265 705 293 705 c 0
 321 705 347 729 353 759 c 0
 359 789 342 813 314 813 c 0
 286 813 260 789 254 759 c 0
211 759 m 0
 221 813 272 857 322 857 c 0
 372 857 405 813 395 759 c 0
 385 705 334 660 284 660 c 0
 234 660 201 705 211 759 c 0
EndSplineSet
Validated: 33
EndChar

StartChar: tildecomb.cap
Encoding: 63636 63636 267
Width: 374
Flags: W
HStem: 728 50<355.285 464.515> 770 50<221.485 330.715>
VStem: 186 314
LayerCount: 2
Fore
SplineSet
286 820 m 0x60
 311 820 327 817 349 804 c 0
 371 791 392 778 424 778 c 0xa0
 459 778 485 812 491 820 c 1x60
 494 819 500 814 500 806 c 0
 500 791 490 775 481 765 c 0
 455 738 430 728 400 728 c 0xa0
 375 728 359 731 337 744 c 0
 315 757 294 770 262 770 c 0x60
 227 770 201 736 195 728 c 1xa0
 192 729 186 734 186 742 c 0
 186 757 196 773 205 783 c 0
 231 810 256 820 286 820 c 0x60
EndSplineSet
Validated: 1
EndChar

StartChar: uni0304.cap
Encoding: 63637 63637 268
Width: 352
Flags: W
HStem: 750 43<210.589 462.816>
VStem: 208 257<750.431 793>
LayerCount: 2
Fore
SplineSet
454 750 m 5
 362 750 211 750 211 750 c 5
 211 750 208 753 208 759 c 4
 208 766 216 793 221 793 c 6
 460 793 l 6
 462 793 465 790 465 786 c 4
 465 781 462 759 454 750 c 5
EndSplineSet
Validated: 1
EndChar

StartChar: uni0306.cap
Encoding: 63638 63638 269
Width: 231
Flags: W
HStem: 705 55<221.203 326.384>
VStem: 184 23<785.413 822.994> 369 18<806.216 824.513>
LayerCount: 2
Fore
SplineSet
278 760 m 0
 312 760 351 780 369 823 c 0
 369 825 371 826 373 826 c 0
 379 826 388 818 387 813 c 0
 387 812 385 807 385 805 c 0
 366 752 315 705 265 705 c 0
 215 705 181 749 184 806 c 0
 184 808 185 812 185 813 c 0
 186 818 198 826 204 826 c 0
 206 826 207 825 207 823 c 0
 208 780 236 760 278 760 c 0
EndSplineSet
Validated: 33
EndChar

StartChar: uni0327.cap
Encoding: 63639 63639 270
Width: 406
Flags: W
HStem: -172 24<120.638 183.976> -69 39<176 193.604>
VStem: 197 55<-131.015 -70.4431>
LayerCount: 2
Fore
SplineSet
170 -4 m 5
 201 -4 l 13
 176 -30 l 29
 194 -30 l 6
 220 -30 252 -50 252 -80 c 4
 252 -133 191 -172 125 -172 c 7
 111 -172 85 -167 79 -162 c 5
 77 -160 75 -155 75 -152 c 4
 75 -135 84 -123 95 -123 c 7
 115 -123 122 -148 152 -148 c 7
 178 -148 197 -130 197 -106 c 4
 197 -82 181 -69 167 -69 c 4
 155 -69 148 -72 136 -77 c 4
 134 -77 120 -69 120 -64 c 4
 120 -59 141 -42 170 -4 c 5
EndSplineSet
Validated: 1
EndChar

StartChar: uni0307.cap
Encoding: 63640 63640 271
Width: 203
Flags: W
HStem: 728 138<262.557 336>
VStem: 237 126<754.756 841.617>
LayerCount: 2
Fore
SplineSet
237 799 m 0
 244 836 278 866 313 866 c 27
 347 866 370 836 363 799 c 0
 356 762 323 728 288 728 c 27
 252 728 230 762 237 799 c 0
EndSplineSet
Validated: 33
EndChar

StartChar: uni0323.cap
Encoding: 63641 63641 272
Width: 285
Flags: W
HStem: -180 148<81.25 157.75>
VStem: 51 137<-150.332 -61.6684>
LayerCount: 2
Fore
SplineSet
51 -106 m 0
 59 -65 96 -32 134 -32 c 0
 172 -32 196 -65 188 -106 c 0
 180 -147 143 -180 105 -180 c 0
 67 -180 43 -147 51 -106 c 0
EndSplineSet
Validated: 33
EndChar

StartChar: uni0305.cap
Encoding: 63642 63642 273
Width: 526
Flags: W
HStem: 734 72<142.678 682.857>
LayerCount: 2
Fore
SplineSet
131 744 m 0
 131 746 146 806 156 806 c 2
 697 806 l 2
 699 806 703 805 701 797 c 0
 698 779 685 745 683 741 c 0
 680 735 674 734 674 734 c 1
 135 734 l 1
 135 734 129 734 131 744 c 0
EndSplineSet
Validated: 1
EndChar

StartChar: hookabovecomb.cap
Encoding: 63643 63643 274
Width: 167
Flags: W
HStem: 636 38<195.138 243.802>
VStem: 130 58<580.82 632.3> 150 44<499.931 514.906>
LayerCount: 2
Fore
SplineSet
242 674 m 0xc0
 280 674 301 649 295 616 c 0
 288 579 260 553 233 542 c 0
 211 533 198 528 195 515 c 0
 195 513 194 510 194 507 c 1
 193 504 169 498 156 498 c 1
 152 501 149 512 150 515 c 0xa0
 155 543 183 556 201 564 c 0
 224 574 239 587 243 606 c 0
 245 618 245 636 226 636 c 0
 205 636 192 619 188 600 c 0
 185 583 160 578 147 578 c 0
 139 578 128 583 130 595 c 0
 140 646 196 674 242 674 c 0xc0
EndSplineSet
Validated: 33
EndChar

StartChar: uni030B.cap
Encoding: 63644 63644 275
Width: 432
Flags: W
HStem: 731 118
LayerCount: 2
Fore
SplineSet
356 731 m 1
 352 734 347 740 347 744 c 1
 352 752 411 816 453 841 c 0
 461.847 846.266 485 849 499 849 c 0
 522 849 554.611 841 554.611 817 c 0
 554.611 777 371 733 356 731 c 1
166 731 m 1
 162 734 157 740 157 744 c 1
 162 752 221 816 263 841 c 0
 271.847 846.266 295 849 309 849 c 0
 332 849 364.611 841 364.611 817 c 0
 364.611 777 181 733 166 731 c 1
EndSplineSet
Validated: 524289
EndChar

StartChar: uni0308.cap
Encoding: 63645 63645 276
Width: 417
Flags: W
HStem: 717 138<224.557 298 438.557 512>
VStem: 199 126<743.756 830.617> 413 126<743.756 830.617>
LayerCount: 2
Fore
SplineSet
413 788 m 4
 420 825 454 855 489 855 c 31
 523 855 546 825 539 788 c 4
 532 751 499 717 464 717 c 31
 428 717 406 751 413 788 c 4
199 788 m 4
 206 825 240 855 275 855 c 31
 309 855 332 825 325 788 c 4
 318 751 285 717 250 717 c 31
 214 717 192 751 199 788 c 4
EndSplineSet
Validated: 33
EndChar

StartChar: uni0308.narrow
Encoding: 63646 63646 277
Width: 417
Flags: W
HStem: 443 138<152.557 226 330.557 404>
VStem: 127 126<469.756 556.617> 305 126<469.756 556.617>
LayerCount: 2
Fore
SplineSet
305 514 m 0
 312 551 346 581 381 581 c 27
 415 581 438 551 431 514 c 0
 424 477 391 443 356 443 c 27
 320 443 298 477 305 514 c 0
127 514 m 0
 134 551 168 581 203 581 c 27
 237 581 260 551 253 514 c 0
 246 477 213 443 178 443 c 27
 142 443 120 477 127 514 c 0
EndSplineSet
Validated: 33
EndChar

StartChar: uni030C.cap
Encoding: 63647 63647 278
Width: 459
Flags: W
HStem: 730 140
VStem: 280 259
LayerCount: 2
Fore
SplineSet
387 730 m 0
 383 730 379.898 734.86 376 740 c 0
 354 769 303 830 280 854 c 1
 281.479 862 285.715 868 292.084 870 c 1
 303.529 867 373.694 830 401 810 c 1
 435.694 830 516.345 866 532.084 870 c 1
 535.715 868 540.166 860 539 854 c 1
 484 811 419 757 401.068 740 c 0
 394.854 734.109 390 730 387 730 c 0
EndSplineSet
Validated: 524289
EndChar

StartChar: Aogonek
Encoding: 260 260 381
Width: 649
Flags: W
HStem: -218 62<337.5 421.711> -4 37<-9.51572 46.9561 138.449 192.56 582.633 630.23> 225 48<246 402.999> 642 20G<440 449>
VStem: 297 61<-173.5 -83.6818>
LayerCount: 2
Fore
SplineSet
504 4 m 0
 441 4 358 -59 358 -122 c 0
 358 -146 369 -156 394 -156 c 0
 436 -156 461 -125 468 -120 c 1
 475 -122 473.155 -142.346 471 -146 c 0
 448 -185 399 -218 357 -218 c 0
 318 -218 297 -187 297 -160 c 0
 297 -94 340 -54 383 -7 c 0
 411 23 439 41 439 81 c 0
 439 90 413 220 413 220 c 1
 413 220 411 224 408 224 c 0
 373 226 342 225 319 225 c 0
 281 225 255 225 222 224 c 0
 219 224 215 221 214 219 c 1
 214 219 180 163 164 135 c 0
 150 110 132 74 131 67 c 0
 126 41 189 33 196 33 c 1
 200 26 193 0 189 -4 c 1
 157 0 131 4 90 4 c 0
 47 4 21 0 -12 -4 c 1
 -15 0 -13 21 -7 32 c 1
 4 32 52 48 64 64 c 0
 85 92 93 106 110 134 c 2
 404 624 l 2
 412 637 435 662 445 662 c 0
 453 662 462 658 463 655 c 1
 556 148 l 2
 562 117 564 97 568 76 c 0
 576 35 626 33 633 33 c 1
 636 24 631 0 627 -4 c 1
 590 -2 545 4 504 4 c 0
364 476 m 1
 246 280 l 1
 246 280 246 276 248 276 c 0
 266 274 303 273 324 273 c 0
 353 273 370 273 399 275 c 0
 401 275 403 280 403 280 c 1
 364 476 l 1
EndSplineSet
Validated: 33
EndChar

StartChar: aogonek
Encoding: 261 261 382
Width: 458
Flags: W
HStem: -218 62<230.5 314.711> -7 88<64 185> 394 55<223.816 331>
VStem: 6 126<86.0352 221.784> 190 61<-173.5 -89.7243>
LayerCount: 2
Fore
SplineSet
257 394 m 0
 189 394 132 270 132 152 c 0
 132 104 146 81 168 81 c 0
 202 81 252 182 272 281 c 2
 292 382 l 1
 285 390 271 394 257 394 c 0
453 112 m 1
 444 95 414 62 380 34 c 0
 319 -16 251 -67 251 -122 c 0
 251 -146 262 -156 287 -156 c 0
 329 -156 354 -125 361 -120 c 1
 368 -122 366.155 -142.346 364 -146 c 0
 341 -185 292 -218 250 -218 c 0
 211 -218 190 -187 190 -160 c 0
 190 -96 241 -52 283 -7 c 1
 253 -3 232 18 232 58 c 0
 232 62 233 70 234 77 c 0
 235 85 237 92 238 96 c 1
 217 59 152 -7 92 -7 c 0
 36 -7 6 47 6 115 c 0
 6 294 186 449 313 449 c 0
 349 449 400 438 420 431 c 1
 358 132 l 2
 357 128 354 104 354 99 c 0
 354 90 358 78 368 78 c 0
 390 78 436 133 439 139 c 1
 446 139 453 118 453 112 c 1
EndSplineSet
Validated: 1
EndChar

StartChar: Eogonek
Encoding: 280 280 383
Width: 649
Flags: W
HStem: -218 62<268.5 352.711> -3 37<-8.59805 58.512> -1 43<204.823 349 368.659 400.762> 310 47<256.968 381.521> 620 37<115.098 166.741 308.338 482.305>
VStem: 228 61<-173.5 -88.7564> 403 29<234.175 275.196> 440 29<399.002 434.894> 515 36<511.277 581.026>
LayerCount: 2
Fore
SplineSet
228 -160 m 0xbf80
 228 -101 279 -31 349 -1 c 1xbf80
 282.427 -1 193.323 -1.27478 120 -1.6803 c 0
 53.4461 -2.04839 -0.104874 -2.52419 -12 -3 c 1
 -15 3 -11 27 -5 34 c 1xdf80
 7 35 51 38 58 51 c 0
 69 71 75 102 83 145 c 2
 155 513 l 2
 163 556 170 587 166 607 c 0
 164 620 121 622 109 623 c 1
 106 630 112 654 117 660 c 1
 158 657 210 657 249 657 c 0
 288 657 498 663 553 664 c 1
 550 614 551 561 551 516 c 1
 548 513 535 511 528 511 c 0
 521 511 516 514 515 519 c 0
 506 574 491 620 434 620 c 2
 357 620 l 2
 336 620 315 619 308 608 c 0
 301 596 298 576 292 547 c 2
 257 368 l 2
 256 362 275 357 295 357 c 2
 344 357 l 2
 399 357 414 369 440 427 c 0
 442 432 445 435 452 435 c 0
 459 435 467 433 469 430 c 1
 432 238 l 1
 430 236 421 234 414 234 c 0
 407 234 403 237 403 242 c 0
 401 290 390 299 382 303 c 0
 372 308 348 310 313 310 c 0
 287 310 245 308 243 296 c 2
 213 141 l 2
 212 135 201 82 205 62 c 0
 208 48 237 42 261 42 c 2
 323 42 l 2
 358 42 390 52 416 75 c 0
 440 96 459 125 484 170 c 0
 486 174 492 176 499 176 c 0
 508 176 523 173 525 170 c 1
 497 116 457 42 442 -2 c 1
 371 -2 289 -69 289 -122 c 0
 289 -146 300 -156 325 -156 c 0
 367 -156 392 -125 399 -120 c 1
 406 -122 404.155 -142.346 402 -146 c 0
 379 -185 330 -218 288 -218 c 0
 249 -218 228 -187 228 -160 c 0xbf80
EndSplineSet
Validated: 33
EndChar

StartChar: eogonek
Encoding: 281 281 384
Width: 373
Flags: W
HStem: -218 62<93.5 177.711> 188 38<136 177.561> 412 37<196.991 284.5>
VStem: 7 124<91.9422 188.325> 53 61<-173.5 -87.0578> 251 119<301.561 411.59>
LayerCount: 2
Fore
SplineSet
136 226 m 1xe4
 175 226 251 299 251 373 c 0
 251 400 247 412 225 412 c 0
 177 412 141 277 136 226 c 1xe4
53 -160 m 0xec
 53 -102 100 -49 140 -4 c 1
 133 -6 129 -6 122 -6 c 0
 51 -6 7 47 7 140 c 0
 7 288 144 449 259 449 c 0
 310 449 370 427 370 357 c 0
 370 254 195 188 133 188 c 1
 132 185 131 168 131 163 c 0xf4
 131 126 142 77 192 77 c 0
 237 77 290 139 293 142 c 1
 302 142 308 118 308 112 c 1
 302 102 277 78 245 53 c 0
 178 1 114 -67 114 -122 c 0
 114 -146 125 -156 150 -156 c 0
 192 -156 217 -125 224 -120 c 1
 231 -122 229.155 -142.346 227 -146 c 0
 204 -185 155 -218 113 -218 c 0
 74 -218 53 -187 53 -160 c 0xec
EndSplineSet
Validated: 1
EndChar

StartChar: Iogonek
Encoding: 302 302 386
Width: 649
Flags: W
HStem: -218 62<49.5 133.711> -4 37<-7.72067 57.8919 204.001 255.76> 625 37<114.587 166.999 312.002 378.598>
VStem: 9 61<-173.5 -87.6496>
LayerCount: 2
Fore
SplineSet
260 33 m 1
 263 26 258 2 253 -4 c 1
 244 -4 213 -3 189 -6 c 0
 138 -12 70 -69 70 -122 c 0
 70 -146 81 -156 106 -156 c 0
 148 -156 173 -125 180 -120 c 1
 187 -122 185.155 -142.346 183 -146 c 0
 160 -185 111 -218 69 -218 c 0
 30 -218 9 -187 9 -160 c 0
 9 -82 89 -15 126 4 c 1
 88 4 22 0 -12 -4 c 1
 -15 2 -10 26 -4 33 c 1
 8 34 52 38 59 51 c 0
 70 71 76 102 84 145 c 2
 156 513 l 2
 164 556 171 587 167 607 c 0
 165 620 123 624 111 625 c 1
 108 632 113 656 118 662 c 1
 153 658 211 655 250 655 c 0
 289 655 345 658 382 662 c 1
 385 656 381 632 375 625 c 1
 363 624 319 620 312 607 c 0
 301 587 294 556 286 513 c 2
 215 145 l 2
 207 102 200 71 204 51 c 0
 206 38 248 34 260 33 c 1
EndSplineSet
Validated: 33
EndChar

StartChar: iogonek
Encoding: 303 303 387
Width: 281
VWidth: 0
Flags: W
HStem: -218 62<52.5 136.711> 363 86<77 178> 540 147<154.393 235.607>
VStem: 12 61<-173.5 -90.7955> 103 122<251.016 405.986> 127 136<567.686 659.998>
LayerCount: 2
Fore
SplineSet
205 687 m 0xf4
 239 687 263 660 263 625 c 0
 263 581 227 540 185 540 c 0
 151 540 127 568 127 603 c 0
 127 647 163 687 205 687 c 0xf4
274 112 m 1
 264 93 226 56 192 27 c 0
 136 -21 73 -70 73 -122 c 0
 73 -146 84 -156 109 -156 c 0
 151 -156 176 -125 183 -120 c 1
 190 -122 188.155 -142.346 186 -146 c 0
 163 -185 114 -218 72 -218 c 0
 33 -218 12 -187 12 -160 c 0
 12 -97 63 -52 105 -7 c 1
 76 -3 52 17 52 63 c 0
 52 77 59 115 61 123 c 2
 98 309 l 2
 99 313 103 337 103 342 c 0
 103 351 98 363 88 363 c 0
 66 363 20 308 17 302 c 1
 10 302 3 323 3 329 c 1
 20 361 104 449 158 449 c 0
 198 449 225 424 225 378 c 0xf8
 225 364 218 328 216 318 c 2
 179 132 l 2
 178 128 175 104 175 99 c 0
 175 90 179 78 189 78 c 0
 211 78 257 133 260 139 c 1
 267 139 274 118 274 112 c 1
EndSplineSet
Validated: 1
EndChar

StartChar: Uogonek
Encoding: 370 370 388
Width: 649
Flags: W
HStem: -218 62<236.5 320.711> -9 72<211.809 321.534> 625 37<41.5874 93.9994 239.002 305.598 471.587 530.18 622.268 696.598>
VStem: 196 61<-173.5 -91.6884>
LayerCount: 2
Fore
SplineSet
257 -122 m 0
 257 -146 268 -156 293 -156 c 0
 335 -156 360 -125 367 -120 c 1
 374 -122 372.155 -142.346 370 -146 c 0
 347 -185 298 -218 256 -218 c 0
 217 -218 196 -187 196 -160 c 0
 196 -98 251 -48 292 -3 c 1
 272 -7 251 -9 230 -9 c 0
 152 -9 84 19 51 79 c 0
 24 128 22 197 42 301 c 2
 83 513 l 2
 91 556 98 587 94 607 c 0
 92 620 50 624 38 625 c 1
 35 632 40 656 45 662 c 1
 80 658 138 655 177 655 c 0
 216 655 272 658 309 662 c 1
 312 656 308 632 302 625 c 1
 290 624 246 620 239 607 c 0
 228 587 221 556 213 513 c 2
 178 330 l 2
 165 262 157 212 168 159 c 0
 186 71 255 63 291 63 c 0
 365 63 455 134 489 309 c 2
 522 479 l 2
 530 522 537 581 533 601 c 0
 529 620 480 624 468 625 c 1
 465 632 470 656 475 662 c 1
 518 658 547 655 590 655 c 0
 631 655 661 660 700 662 c 1
 703 656 699 632 693 625 c 1
 681 624 629 622 617 601 c 0
 606 581 588 523 580 480 c 2
 542 286 l 2
 517 161 456 78 381 33 c 0
 332 3 257 -70 257 -122 c 0
EndSplineSet
Validated: 33
EndChar

StartChar: uogonek
Encoding: 371 371 389
Width: 649
Flags: W
HStem: -218 62<278.5 362.711> -8 110<97.5 212.5> 363 86<78 179>
VStem: 60 122<42.0872 220.113> 104 122<248.099 405.986> 238 61<-173.5 -89.7243>
LayerCount: 2
Fore
SplineSet
238 -160 m 0xf4
 238 -96 289 -52 331 -7 c 1
 301 -3 279 19 279 59 c 0
 279 66 282 91 286 113 c 0
 290 134 295 155 298 166 c 1
 260 85 166 -8 123 -8 c 3
 72 -8 60 17 60 78 c 0xf4
 60 110 74 178 79 204 c 8
 87 245 93 268 99 309 c 18
 99.7715 313.05 104 337 104 342 c 0
 104 351 99 363 89 363 c 0
 67 363 21 308 18 302 c 1
 11 302 4 323 4 329 c 1
 21 361 105 449 159 449 c 0
 199 449 226 424 226 378 c 0xec
 226 364 219 328 217 318 c 0
 215 306 194 199 194 199 c 2
 192 187 182 133 182 123 c 0
 182 113 187 102 198 102 c 0
 227 102 310 249 335 372 c 10
 349 441 l 17
 359 444 394 447 405 447 c 0
 416 447 452 444 464 441 c 1
 406 132 l 2
 405 127 402 104 402 99 c 0
 402 90 406 78 416 78 c 0
 438 78 484 133 487 139 c 1
 494 139 501 118 501 112 c 1
 492 95 462 62 428 34 c 0
 367 -16 299 -67 299 -122 c 0
 299 -146 310 -156 335 -156 c 0
 377 -156 402 -125 409 -120 c 1
 416 -122 414.155 -142.346 412 -146 c 0
 389 -185 340 -218 298 -218 c 0
 259 -218 238 -187 238 -160 c 0xf4
EndSplineSet
Validated: 1
EndChar

StartChar: dcroat
Encoding: 273 273 390
Width: 464
Flags: W
HStem: -7 88<61 182 280 376> 394 55<254 303> 517 39<195.682 510.88> 632 29<273.833 331.927> 676 20<446 459.5>
VStem: 3 126<86.0352 222.076> 334 129<557.234 680>
LayerCount: 2
Fore
SplineSet
204 556 m 5
 232 556 496 556 509 556 c 4
 513 556 515 552 514 548 c 4
 513 543 508 524 503 517 c 5
 475 517 210 517 197 517 c 4
 193 517 193 524 194 528 c 4
 195 533 197 549 204 556 c 5
EndSplineSet
Refer: 68 100 N 1 0 0 1 0 0 2
Validated: 5
EndChar

StartChar: hbar
Encoding: 295 295 391
Width: 468
Flags: W
HStem: -8 86<289.5 391> 339 110<256.5 365> 517 39<49.6816 364.88> 632 29<56.8327 114.927> 676 20G<229 242.5>
VStem: 117 129<558.11 680> 243 123<34.1714 191.883> 287 122<220.031 398.174>
LayerCount: 2
Fore
SplineSet
58 556 m 1xf8
 86 556 350 556 363 556 c 0
 367 556 369 552 368 548 c 0
 367 543 362 524 357 517 c 1
 329 517 64 517 51 517 c 0
 47 517 47 524 48 528 c 0
 49 533 51 549 58 556 c 1xf8
233 602 m 0
 233 602 178 323 176 314 c 0
 173 302 170 284 168 274 c 1
 198 342 287 449 337 449 c 3
 393 449 409 419 409 362 c 0xfd
 409 328 394 259 389 233 c 2
 370 132 l 2
 369 128 366 104 366 99 c 0
 366 90 370 78 380 78 c 0
 402 78 448 133 451 139 c 1
 458 139 465 118 465 112 c 1
 448 80 360 -8 306 -8 c 0
 273 -8 243 12 243 63 c 0xfa
 243 77 250 115 252 123 c 1
 275 242 l 2
 278 254 287 308 287 318 c 0
 287 328 282 339 271 339 c 0
 242 339 164 218 136 91 c 10
 116 0 l 17
 106 -3 71 -6 60 -6 c 0
 49 -6 13 -3 1 0 c 1
 7 31 107 554 108 560 c 0
 112 579 117 602 117 613 c 0
 117 632 72 632 56 632 c 1
 53 636 56 657 60 661 c 1
 115 666 218 688 240 696 c 1
 245 693 246 683 246 677 c 0xfd
 246 669 236 616 233 602 c 0
EndSplineSet
Validated: 5
EndChar

StartChar: Hbar
Encoding: 294 294 392
Width: 726
Flags: W
HStem: -4 37<-7.72067 58.9979 204.001 256.413 346.402 412.998 558.001 610.413> 300 51<258.686 465.405> 477 39<95.0742 694.899> 625 37<114.587 166.999 312.002 378.598 468.587 520.999 666.002 732.598>
LayerCount: 2
Fore
SplineSet
104 516 m 1
 129 516 683 516 695 516 c 0
 698 516 699 512 698 508 c 0
 697 503 692 485 687 477 c 1
 662 477 107 477 95 477 c 0
 92 477 92 484 93 488 c 0
 94 493 97 508 104 516 c 1
250 655 m 0
 289 655 345 658 382 662 c 1
 385 656 381 632 375 625 c 1
 363 624 319 620 312 607 c 0
 301 587 294 556 286 513 c 2
 256 354 l 1
 256 352 257 351 257 351 c 1
 293 350 327 348 369 348 c 0
 403 348 444 350 478 351 c 1
 478 351 481 353 481 355 c 0
 510 513 l 2
 518 556 525 587 521 607 c 0
 519 620 477 624 465 625 c 1
 462 632 467 656 472 662 c 1
 507 658 565 655 604 655 c 0
 643 655 699 658 736 662 c 1
 739 656 735 632 729 625 c 1
 717 624 673 620 666 607 c 0
 655 587 648 556 640 513 c 2
 569 145 l 2
 561 102 554 71 558 51 c 0
 560 38 602 34 614 33 c 1
 617 26 612 2 607 -4 c 1
 572 0 514 3 475 3 c 0
 436 3 380 0 343 -4 c 1
 340 2 344 26 350 33 c 1
 362 34 406 38 413 51 c 0
 424 71 431 102 439 145 c 2
 468 293 l 0
 468 295 467 298 467 298 c 1
 433 299 397 300 359 300 c 0
 256 300 248 298 245 296 c 1
 244 295 243 292 243 292 c 1
 215 145 l 2
 207 102 200 71 204 51 c 0
 206 38 248 34 260 33 c 1
 263 26 258 2 253 -4 c 1
 218 0 160 3 121 3 c 0
 82 3 25 0 -12 -4 c 1
 -15 2 -10 26 -4 33 c 1
 8 34 52 38 59 51 c 0
 70 71 76 102 84 145 c 2
 156 513 l 2
 164 556 171 587 167 607 c 0
 165 620 123 624 111 625 c 1
 108 632 113 656 118 662 c 1
 153 658 211 655 250 655 c 0
EndSplineSet
Validated: 37
EndChar

StartChar: uni0237
Encoding: 567 567 395
Width: 363
VWidth: 0
Flags: W
HStem: -218 22<-8.06308 -1.37372> 363 86<172 273>
VStem: 198 122<250.078 405.986>
LayerCount: 2
Fore
SplineSet
193 309 m 2
 194 313 198 337 198 342 c 0
 198 351 193 363 183 363 c 0
 161 363 115 308 112 302 c 1
 105 302 98 323 98 329 c 1
 115 361 199 449 253 449 c 0
 293 449 320 424 320 378 c 0
 320 364 313 328 311 318 c 0
 311 318 288 195 273 120 c 0
 257 36 227 -20 186 -75 c 0
 143 -132 26 -210 -2 -218 c 1
 -7 -218 -11 -205 -11 -196 c 1
 94 -115 124 -49 153 100 c 0
 193 309 l 2
EndSplineSet
Validated: 1
EndChar

StartChar: Lslash
Encoding: 321 321 396
Width: 525
Flags: W
HStem: -3 37<-8.59805 58.512> -2 44<204.668 400.762> 430 20G<391.917 425> 625 37<113.587 165.999 311.002 377.598>
LayerCount: 2
Fore
SplineSet
50 210 m 2x30
 423 450 l 1
 427 445 439 419 435 416 c 2
 62 178 l 1
 58 184 46 207 50 210 c 2x30
EndSplineSet
Refer: 44 76 N 1 0 0 1 0 0 2
Validated: 37
EndChar

StartChar: lslash
Encoding: 322 322 397
Width: 241
Flags: W
HStem: -8 86<53.5 155> 632 29<49.8327 107.927> 676 20<222 235.5>
VStem: 7 123<34.1714 191.016> 110 129<558.971 680>
LayerCount: 2
Fore
SplineSet
12 290 m 2xe0
 247 439 l 1
 250 434 260 413 255 410 c 2
 19 260 l 1
 15 266 7 287 12 290 c 2xe0
EndSplineSet
Refer: 76 108 N 1 0 0 1 0 0 2
Validated: 5
EndChar

StartChar: kgreenlandic
Encoding: 312 312 398
Width: 467
VWidth: 0
Flags: W
HStem: -4 86<268.5 388> 363 86<39 140> 374 75<281.91 391>
VStem: 65 122<296.09 405.986> 315 129<323.305 400>
LayerCount: 2
Fore
SplineSet
60 309 m 2xb8
 61 313 65 337 65 342 c 0
 65 351 60 363 50 363 c 0
 28 363 -18 308 -21 302 c 1
 -28 302 -35 323 -35 329 c 1
 -18 361 66 449 120 449 c 0xd8
 160 449 187 424 187 378 c 0
 187 365.679 185.651 358.08 184.614 348 c 0
 184.389 345.809 184.179 343.5 184 341 c 1
 196 367 278 449 362 449 c 3
 420 449 444 423 444 377 c 0
 444 311 347 255 272 230 c 1
 289 182 333 82 376 82 c 0
 400 82 436 127 444 138 c 1
 454 138 458 117 458 112 c 1
 448 85 367 -4 307 -4 c 0
 230 -4 178 137 157 208 c 1
 142 133 116 0 116 0 c 17
 106 -3 71 -6 60 -6 c 0
 49 -6 13 -3 1 0 c 1
 7 31 60 309 60 309 c 2xb8
287 374 m 3xb8
 228 374 165 272 165 248 c 1
 227 248 315 288 315 342 c 3
 315 352 310 374 287 374 c 3xb8
EndSplineSet
Validated: 1
EndChar

StartChar: Eng
Encoding: 330 330 399
Width: 765
Flags: W
HStem: -218 24<266.691 283.994> -4 37<-6.92593 65.9346 159.197 221.766> 4 29<-8.00891 59.5625> 625 38<119.65 172.608 541.955 607.154 689.441 769.979> 625 30<546.958 605.252 693.887 772.432>
LayerCount: 2
Fore
SplineSet
485 69 m 1x90
 232 519 l 1
 162 157 l 2
 155 121 151 74 153 60 c 0
 156 41 218 34 225 34 c 1
 229 24 222 2 219 -4 c 1xd0
 182 -2 144 4 103 4 c 0xa0
 60 4 31 -2 -12 -4 c 1
 -15 5 -6 33 -4 33 c 0
 7 33 64 41 75 59 c 0
 84 74 99 122 106 160 c 0
 131 291 150 383 175 514 c 0
 180 542 183 585 175 604 c 0
 169 617 129 625 118 625 c 0
 113 625 117 657 123 662 c 1
 151 660 184 655 227 655 c 0xc8
 260 655 299 658 330 662 c 1
 350 584 463 401 548 248 c 1
 551 255 555 275 558 289 c 2
 594 476 l 2
 601 514 613 589 609 604 c 0
 605 622 549 626 538 626 c 0
 536 626 539 654 545 663 c 1x90
 587 661 614 655 657 655 c 0x88
 698 655 738 661 776 663 c 1
 777 657 774 635 766 625 c 1
 759 625 697 623 685 602 c 0
 678 588 658 515 651 479 c 2
 585 139 l 2
 540 -89 335 -200 276 -218 c 1
 271 -215 265 -205 265 -200 c 0
 265 -197 266 -195 267 -194 c 0
 358 -145 444 -63 485 69 c 1x90
EndSplineSet
Validated: 33
EndChar

StartChar: eng
Encoding: 331 331 400
Width: 363
VWidth: 0
Flags: W
HStem: -218 22<127.484 133.626> 339 110<296.5 405> 363 86<79 180>
VStem: 105 122<246.121 405.986> 327 122<220.227 398.174>
LayerCount: 2
Fore
SplineSet
408 120 m 0xd8
 392 36 363 -20 322 -75 c 0
 279 -132 162 -210 134 -218 c 1
 129 -218 124 -205 124 -196 c 1
 229 -115 259 -49 288 100 c 0
 315 242 l 2
 317 254 327 308 327 318 c 0
 327 328 322 339 311 339 c 0xd8
 282 339 204 218 176 91 c 10
 156 0 l 17
 146 -3 111 -6 100 -6 c 0
 89 -6 53 -3 41 0 c 1
 100 309 l 2
 101 313 105 337 105 342 c 0
 105 351 100 363 90 363 c 0
 68 363 22 308 19 302 c 1
 12 302 5 323 5 329 c 1
 22 361 106 449 160 449 c 0xb8
 200 449 227 424 227 378 c 0
 227 364 220.343 328.932 218 318 c 0
 215 304 213 295 208 274 c 1
 238 342 327 449 377 449 c 3
 433 449 449 419 449 362 c 0
 449 328 434 259 429 233 c 2
 408 120 l 0xd8
EndSplineSet
Validated: 1
EndChar

StartChar: Tbar
Encoding: 358 358 401
Width: 573
Flags: W
HStem: -4 37<58.4019 124.998 270.001 322.413> 304 39<84.6816 424.88> 613 44<103.131 242 372 502.637>
VStem: 534 36<483.215 572.16>
LayerCount: 2
Fore
SplineSet
93 343 m 5
 121 343 410 343 423 343 c 4
 427 343 429 339 428 335 c 4
 427 330 422 311 417 304 c 5
 389 304 99 304 86 304 c 4
 82 304 82 311 83 315 c 4
 84 320 86 336 93 343 c 5
470 657 m 0
 537 657 553 676 570 676 c 0
 577 676 578 675 581 673 c 1
 570 489 l 1
 567 486 550 482 542 482 c 0
 537 482 534 483 534 487 c 0
 537 552 506 613 459 613 c 2
 372 613 l 1
 281 145 l 2
 273 102 266 71 270 51 c 0
 272 38 314 34 326 33 c 1
 329 26 324 2 319 -4 c 1
 284 0 227 3 188 3 c 0
 149 3 92 0 55 -4 c 1
 52 2 56 26 62 33 c 1
 74 34 118 38 125 51 c 0
 136 71 143 102 151 145 c 2
 242 613 l 1
 155 613 l 2
 108 613 53 552 31 487 c 0
 29 483 26 482 21 482 c 0
 13 482 -2 486 -4 489 c 1
 56 673 l 1
 60 675 61 676 68 676 c 0
 85 676 94 657 161 657 c 0
 244 657 387 657 470 657 c 0
EndSplineSet
Validated: 37
EndChar

StartChar: tbar
Encoding: 359 359 402
Width: 294
Flags: W
HStem: -8 86<74.5 176> 279 39<1.68164 286.88> 378 46<22.3211 87 212 302.431>
VStem: 28 123<34.1714 190.195>
LayerCount: 2
Fore
SplineSet
10 318 m 1
 38 318 272 318 285 318 c 0
 289 318 291 314 290 310 c 0
 289 305 284 286 279 279 c 1
 251 279 16 279 3 279 c 0
 -1 279 -1 286 0 290 c 0
 1 295 3 311 10 318 c 1
EndSplineSet
Refer: 84 116 N 1 0 0 1 0 0 2
Validated: 5
EndChar

StartChar: OE
Encoding: 338 338 403
Width: 978
Flags: W
HStem: -10 43<277.941 448.487> -2 44<633.668 829.762> 310 47<685.968 810.521> 620 37<737.338 911.305> 624 43<370.874 527.413 774.281 911.305>
VStem: 70 144<149.833 394.085> 832 29<234.175 275.196> 869 29<399.002 434.894> 944 36<511.277 581.026>
LayerCount: 2
Fore
SplineSet
440 624 m 3xaf80
 302 624 214 409 214 244 c 0
 214 129 250.805 33 343 33 c 0
 456 33 499.559 81 510.833 139 c 0
 510.833 139 554.145 360 575.916 472 c 0
 584.08 514 576.126 558.947 545 589 c 0
 516 617 473 624 440 624 c 3xaf80
568 -2 m 0x7780
 556 -2 499 -3 446 -6 c 0
 408.938 -8.09787 368 -10 316 -10 c 0
 176 -10 70 115 70 261 c 0
 70 510 246.712 667 462 667 c 0xaf80
 561 667 586 657 656 657 c 0
 695 657 927 663 982 664 c 1
 980.933 646.215 980.372 628.049 980.092 610 c 0
 979.585 577.307 980 544.993 980 516 c 1
 977 513 964 511 957 511 c 0
 950 511 945 514 944 519 c 0
 935 574 920 620 863 620 c 2
 786 620 l 0
 765 620 744 619 737 608 c 0
 730 596 727 576 721 547 c 2
 686 368 l 2
 685 362 704 357 724 357 c 2
 773 357 l 2
 828 357 843 369 869 427 c 0
 871 432 874 435 881 435 c 0
 888 435 896 433 898 430 c 1
 861 238 l 1
 859 236 850 234 843 234 c 0
 836 234 832 237 832 242 c 0
 830 290 819 299 811 303 c 0
 801 308 777 310 742 310 c 0
 716 310 674 308 672 296 c 2
 642 141 l 2
 641 135 630 82 634 62 c 0
 637 48 666 42 690 42 c 0
 752 42 l 2
 787 42 819 52 845 75 c 0
 869 96 888 125 913 170 c 0
 915 174 921 176 928 176 c 0
 937 176 952 173 954 170 c 1
 926 116 886 42 871 -2 c 1
 847.079 -2 693.989 -2 568 -2 c 0x7780
EndSplineSet
Validated: 524321
EndChar

StartChar: oe
Encoding: 339 339 404
Width: 660
Flags: W
HStem: -6 83<409.872 524.5> -6 40<189.948 256.249> 188 38<446 487.561> 412 37<266.683 323.653 505.576 594.5>
VStem: 55 125<55.3865 244.792> 336 105<230.893 303.366> 561 119<301.561 411.54>
LayerCount: 2
Fore
SplineSet
446 226 m 1x3e
 485 226 561 299 561 373 c 0
 561 391 557 412 535 412 c 0
 487 412 451 277 446 226 c 1x3e
302 409 m 0
 227 409 180 235 180 125 c 0
 180 101 180 34 214 34 c 0x7e
 289 34 336 209 336 312 c 0
 336 345 336 409 302 409 c 0
569 449 m 0
 620 449 680 427 680 357 c 0
 680 254 505 188 443 188 c 1
 442 185 441 168 441 163 c 0
 441 126 452 77 502 77 c 0
 547 77 600 139 603 142 c 1
 612 142 618 118 618 112 c 1
 605 90 495 -6 432 -6 c 0xbe
 387.744 -6 353.978 14.5928 334.819 52.6289 c 1
 291.891 16.6641 243.306 -6 198 -6 c 0
 115 -6 55 46 55 142 c 0
 55 286 193 449 313 449 c 0
 367.505 449 414.248 434.77 439.918 391.299 c 1
 480.551 426.796 526.292 449 569 449 c 0
EndSplineSet
Validated: 1
EndChar

StartChar: uniF730
Encoding: 63280 63280 409
Width: 486
Flags: W
HStem: -7 68<218.223 311.177> 381 68<261.428 354.167>
LayerCount: 2
Fore
SplineSet
312 381 m 0
 257 381 206 309 191 231 c 0
 173 139 206 61 261 61 c 0
 316 61 366 133 381 211 c 0
 399 303 367 381 312 381 c 0
330 449 m 0
 452 449 529 347 505 221 c 0
 481 95 365 -7 242 -7 c 0
 120 -7 44 95 68 221 c 0
 92 347 208 449 330 449 c 0
EndSplineSet
Validated: 33
EndChar

StartChar: uniF731
Encoding: 63281 63281 410
Width: 295
Flags: W
HStem: -4 37<31.5703 86.5629 234.833 277.812> 4 29<36 152>
VStem: 29 326
LayerCount: 2
Fore
SplineSet
229 446 m 0xa0
 272 449 315 456 355 462 c 1
 357 459 358 444 356 435 c 0
 355 430 353 425 351 425 c 0
 340 424 296 406 292 395 c 0
 283 369 273 320 272 313 c 2
 241 149 l 2
 234 115 229 86 230 58 c 0
 231 47 271 33 278 33 c 0x60
 281 33 280 23 278 15 c 0
 276 7 274 -1 272 -4 c 1xa0
 234 -2 188 4 152 4 c 0x60
 113 4 68 -2 29 -4 c 1
 25 1 31 33 36 33 c 0
 47 33 90 47 95 58 c 0
 106 84 116 127 117 134 c 2
 149 298 l 2
 156 332 159 354 156 382 c 0
 154 400 132 402 124 402 c 0
 117 402 104 401 104 401 c 0
 100 401 102 417 104 427 c 0
 105 430 105 433 108 439 c 1
 146 440 192 443 229 446 c 0xa0
EndSplineSet
Validated: 33
EndChar

StartChar: uniF732
Encoding: 63282 63282 411
Width: 424
Flags: W
HStem: 0 102<178.86 366.125> 380 83<219.812 342.5>
LayerCount: 2
Fore
SplineSet
298 463 m 4
 387 463 437 404 423 330 c 0
 415 287 378 258 369 251 c 0
 301 197 234 152 179 113 c 0
 176 110 174 102 179 102 c 2
 309 102 l 2
 364 102 376 136 400 175 c 0
 403 180 405 182 411 182 c 0
 415 182 434 179 437 174 c 1
 416 123 382 50 363 0 c 1
 220 1 l 1
 220 1 37 0 30 0 c 1
 23 3 25 14 27 24 c 1
 153 134 274 235 287 303 c 0
 295 343 277 380 227 380 c 0
 160 380 108 295 101 295 c 1
 90 295 84 315 86 324 c 0
 88 332 89 336 90 337 c 0
 117 373 216 463 298 463 c 4
EndSplineSet
Validated: 33
EndChar

StartChar: uniF733
Encoding: 63283 63283 412
Width: 414
Flags: W
HStem: -183 51<49 174.981> 391 72<237.006 341>
LayerCount: 2
Fore
SplineSet
320 463 m 4
 362 463 424 442 408 360 c 0
 394 289 336 242 282 197 c 1
 318 197 426 168 406 63 c 0
 379 -78 186 -183 67 -183 c 0
 31 -183 8 -173 -6 -166 c 1
 -8 -159 -10 -146 -8 -137 c 0
 -2 -108 29 -82 51 -82 c 0
 91 -82 80 -132 126 -132 c 0
 185 -132 255 -69 272 21 c 0
 287 96 260 140 198 140 c 0
 185 140 167 134 147 128 c 1
 141 131 140 142 142 150 c 0
 143 154 146 168 149 173 c 1
 210 197 275 236 292 322 c 0
 301 367 274 391 250 391 c 0
 211 391 184 357 170 346 c 0
 166 343 164 342 162 342 c 0
 155 342 150 356 152 365 c 0
 152 367 153 368 154 369 c 0
 198 418 247 463 320 463 c 4
EndSplineSet
Validated: 33
EndChar

StartChar: uniF734
Encoding: 63284 63284 413
Width: 455
Flags: W
HStem: 6 70<130 263.906 398.956 437.947>
LayerCount: 2
Fore
SplineSet
286 -184 m 0
 254 -184 232 -180 234 -171 c 2
 267 0 l 1
 267 5 263 5 260 5 c 2
 37 6 l 1
 31 14 27 26 32 54 c 1
 173 199 304 318 428 450 c 0
 436 458 449 464 456 464 c 0
 462 464 473 462 471 454 c 2
 399 84 l 2
 398 79 401 77 406 76 c 1
 436 76 l 2
 447 76 446 59 438 16 c 0
 437 10 428 6 428 6 c 1
 389 6 l 2
 385 6 383 3 382 -2 c 2
 349 -175 l 1
 349 -175 325 -184 286 -184 c 0
283 82 m 1
 320 269 l 2
 321 272 319 278 317 278 c 1
 317 278 316 277 315 276 c 2
 126 88 l 2
 125 87 125 86 125 85 c 0
 124 81 126 76 130 76 c 2
 274 75 l 1
 277 76 281 76 283 82 c 1
EndSplineSet
Validated: 33
EndChar

StartChar: uniF735
Encoding: 63285 63285 414
Width: 351
Flags: W
HStem: -183 31<-12.24 60.2596> 354 108<178.5 396.131>
LayerCount: 2
Fore
SplineSet
410 462 m 5
 413 456 414 446 411 428 c 0
 408 411 395 367 386 354 c 1
 261 350 213 352 195 351 c 0
 186 350 184 347 182 342 c 2
 166 294 l 1
 164 287 171 283 178 281 c 0
 279 259 358 165 338 60 c 0
 303 -118 144 -183 -13 -183 c 1
 -14 -178 -15 -174 -13 -164 c 0
 -11 -153 -6 -152 -1 -152 c 0
 57 -152 181 -102 206 29 c 0
 228 144 174 194 100 207 c 0
 96 208 91 209 87 218 c 0
 168 451 l 0
 170 454 173 457 176 457 c 0
 242 457 375 454 410 462 c 5
EndSplineSet
Validated: 33
EndChar

StartChar: uniF736
Encoding: 63286 63286 415
Width: 467
VWidth: 0
Flags: W
HStem: -6 52<201.719 280.112>
VStem: 65 126<70.8621 269.88> 330 126<133.293 300.155>
LayerCount: 2
Fore
SplineSet
278 344 m 3
 278 355 305 367 334 367 c 0
 400 367 456 299 456 218 c 0
 456 102 337 -6 228 -6 c 0
 135 -6 65 55 65 161 c 0
 65 298 189 519 502 645 c 1
 510 642 513 621 512 611 c 1
 397 562 293 475 233 334 c 0
 199 254 191 175 191 120 c 0
 191 72 205 46 240 46 c 0
 294 46 330 144 330 224 c 0
 330 270 321 291 312 300 c 0
 302 310 286 316 279 318 c 1
 278 323 278 334 278 344 c 3
EndSplineSet
Validated: 33
EndChar

StartChar: uniF737
Encoding: 63287 63287 416
Width: 449
Flags: W
HStem: 355 102<150.318 400>
LayerCount: 2
Fore
SplineSet
449 457 m 2
 473 457 506 460 512 460 c 0
 518 460 518 456 517 451 c 0
 514 438 502 415 479 384 c 2
 80 -182 l 1
 77 -183 76 -183 74 -183 c 0
 57 -183 44 -167 47 -154 c 0
 48 -151 49 -147 51 -144 c 2
 400 355 l 1
 197 355 l 1
 151 355 120 296 110 276 c 1
 102 275 82 274 76 282 c 1
 92 328 133 414 146 445 c 0
 149 453 158 457 166 457 c 2
 449 457 l 2
EndSplineSet
Validated: 33
EndChar

StartChar: uniF738
Encoding: 63288 63288 417
Width: 430
Flags: W
HStem: -6 52<186.654 275.509> 580 53<281.631 364.29>
LayerCount: 2
Fore
SplineSet
177 159 m 24
 167 106 177 46 226 46 c 27
 267 46 301 86 310 134 c 0
 322 198 267 248 243 270 c 0
 239 274 233 276 231 276 c 0
 229 276 228 276 226 275 c 0
 205 264 186 206 177 159 c 24
256 494 m 0
 245 436 275 412 301 388 c 0
 303 386 308 384 312 384 c 0
 315 384 317 385 318 386 c 0
 345 409 359 443 367 483 c 0
 378 542 369 580 327 580 c 3
 289 580 267 549 256 494 c 0
134 486 m 0
 151 574 249 633 335 633 c 27
 423 633 507 584 489 489 c 0
 474 412 393 361 358 341 c 0
 356 340 354 335 356 334 c 0
 376 315 458 251 442 170 c 24
 421 62 309 -6 209 -6 c 27
 114 -6 30 39 53 159 c 0
 71 253 159 298 192 315 c 0
 194 316 196 320 193 323 c 0
 166 353 116 392 134 486 c 0
EndSplineSet
Validated: 33
EndChar

StartChar: uniF739
Encoding: 63289 63289 418
Width: 451
VWidth: 0
Flags: W
HStem: -183 34<34.5789 62.0265> 404 52<261.888 340.281>
VStem: 86 126<149.845 316.707> 351 126<184.042 379.138>
LayerCount: 2
Fore
SplineSet
264 105 m 3
 264 94 237 83 208 83 c 0
 142 83 86 151 86 232 c 0
 86 348 205 456 314 456 c 0
 407 456 477 395 477 289 c 0
 477 152 334 -102 40 -183 c 1
 33 -183 30 -155 30 -149 c 1
 145 -100 249 -25 309 116 c 0
 343 196 351 275 351 330 c 0
 351 378 337 404 302 404 c 0
 248 404 212 306 212 226 c 0
 212 180 221 159 230 150 c 0
 240 140 256 134 263 132 c 1
 264 127 264 115 264 105 c 3
EndSplineSet
Validated: 1
EndChar

StartChar: mu
Encoding: 956 956 419
Width: 467
Flags: W
HStem: -9 99<178.95 238.423> -4 82<358 431.272>
LayerCount: 2
Fore
SplineSet
184 446 m 0x80
 193 446 237 422 234 409 c 0
 232 399 225 355 191 266 c 0
 189 260 177 223 177 223 c 0
 162 144 174 90 205 90 c 0x80
 256 90 283 145 301 204 c 1
 303 212 349 433 349 433 c 17
 364 443 384 447 395 446 c 0
 436 443 458 422 455 409 c 0
 452 391 437 335 403 246 c 0
 401 240 394 223 394 223 c 1
 377 141 369 78 409 78 c 0
 431 78 461 100 469 109 c 1
 472 109 475 101 477 96 c 0
 478 92 477 79 476 76 c 0
 456 32 414 -4 379 -4 c 0x40
 337 -3 319 64 324 128 c 1
 284 58 242 -9 181 -9 c 0
 145 -9 143 42 139 76 c 1
 136 51 78 -123 121 -191 c 1
 115 -199 83 -227 67 -227 c 0
 21 -227 13 -166 13 -127 c 0
 13 -90 64 100 95 204 c 1
 100 228 106 275 110 298 c 0
 113 311 128 390 135 426 c 1
 141 434 173 446 184 446 c 0x80
EndSplineSet
Validated: 33
EndChar
